<svg id="Capa_1" height="512" viewBox="0 0 512 512" width="512" xmlns="http://www.w3.org/2000/svg"><path d="M354.423 180.476c10.133-17.002 15.991-36.846 16.069-58.059.226-61.996-49.81-113.458-111.79-114.886-64.468-1.485-117.195 50.331-117.195 114.462 0 21.38 5.873 41.381 16.08 58.501 4.748 7.964 3.63 18.101-2.52 25.039-28.904 32.607-46.977 79.044-46.977 130.585 0 98.671 66.222 151.094 147.91 151.094s147.91-52.423 147.91-151.094c0-51.541-18.073-97.978-46.977-130.585-6.156-6.945-7.26-17.085-2.51-25.057z" fill="#f7ef87"/><path d="M194.993 216.705c3.252-8.822 2.286-18.583-2.473-26.692-23.008-39.204-33.286-103.542-2.172-161.825-29.531 20.707-48.842 54.998-48.842 93.804 0 21.38 5.873 41.381 16.08 58.501 4.748 7.964 3.63 18.101-2.52 25.039-28.904 32.607-46.977 79.044-46.977 130.584 0 98.671 66.222 151.094 147.91 151.094 11.964 0 23.593-1.133 34.734-3.363-147.13-33.77-120.982-198.669-95.74-267.142z" fill="#efd176"/><path d="M256 504.5c-21.725 0-67.396-2.251-100.759-10.69-12.51-3.165-20.087-15.871-16.923-28.381s15.871-20.088 28.381-16.923c25.164 6.365 63.931 9.264 89.301 9.264s64.137-2.899 89.301-9.264c12.512-3.163 25.216 4.413 28.381 16.923 3.164 12.51-4.413 25.216-16.923 28.381-33.363 8.439-79.034 10.69-100.759 10.69z" fill="#e8899e"/><path d="M269.067 504.281c-21.776-10.162-24.669-32.941-16.225-46.527-25.341-.226-61.999-3.141-86.144-9.248-12.51-3.165-25.217 4.413-28.381 16.923s4.413 25.216 16.923 28.381c33.364 8.439 79.034 10.69 100.759 10.69 3.714 0 8.138-.068 13.068-.219z" fill="#de5c6e"/><path d="M370.492 122.418c.226-61.996-49.81-113.459-111.79-114.886-64.468-1.485-117.195 50.331-117.195 114.462 0 21.38 5.873 41.381 16.08 58.501 4.748 7.964 3.63 18.101-2.52 25.039-18.751 21.153-32.935 48.131-40.592 78.543 38.951-5.999 97.106-24.345 141.525-56.811 44.419 32.467 102.574 50.813 141.525 56.811-7.657-30.412-21.842-57.391-40.593-78.544-6.155-6.944-7.26-17.085-2.509-25.056 10.134-17.003 15.992-36.846 16.069-58.059z" fill="#e8899e"/><path d="M114.475 284.076c19.004-2.927 42.583-8.802 66.904-17.813 3.704-19.074 8.676-36.161 13.615-49.557 3.252-8.822 2.286-18.583-2.473-26.692-23.008-39.204-33.286-103.542-2.172-161.825-29.531 20.707-48.842 54.998-48.842 93.804 0 21.38 5.873 41.381 16.08 58.501 4.748 7.964 3.63 18.101-2.52 25.039-18.751 21.153-32.935 48.132-40.592 78.543z" fill="#de5c6e"/><circle cx="256" cy="122.091" fill="#fcf2d0" r="72.341"/><path d="M326.117 104.247C318.17 72.925 289.794 49.75 256 49.75c-35.39 0-64.824 25.42-71.091 58.992 31.195-.07 78.549-6.459 92.533-23.146 6.736 11.022 27.583 20.241 48.675 18.651z" fill="#4e5660"/><g fill="#de5c6e"><path d="M256 227.265c9.106 9.106 9.106 23.87 0 32.976-16.488 16.488-37.434 20.946-45.678 12.702s-3.786-29.19 12.702-45.678c9.106-9.106 23.87-9.106 32.976 0z"/><path d="M256 227.265c-9.106 9.106-9.106 23.87 0 32.976 16.488 16.488 37.434 20.946 45.678 12.702s3.786-29.19-12.702-45.678c-9.106-9.106-23.87-9.106-32.976 0zm-22.959 190.644c12.181 1.553 22.959-7.938 22.959-20.217v-35.651l-33.906 11.017c-11.678 3.794-17.374 16.978-12.133 28.083a29.673 29.673 0 0023.08 16.768z"/></g><path d="M302.039 401.14c5.241-11.105-.455-24.288-12.133-28.083L256 362.041v35.651c0 12.279 10.778 21.77 22.959 20.217a29.672 29.672 0 0023.08-16.769z" fill="#e8899e"/><path d="M307.413 330.337c-8.941-8.416-23.24-7.073-30.458 2.861L256 362.041l33.906 11.017c11.678 3.794 24.036-3.523 26.323-15.588a29.673 29.673 0 00-8.816-27.133z" fill="#de5c6e"/><path d="M204.588 330.337c8.941-8.416 23.24-7.073 30.458 2.861L256 362.041l-33.906 11.017c-11.678 3.794-24.036-3.523-26.323-15.588a29.674 29.674 0 018.817-27.133z" fill="#e8899e"/><path d="M241.736 303.347c-10.767 5.903-13.908 19.917-6.691 29.851L256 362.041l20.955-28.842c7.218-9.934 4.077-23.948-6.691-29.851a29.67 29.67 0 00-28.528-.001z" fill="#fff"/><ellipse cx="209.128" cy="141.938" fill="#eda1ab" rx="17.295" ry="13.773"/><ellipse cx="302.872" cy="141.938" fill="#eda1ab" rx="17.295" ry="13.773"/><path d="M344.06 356.57c2.532 9.638 11.229 16.017 20.748 16.017 1.805 0 3.641-.229 5.469-.71 10.664-2.802 21.473-6.013 32.047-10.206 1.04-8.141 1.586-16.657 1.586-25.554 0-7.525-.396-14.938-1.144-22.218-12.18 7.197-26.618 12.045-43.398 16.454-11.467 3.013-18.321 14.75-15.308 26.217zm-176.12 0c-2.532 9.638-11.229 16.017-20.748 16.017-1.805 0-3.641-.229-5.469-.71-10.664-2.802-21.473-6.013-32.047-10.206-1.04-8.141-1.586-16.657-1.586-25.554 0-7.525.396-14.938 1.144-22.218 12.18 7.197 26.618 12.045 43.398 16.454 11.467 3.013 18.321 14.75 15.308 26.217z" fill="#d2996f"/><path d="M292.793 135.698a7.5 7.5 0 007.5-7.5v-6.107a7.5 7.5 0 00-15 0v6.107a7.5 7.5 0 007.5 7.5zm-73.585-21.107a7.5 7.5 0 00-7.5 7.5v6.107a7.5 7.5 0 0015 0v-6.107a7.5 7.5 0 00-7.5-7.5zm51.42 8.225a7.498 7.498 0 00-10.581.725c-.602.69-1.927 1.847-4.047 1.847s-3.445-1.157-4.047-1.847a7.5 7.5 0 10-11.306 9.857c3.872 4.443 9.469 6.991 15.354 6.991s11.481-2.548 15.353-6.991a7.5 7.5 0 00-.726-10.582zm100.973 325.345c26.076-28.015 39.809-66.521 39.809-112.043 0-51.87-17.354-100.013-48.865-135.561-4.063-4.583-4.737-11.11-1.679-16.241 11.125-18.665 17.047-40.06 17.126-61.871.095-26.257-8.147-51.37-23.836-72.624a7.5 7.5 0 00-10.488-1.58 7.5 7.5 0 00-1.58 10.488c13.76 18.64 20.988 40.653 20.905 63.661-.069 19.128-5.26 37.886-15.012 54.247-6.417 10.767-5.075 24.379 3.34 33.871 15.865 17.897 27.975 39.924 35.633 64.079-24.612-4.885-51.318-13.439-75.346-24.182-2.765-9.933-8.884-19.999-17.328-28.443-10.376-10.376-26.369-11.783-38.279-4.238-11.91-7.546-27.903-6.138-38.279 4.238-8.444 8.444-14.563 18.509-17.328 28.442-24.028 10.744-50.734 19.297-75.346 24.183 7.658-24.155 19.768-46.181 35.632-64.078 8.417-9.495 9.762-23.1 3.35-33.855-9.827-16.483-15.021-35.384-15.021-54.661 0-29.045 11.442-56.224 32.22-76.527 20.77-20.297 48.219-31.099 77.302-30.436 21.353.492 41.877 7.357 59.353 19.854a7.5 7.5 0 008.725-12.201C306.672 8.426 283.251.595 258.875.033c-33.152-.762-64.45 11.561-88.132 34.704-23.689 23.15-36.736 54.138-36.736 87.255 0 21.98 5.926 43.537 17.138 62.342 3.052 5.119 2.373 11.639-1.69 16.223-31.511 35.547-48.864 83.69-48.864 135.56 0 45.516 13.729 84.018 39.798 112.031-4.561 4.063-7.81 9.388-9.341 15.441-3.232 12.78 2.008 26.208 13.04 33.414a7.5 7.5 0 008.203-12.559 15.87 15.87 0 01-6.701-17.177c1.039-4.109 3.616-7.567 7.256-9.737s7.907-2.793 12.015-1.754c25.786 6.522 65.32 9.493 91.14 9.493s65.354-2.971 91.139-9.493c8.479-2.146 17.126 3.01 19.272 11.491 2.145 8.481-3.01 17.125-11.491 19.271C322.271 494.797 277.379 497 256 497c-16.922 0-46.015-1.386-72.315-5.292-4.098-.614-7.912 2.22-8.52 6.317a7.5 7.5 0 006.317 8.52C208.561 510.567 237.731 512 256 512c22.072 0 68.52-2.3 102.599-10.919 16.499-4.174 26.527-20.992 22.354-37.491a30.688 30.688 0 00-9.352-15.429zM261.303 232.568c2.988-2.987 6.96-4.633 11.185-4.633s8.197 1.646 11.185 4.633c6.737 6.738 11.718 14.938 13.666 22.498.162.629.297 1.248.414 1.857.006.039.017.077.023.116.891 4.77.387 8.813-1.401 10.601-2.03 2.03-6.967 2.408-12.574.964-7.56-1.947-15.76-6.928-22.498-13.666a15.716 15.716 0 01-4.633-11.185c0-4.225 1.646-8.197 4.633-11.185zm-47.077 24.462c.006-.036.016-.071.022-.107.116-.609.252-1.228.414-1.857 1.947-7.56 6.928-15.76 13.666-22.498a15.716 15.716 0 0111.185-4.633c2.051 0 4.038.395 5.886 1.135-5.092 9.407-4.94 20.92.464 30.198-5.626 4.523-11.833 7.834-17.663 9.335-5.609 1.444-10.543 1.066-12.574-.964-1.789-1.789-2.294-5.835-1.4-10.609zm143.428 183.995a30.678 30.678 0 00-14.193.21c-24.542 6.207-62.54 9.035-87.461 9.035s-62.92-2.828-87.461-9.035a30.704 30.704 0 00-14.208-.226c-25.359-25.403-38.74-61.559-38.74-104.891 0-15.474 1.755-30.762 5.097-45.465 25.265-4.372 53.153-12.698 78.679-23.447.879 4.382 2.773 8.16 5.653 11.039 4.101 4.101 10.012 6.225 16.919 6.225 3.152 0 6.512-.442 10.002-1.341 8.226-2.119 16.579-6.576 24.062-12.765 11.088 9.194 23.547 14.178 34.063 14.178 6.724 0 12.654-2.034 16.916-6.296 2.879-2.879 4.773-6.657 5.653-11.04 25.526 10.748 53.415 19.074 78.679 23.446a205.404 205.404 0 015.097 45.465c-.001 43.342-13.388 79.504-38.757 104.908zm-66.819-123.606c-.911.086-1.812.221-2.702.394a27.98 27.98 0 00-.46-2.692 27.888 27.888 0 00-13.803-18.35c-11.189-6.135-24.549-6.136-35.739-.001a27.89 27.89 0 00-13.803 18.35c-.2.894-.35 1.792-.46 2.693a27.904 27.904 0 00-2.702-.394 27.889 27.889 0 00-21.718 7.456c-9.292 8.746-13.42 21.453-11.044 33.991a27.89 27.89 0 0013.187 18.797c.788.467 1.6.877 2.423 1.261-.441.796-.85 1.614-1.215 2.458a27.888 27.888 0 00.38 22.958c5.447 11.54 16.256 19.394 28.915 21.008a27.895 27.895 0 0021.953-6.733 27.951 27.951 0 001.955-1.907 27.951 27.951 0 001.955 1.907 27.895 27.895 0 0021.953 6.733c12.658-1.614 23.467-9.467 28.914-21.008a27.884 27.884 0 00.381-22.958 27.478 27.478 0 00-1.215-2.457 27.717 27.717 0 002.423-1.261 27.894 27.894 0 0013.187-18.797c2.376-12.538-1.752-25.245-11.044-33.991a27.918 27.918 0 00-21.721-7.457zm-81.602 47.338c-3.23-1.913-5.393-4.997-6.093-8.685a22.072 22.072 0 016.588-20.274c2.733-2.573 6.297-3.795 10.033-3.445 3.737.351 7.01 2.217 9.216 5.253l14.888 20.491-24.088 7.827c-3.572 1.161-7.315.745-10.544-1.167zm39.267 32.935c0 3.753-1.551 7.186-4.368 9.666-2.816 2.481-6.419 3.588-10.142 3.111a22.07 22.07 0 01-17.246-12.53c-1.602-3.394-1.665-7.161-.176-10.606 1.489-3.446 4.275-5.982 7.844-7.142l24.088-7.827zm7.5-48.411l-14.887-20.491c-2.207-3.037-2.969-6.726-2.148-10.389s3.086-6.673 6.377-8.478a22.065 22.065 0 0121.317 0c3.292 1.804 5.556 4.815 6.377 8.478.821 3.662.058 7.352-2.148 10.388zm39.256 48.658a22.07 22.07 0 01-17.246 12.53c-3.726.477-7.326-.63-10.142-3.111-2.817-2.48-4.368-5.913-4.368-9.666v-25.328l24.088 7.827c3.57 1.16 6.355 3.696 7.844 7.142 1.489 3.444 1.427 7.211-.176 10.606zm13.604-41.866c-.699 3.688-2.863 6.771-6.092 8.684-3.23 1.913-6.973 2.328-10.545 1.167l-24.088-7.827 14.886-20.49.001-.002c2.206-3.036 5.479-4.902 9.216-5.253 3.738-.351 7.3.873 10.033 3.445a22.073 22.073 0 016.589 20.276zM256 42.251c-38.921 0-71.408 28.001-78.42 64.912-.022.101-.037.204-.055.307a79.897 79.897 0 00-1.366 14.622c0 44.024 35.816 79.841 79.841 79.841s79.841-35.816 79.841-79.841a79.68 79.68 0 00-2.34-19.158 7.686 7.686 0 00-.176-.763c-8.872-34.418-40.176-59.92-77.325-59.92zm64.841 79.84c0 35.753-29.087 64.841-64.841 64.841s-64.841-29.087-64.841-64.841c0-2.008.105-3.992.285-5.954 26.072-.737 65.631-5.608 85.255-19.798 9.876 9.248 26.454 15.287 43.336 15.568.526 3.319.806 6.719.806 10.184zm-36.999-40.405A7.497 7.497 0 00278 78.118a7.51 7.51 0 00-6.307 2.662c-7.643 9.121-36.731 18.812-77.01 20.27 8.76-25.452 32.928-43.798 61.317-43.798 26.728 0 49.725 16.258 59.636 39.401-14.728-1.408-27.579-8.069-31.794-14.967z"/></svg>