<svg id="Layer_1" height="512" viewBox="0 0 511.965 511.965" width="512" xmlns="http://www.w3.org/2000/svg"><path d="M419.805 326.954c13.864 0 26.556-7.81 32.776-20.201 8.088-16.113 13.805-33.875 13.805-52.539 0-73.347-119.047-137.364-136.663-172.981C312.77 116.85 193.06 180.868 193.06 254.214c0 18.664 5.717 36.426 13.805 52.539 6.22 12.391 18.912 20.201 32.776 20.201z" fill="#5ab161"/><path d="M260.589 307.813c-28.21-59.677 34.451-153.948 47.351-200.967-39.623 36.92-114.881 89.209-114.881 147.368 0 18.664 5.717 36.426 13.805 52.539 6.22 12.391 18.912 20.201 32.776 20.201h32.942c-4.645-5.871-8.725-12.228-11.993-19.141z" fill="#69da61"/><path d="M206.863 306.753c-18.951-37.755-16.816-65.547-3.233-91.549 1.508 0-40.999-32.179-48.684-47.718-13.545 28.458-109.194 79.608-109.194 138.212 0 10.409 2.225 20.466 5.767 29.97 6.302 16.91 22.418 28.149 40.464 28.149h140.74l.542-37.443c-11.286-1.989-21.152-9.162-26.402-19.621z" fill="#efefef"/><path d="M201.753 218.977c1.099-2.304 1.82-3.658 1.877-3.773a714.49 714.49 0 00-1.965-1.725 87.392 87.392 0 00.088 5.498zM81.007 332.731c-14.188-43.627 28.775-101.036 50.064-138.907-32.71 29.048-85.318 68.409-85.318 111.875 0 10.409 2.225 20.466 5.767 29.97 6.302 16.91 22.418 28.149 40.464 28.149h7.771c-6.3-6.026-14.624-18.404-18.748-31.087z" fill="#f7f7f7"/><path d="M395.304 442.853v-60.228H264.14v61.123c15.768 6.487 27.51 30.199 27.781 58.61h.03c.319-33.435 16.523-60.378 36.479-60.378 19.955 0 36.16 26.943 36.479 60.378h.03c.285-29.944 13.312-54.666 30.365-59.505z" fill="#ff5872"/><path d="M347.714 103.018c28.971 52.855 95.51 137.085 75.226 201.125-2.557 8.073-6.075 15.664-10.277 22.812h7.142c13.864 0 26.556-7.81 32.776-20.201 8.088-16.113 13.804-33.875 13.804-52.539.001-60.2-80.182-114.111-118.671-151.197z" fill="#4b964f"/><path d="M404.793 382.624H254.651c-12.111 0-21.929-9.818-21.929-21.929v-33.741h194v33.741c0 12.111-9.818 21.929-21.929 21.929z" fill="#ff5872"/><circle cx="154.946" cy="150.633" fill="#ffd258" r="15.535"/><path d="M209.586 408.299H100.307c-12.627 0-22.864-10.236-22.864-22.864v-21.617h155.006v21.617c0 12.627-10.236 22.864-22.863 22.864z" fill="#ffd258"/><path d="M206.863 306.753c-18.951-37.755-16.816-65.547-3.233-91.549.149-.299-24.607-20.664-36.18-32.135 22.114 63.308 29.233 123.407 23.477 180.749h41.795l.542-37.443c-11.285-1.99-21.151-9.163-26.401-19.622z" fill="#d4d6d4"/><path d="M102.546 408.299h104.8v95.666h-104.8zM91.982 270.066l62.724-21.333 38.795 14.46c-1.064-11.086-.295-20.831 3.468-32.34L154.706 215.1l-62.724 21.333-6.062-2.223c-8.206 8.114-15.921 16.615-22.361 25.431z" fill="#ff5872"/><path d="M291.936 503.357h-72.987c0-33.898 16.339-61.378 36.494-61.378s36.493 27.48 36.493 61.378zm72.987 0h-72.987c0-33.898 16.339-61.378 36.494-61.378s36.493 27.48 36.493 61.378zm-194.442-.092h-31.07v-48.706c0-8.58 6.955-15.535 15.535-15.535 8.574 0 15.535 6.95 15.535 15.535z" fill="#ad4968"/><path d="M254.805 326.954h108.714c33.271-27.393 74.324-30.987 101.132-54.682 1.113-5.905 1.735-11.932 1.735-18.058 0-30.639-20.778-59.648-46.253-85.641-19.756 93.409-125.069 46.137-165.328 158.381z" fill="#ffd258"/><path d="M239.639 326.954c-13.864 0-26.556-7.81-32.776-20.201a163.65 163.65 0 01-2.167-4.504c-.05-.1 2.262.792-49.991-18.684l-62.724 21.333-43.685-16.023c-2.81 9.492-3.646 19.753-.723 33.367L91.98 338.53l62.724-21.333 57.236 21.333c24.938-8.697 18.477-5.805 27.699-11.576z" fill="#ff5872"/><path d="M371.79 124.58c-15.069 107.249-129.233 49.784-168.976 173.462a159.31 159.31 0 004.05 8.712c5.25 10.458 15.733 18.211 27.018 20.201h50.908c45.76-82.821 137.361-48.66 155.114-136.079-19.232-24.506-45.695-46.931-68.114-66.296z" fill="#ffd258"/><path d="M439.903 190.875c-1.438-2.721-17.621-20.726-19.771-22.301-19.756 93.407-125.068 46.136-165.327 158.38h29.984c45.76-82.82 137.361-48.66 155.114-136.079z" fill="#5ab161"/><path d="M395.304 437.742v-55.118H282.141c56.389 4.104 96.236 20.852 113.163 55.118zm-187.958 11.93v-41.373h-84.944c42.328 3.08 72.238 15.651 84.944 41.373zm196.656-122.718v17.72c0 16.498-9.34 30.806-23.015 37.95h23.806c12.111 0 21.929-9.818 21.929-21.929v-33.741z" fill="#db4968"/><path d="M255.295 326.954v17.72c0 16.498 9.34 30.806 23.015 37.95h-23.806c-12.111 0-21.929-9.818-21.929-21.929v-33.741z" fill="#ff7f90"/><path d="M207.767 363.818v21.617c0 12.627-10.236 22.864-22.864 22.864h24.682c12.627 0 22.864-10.237 22.864-22.864v-21.617z" fill="#ffb666"/><path d="M107.4 385.435v-21.617H77.443v21.617c0 12.627 10.236 22.864 22.864 22.864h29.957c-12.627 0-22.864-10.237-22.864-22.864z" fill="#fff0cb"/><path d="M122.402 503.965h-19.856v-95.666h11.925c-2.452 37.641-1.219 71.122 7.931 95.666zm144.084-121.341h-2.346v61.123c15.768 6.487 27.51 30.199 27.781 58.61.355 0-.855-16.219 6.601-34.145-14.485-18.583-24.262-49.469-32.036-85.588z" fill="#ff7f90"/><path d="M437.911 503.357h-72.987c0-33.898 16.339-61.378 36.494-61.378s36.493 27.48 36.493 61.378z" fill="#ad4968"/><path d="M187.49 260.952l6.01 2.24c-1.149-11.968-.002-21.728 3.468-32.34l-17.054-6.356a438.55 438.55 0 017.576 36.456zm17.17 41.233l-12.856-4.792a389.968 389.968 0 01.988 34l19.151 7.138 20.78-7.249c.674-.422.465.374.542-4.907a36.686 36.686 0 01-10.079-3.333c-9.855-4.943-14.384-11.87-18.526-20.857z" fill="#db4968"/><path d="M371.79 124.58c-.713 5.072-1.648 9.773-2.785 14.145 17.849 28.975 38.248 62.301 49.382 95.075 9.949-10.042 17.565-23.467 21.517-42.925-19.232-24.505-45.695-46.93-68.114-66.295z" fill="#ffb666"/><path d="M464.645 272.277c1.114-5.907 1.74-11.935 1.74-18.063 0-30.64-20.775-59.649-46.25-85.642-.482.088-2.287 17.581-14.663 34.23 15.066 31.113 25.087 63.127 19.829 91.798 14.525-6.069 28.173-12.451 39.344-22.323z" fill="#ffb666"/><path d="M405.473 202.802c2.454 5.067 10.25 23.153 12.914 30.998 9.949-10.042 17.565-23.467 21.517-42.925-6-7.646-12.705-15.089-19.771-22.301-3.042 14.38-8.113 25.422-14.66 34.228z" fill="#4b964f"/><path d="M162.406 137.007c7.445 13.569-7.57 28.503-21.087 21.086 2.64 4.812 7.751 8.075 13.627 8.075 16.026 0 21.513-21.452 7.46-29.161z" fill="#ffb666"/><path d="M139.411 150.628c8.569.064 15.629-6.868 15.632-15.525a15.52 15.52 0 00-15.632 15.525z" fill="#fff0cb"/><circle cx="329.722" cy="60.761" fill="#ffd258" r="20.064"/><path d="M339.357 43.162c9.615 17.525-9.777 36.812-27.234 27.234 3.409 6.215 10.011 10.429 17.599 10.429 20.698 0 27.785-27.706 9.635-37.663z" fill="#ffb666"/><path d="M309.659 60.755c11.067.083 20.185-8.871 20.189-20.052a20.045 20.045 0 00-20.189 20.052z" fill="#fff0cb"/><path d="M91.982 270.066l62.724-21.333 38.795 14.46c-1.064-11.086-.295-20.831 3.468-32.34L154.706 215.1l-62.724 21.333-6.062-2.223c-8.206 8.114-15.921 16.615-22.361 25.431z" fill="#ff5872"/><path d="M91.982 236.434l-6.062-2.223c-8.206 8.114-15.921 16.615-22.361 25.431l25.604 9.391c5.616-13.103 12.781-26.127 20.02-38.449zm-44.403 85.812l34.151 12.526c-4.08-11.39-4.335-22.598-2.309-34.479l-31.124-11.416c-3.351 11.271-3.19 21.858-.718 33.369z" fill="#ff7f90"/><path d="M202.814 298.042a159.31 159.31 0 004.05 8.712c6.22 12.391 18.912 20.201 32.776 20.201h32.942c-4.644-5.871-8.724-12.228-11.992-19.141-11.767-24.893-7.718-55.805 1.93-86.796-27.772 15.945-47.487 38.997-59.706 77.024z" fill="#fff0cb"/><path d="M254.805 326.954h17.776c-4.087-5.167-7.736-10.712-10.781-16.68-2.502 5.136-4.842 10.678-6.995 16.68z" fill="#69da61"/><path d="M248.116 168.084c4.259 0 5.49-2.307 12.749-9.006a8 8 0 00-10.851-11.759 533.837 533.837 0 00-7.437 6.99c-5.196 4.985-1.628 13.775 5.539 13.775z"/><path d="M380.416 121.458c-15.664-13.515-30.627-26.429-38.759-36.61 22.474-10.9 19.88-43.687-3.935-50.959V8a8 8 0 00-16 0v25.89c-23.838 7.279-26.421 40.16-3.839 51.004-10.026 12.744-31.425 30.271-50.19 46.63a8 8 0 00-.772 11.288 7.998 7.998 0 0011.287.772c21.032-18.336 40.548-34.232 51.583-47.944 7.757 9.517 19.462 20 33.406 32.084-15.482 89.063-113.979 47.745-159.8 146.725-1.56-6.872-2.338-13.594-2.338-20.234 0-21.574 11.835-45.006 36.181-71.636a8 8 0 00-11.808-10.796c-15.611 17.075-26.602 33.24-33.137 48.791l-34.795-12.97c-3.647-1.361-2.021-1.217-45.817 13.679 17.525-15.408 33.718-28.425 43.325-39.773 3.853 4.484 9.069 9.629 16.121 15.972a8 8 0 0011.298-.599 7.999 7.999 0 00-.599-11.298c-5.023-4.517-10.706-9.831-14.866-14.726 17.094-10.194 14.626-35.6-4.016-42.359v-19.527a8 8 0 00-16 0V128.5c-18.674 6.771-21.117 32.259-3.928 42.41-24.669 29.33-105.266 77.057-105.266 134.789 0 10.575 2.109 21.599 6.27 32.764 4.649 12.475 13.926 22.39 25.421 28.069v18.904c0 15.049 10.829 27.609 25.103 30.316v88.214a8 8 0 008 8l337.95-.608a8 8 0 008-8c0-33.986-16.808-70.043-45.192-69.359V408.3a8 8 0 00-16 0v30.574c-8.923 5.459-16.221 15.118-21.095 27.364-9.664-22.502-27.343-32.258-37.78-32.258-9.152 0-17.261 4.135-23.713 10.372a8 8 0 0011.121 11.503c4.032-3.898 8.269-5.929 12.592-5.875 11.924.15 26.443 25.254 28.137 45.378h-56.921c-1.839-26.047-12.57-47.304-27.508-56.481.051-.101.001 1.798.001-48.251h132.653c16.503 0 29.929-13.426 29.929-29.929v-5.571a8 8 0 00-16 0v5.571c0 7.681-6.249 13.929-13.929 13.929h-150.14c-7.681 0-13.929-6.249-13.929-13.929v-25.741h179.083c17.007 0 32.306-9.431 39.926-24.612 40.508-80.707-9.743-128.858-79.315-188.886zm-50.694-72.761c6.31 0 11.443 5.133 11.443 11.443s-5.133 11.443-11.443 11.443-11.443-5.133-11.443-11.443 5.134-11.443 11.443-11.443zm-174.776 94.401c4.155 0 7.535 3.38 7.535 7.535s-3.38 7.535-7.535 7.535-7.535-3.38-7.535-7.535 3.381-7.535 7.535-7.535zm302.319 124.955c-24.903 20.369-63.65 25.009-96.564 50.901h-61.432c42.604-59.613 118.647-41.686 143.825-109.952 9.373 14.649 15.292 29.807 15.292 45.212.404 5.743.185 9.622-1.121 13.839zm-390.701 1.211c24.373 8.94 23.449 8.802 25.418 8.802 1.892 0-3.131 1.515 62.601-20.841l31.577 11.77c.927 6.386 2.437 12.876 4.539 19.45-36.532-13.617-34.95-13.683-38.57-12.452l-60.047 20.423-33.594-12.322c2.109-4.999 4.85-9.948 8.076-14.83zm357.455-84.862c.437.246 7.121 8.152 7.252 8.486-17.931 75.499-103.906 46.922-151.112 126.066h-13.566c39.189-89.023 130.039-56.865 157.426-134.552zM54.611 316.304c-1.101-7.046-1.018-12.342-.448-16.75.013-.1.227.078 35.065 12.856 3.787 1.389.891 1.573 65.356-20.353 44.429 16.56 44.199 16.415 44.268 16.515 4.016 8.237 9.16 14.815 17.57 19.919-.098.1.772-.264-4.389 1.536-58.533-21.817-56.102-21.694-59.902-20.403l-60.047 20.423zm322.401-176.641c.1 0 20.237 17.356 34.333 31.38-20.241 80.223-119.934 40.636-162.078 147.912h-9.628c-10.918 0-20.737-6.05-25.626-15.79a156.623 156.623 0 01-2.639-5.537c37.275-109.933 142.052-64.222 165.638-157.965zm-222.429 83.929c32.972 12.29 32.646 12.091 32.696 12.191-2.544 10.721-1.906 15.494-2.171 15.744-30.112-11.223-29.371-11.593-32.978-10.367l-60.047 20.422-15.433-5.66c.049-.269 5.739-6.751 11.297-12.428.1-.021-.057-.039 1.281.451 3.784 1.389.89 1.572 65.355-20.353zm-69.14 161.843v-14.05c4.667.61 3.769.434 44.821.434a8 8 0 000-16H91.982c-13.712 0-26.227-8.129-31.938-20.479l29.183 10.704c3.787 1.389.891 1.573 65.356-20.353l54.565 20.338c3.567 1.332 5.414.063 15.574-3.481v13.272h-69.776a8 8 0 000 16h69.503v13.617c0 8.196-6.668 14.863-14.864 14.863H100.307c-8.196-.002-14.864-6.669-14.864-14.865zm93.038 110.53v-41.406c0-12.978-10.558-23.535-23.535-23.535-12.978 0-23.535 10.558-23.535 23.535v18.109a8 8 0 0016 0v-18.109c0-4.155 3.38-7.535 7.535-7.535s7.535 3.38 7.535 7.535v41.406h-51.935v-79.667h88.8v79.667zm219.077-44.462c2.087-.983 4.245-1.524 6.445-1.524 13.735 0 25.944 20.424 28.142 45.378-60.285 0-56.058-.121-56.313.22 1.853-23.28 11.788-39.38 21.726-44.074zm-113.973 43.854H227.3c2.198-24.955 14.407-45.378 28.142-45.378 13.736 0 25.945 20.423 28.143 45.378zM256.14 390.625v43.381c-20.568-.474-34.678 18.904-40.794 38.789v-57.043c13.772-2.612 24.337-14.395 25.063-28.738 5.451 2.96 10.144 3.611 15.731 3.611zm189.291-87.46c-4.888 9.739-14.708 15.79-25.626 15.79h-29.708c20.18-10.797 41.764-17.088 60.556-27.384a147.836 147.836 0 01-5.222 11.594z"/></svg>