<svg xmlns="http://www.w3.org/2000/svg" viewBox="0 0 455.73 455.73"><path d="M0 0v455.73h455.73V0H0zm306.8 384.3a84.04 84.04 0 01-42.58-11.53c-9.1 1.77-18.5 2.7-28.1 2.7-80.83 0-146.35-65.51-146.35-146.33 0-9.62.94-19.01 2.71-28.11A84.47 84.47 0 01208 85.5c9.1-1.77 18.5-2.71 28.11-2.71 80.82 0 146.34 65.52 146.34 146.34 0 9.61-.94 19-2.7 28.1A84.47 84.47 0 01306.8 384.3z"/><path d="M247.4 206.63c-54-10.5-57.5-27-44.5-38.5s51.63-16.66 62.5 3.5c10.5 19.5 18 27.5 32.5 24 13.83-3.33 15.83-22.5 10-34-4.71-9.27-26-33-68-33s-86 15.5-86 54 40 55.5 78.5 61 47.5 22 42.5 34-21.5 23.5-46.5 21-36.54-23.43-40-34c-3.34-10.16-15-11.5-20.5-11s-23 7.5-15 32 34 44 86 44 82.5-32 82.5-62.5-20-50-74-60.5z"/></svg>