<svg id="Capa_1" height="512" viewBox="0 0 512 512" width="512" xmlns="http://www.w3.org/2000/svg"><path d="M87.411 249.575V451.48h36.006c0-19.09 15.476-34.566 34.566-34.566h196.034c19.091 0 34.566 15.476 34.566 34.566h36.005V249.575z" fill="#4e5660"/><path d="M156.051 7.5C74.008 7.5 7.5 74.008 7.5 156.051V451.48c0 29.282 23.738 53.021 53.02 53.021h9.876c29.282 0 53.021-23.738 53.021-53.021V296.695h265.167V451.48c0 29.282 23.738 53.021 53.021 53.021h9.875c29.282 0 53.021-23.738 53.021-53.021V156.051C504.5 74.008 437.992 7.5 355.949 7.5z" fill="#c6c6c6"/><path d="M156.051 7.5C74.008 7.5 7.5 74.008 7.5 156.051V451.48c0 29.282 23.738 53.021 53.02 53.021h9.876c29.282 0 53.021-23.738 53.021-53.021V296.695h265.167V451.48c0 29.282 23.738 53.021 53.021 53.021h9.875c29.282 0 53.021-23.738 53.021-53.021V156.051C504.5 74.008 437.992 7.5 355.949 7.5z" fill="#c6c6c6"/><path d="M449.112 210.07a53.582 53.582 0 004.818-22.193 53.479 53.479 0 00-7.344-27.084 53.7 53.7 0 00.469-7.091c0-19.119-10.285-36.522-26.175-46.03-5.41-23.864-26.791-41.734-52.268-41.734a53.53 53.53 0 00-15.647 2.341c-9.918-10.073-23.67-16.139-38.252-16.139-8.13 0-15.967 1.801-23.052 5.176-9.587-8.557-22.151-13.525-35.661-13.525-13.511 0-26.075 4.967-35.662 13.524-7.085-3.376-14.923-5.176-23.052-5.176-14.581 0-28.334 6.066-38.252 16.139a53.534 53.534 0 00-24.844-1.549c-9.68 1.686-18.314-6.487-17.405-16.271 1.309-14.09 3.987-26.768 7.499-39.543C57.508 25.465 7.5 84.913 7.5 156.051V451.48c0 29.282 23.738 53.021 53.021 53.021h9.875c29.282 0 53.021-23.738 53.021-53.021V296.695h265.167v19.414h8.328c26.008 0 47.092-21.084 47.092-47.092v-5.664c6.448-9.017 9.927-19.792 9.927-31.089a53.565 53.565 0 00-4.819-22.194z" fill="#9aa3b1"/><path d="M426.319 210.07c5.107-5.972 8.198-13.72 8.198-22.193a34.045 34.045 0 00-8.794-22.882 34.105 34.105 0 001.919-11.293c0-15.653-10.528-28.838-24.886-32.887.016-.428.032-.856.032-1.288 0-18.875-15.301-34.175-34.175-34.175a34.024 34.024 0 00-22.024 8.052c-4.946-12.782-17.348-21.85-31.875-21.85-10.961 0-20.709 5.166-26.963 13.189-5.026-12.617-17.343-21.537-31.751-21.537s-26.725 8.921-31.751 21.537c-6.254-8.023-16.002-13.189-26.962-13.189-14.527 0-26.929 9.069-31.875 21.85a34.03 34.03 0 00-22.025-8.052c-18.874 0-34.175 15.301-34.175 34.175 0 .432.017.86.033 1.288-14.358 4.048-24.886 17.234-24.886 32.887 0 3.959.681 7.757 1.919 11.293a34.045 34.045 0 00-8.794 22.882c0 8.474 3.091 16.221 8.198 22.193-5.107 5.972-8.198 13.719-8.198 22.193 0 9.395 3.793 17.902 9.928 24.08v12.674c0 15.286 12.392 27.678 27.678 27.678h281.822c15.286 0 27.678-12.392 27.678-27.678v-12.674c6.135-6.178 9.928-14.685 9.928-24.08-.001-8.473-3.092-16.221-8.199-22.193z" fill="#c6c6c6"/><path d="M254.193 182.748l-15.262 5.427c-3.57 1.27-7.302-1.442-7.198-5.23l.445-16.192a5.39 5.39 0 00-1.117-3.437l-9.878-12.838c-2.311-3.003-.885-7.39 2.749-8.462l15.537-4.58a5.398 5.398 0 002.924-2.124l9.157-13.362c2.142-3.126 6.755-3.126 8.897 0l9.157 13.362a5.394 5.394 0 002.924 2.124l15.538 4.58c3.635 1.071 5.06 5.458 2.749 8.462l-9.878 12.838a5.396 5.396 0 00-1.117 3.437l.445 16.192c.104 3.788-3.628 6.499-7.198 5.23l-15.262-5.427a5.395 5.395 0 00-3.612 0z" fill="#e8899e"/><ellipse cx="173.739" cy="257.892" fill="#fff" rx="30.353" ry="24.171"/><ellipse cx="338.261" cy="257.892" fill="#fff" rx="30.353" ry="24.171"/><path d="M55.133 439.135a7.5 7.5 0 01-5.303-12.804l6.838-6.838a7.5 7.5 0 0110.606 0 7.5 7.5 0 010 10.606l-6.838 6.838a7.469 7.469 0 01-5.303 2.198zm25.769-97.392a7.479 7.479 0 01-5.303-2.196l-6.838-6.838a7.5 7.5 0 0110.607-10.608l6.838 6.838a7.5 7.5 0 01-5.304 12.804zm-29.333-133.55a7.474 7.474 0 01-5.303-2.197l-6.838-6.838a7.5 7.5 0 010-10.606 7.5 7.5 0 0110.606 0l6.838 6.838a7.5 7.5 0 01-5.303 12.803zM97.003 87.979a7.474 7.474 0 01-5.303-2.197 7.5 7.5 0 010-10.606l6.838-6.838a7.5 7.5 0 0110.606 0 7.5 7.5 0 010 10.606l-6.838 6.838a7.472 7.472 0 01-5.303 2.197z" fill="#c6c6c6"/><path d="M247.701 57.121a7.474 7.474 0 01-5.303-2.197l-6.838-6.838a7.5 7.5 0 010-10.606 7.5 7.5 0 0110.606 0l6.838 6.838a7.5 7.5 0 010 10.606 7.472 7.472 0 01-5.303 2.197zm93.702 93.702a7.477 7.477 0 01-5.303-2.196l-6.839-6.838a7.5 7.5 0 0110.605-10.608l6.839 6.838a7.5 7.5 0 01-5.302 12.804zM149.29 171.449a7.472 7.472 0 01-5.303-2.197 7.5 7.5 0 010-10.606l6.838-6.838a7.5 7.5 0 0110.607 10.606l-6.838 6.838a7.48 7.48 0 01-5.304 2.197zm299.294 267.686a7.5 7.5 0 01-5.304-12.803l6.838-6.838a7.5 7.5 0 0110.607 10.606l-6.838 6.838a7.474 7.474 0 01-5.303 2.197zm-9.852-78.082a7.476 7.476 0 01-5.304-2.197l-6.838-6.838a7.501 7.501 0 0110.607-10.607l6.838 6.838a7.5 7.5 0 01-.001 10.607 7.474 7.474 0 01-5.302 2.197zm21.708-117.078a7.5 7.5 0 01-5.304-12.803l6.838-6.838a7.5 7.5 0 0110.607 0 7.5 7.5 0 01.001 10.607l-6.838 6.838a7.489 7.489 0 01-5.304 2.196zM411.638 87.979a7.5 7.5 0 01-5.303-12.804l6.839-6.838a7.5 7.5 0 1110.606 10.607l-6.839 6.838a7.474 7.474 0 01-5.303 2.197z" fill="#9aa3b1"/><path d="M277.95 228.6a7.5 7.5 0 00-10.581.728c-2.87 3.293-7.014 5.183-11.369 5.183s-8.499-1.889-11.37-5.183a7.501 7.501 0 00-10.582-.727 7.5 7.5 0 00-.727 10.581 30.078 30.078 0 0022.678 10.329 30.075 30.075 0 0022.678-10.329 7.5 7.5 0 00-.727-10.582zm-86.521-13.039a7.5 7.5 0 00-7.5 7.5v10.718a7.5 7.5 0 0015 0v-10.718a7.5 7.5 0 00-7.5-7.5zM355.949 0H156.051c-24.827 0-48.563 5.66-70.552 16.824a7.5 7.5 0 106.79 13.375C112.154 20.114 133.606 15 156.051 15h199.898C433.725 15 497 78.275 497 156.051v279.257c0 4.142 3.357 7.5 7.5 7.5s7.5-3.358 7.5-7.5V156.051C512 70.004 441.996 0 355.949 0zm-35.378 215.561a7.5 7.5 0 00-7.5 7.5v10.718c0 4.142 3.357 7.5 7.5 7.5s7.5-3.358 7.5-7.5v-10.718a7.5 7.5 0 00-7.5-7.5zm183.055 248.158a7.502 7.502 0 00-9.71 4.269C487.055 485.612 470.397 497 451.479 497h-9.875c-25.1 0-45.52-20.42-45.52-45.521V304.195h.827c19.397 0 35.178-15.781 35.178-35.178v-9.754c6.425-7.53 9.928-17.001 9.928-26.999a41.674 41.674 0 00-6.409-22.193 41.677 41.677 0 006.409-22.193c0-8.879-2.815-17.45-8-24.551a41.56 41.56 0 001.125-9.624c0-16.676-10.061-31.673-25.048-38.211-2.036-21.093-19.862-37.639-41.48-37.639a41.693 41.693 0 00-19.268 4.728c-7.641-11.348-20.647-18.526-34.632-18.526-9.273 0-18.06 3.014-25.227 8.489-7.723-10.47-19.998-16.837-33.487-16.837-13.49 0-25.765 6.367-33.488 16.837-7.166-5.475-15.953-8.489-25.226-8.489-13.985 0-26.992 7.178-34.632 18.526a41.706 41.706 0 00-19.268-4.728c-21.618 0-39.444 16.546-41.481 37.639-14.987 6.538-25.047 21.535-25.047 38.211 0 3.255.377 6.477 1.125 9.624a41.58 41.58 0 00-8 24.551 41.677 41.677 0 006.409 22.193 41.677 41.677 0 00-6.409 22.193c0 9.997 3.503 19.468 9.928 26.999v9.754c0 19.397 15.781 35.178 35.178 35.178h.828V451.48c0 25.1-20.42 45.521-45.52 45.521H60.52C35.42 497 15 476.58 15 451.479V156.051c0-41.117 17.89-80.099 49.082-106.948a7.5 7.5 0 00.792-10.577 7.499 7.499 0 00-10.577-.792C19.79 67.437 0 110.561 0 156.051V451.48C0 484.851 27.149 512 60.52 512h9.876c33.371 0 60.52-27.149 60.52-60.521 0-14.924 12.142-27.066 27.066-27.066h196.034c14.925 0 27.066 12.142 27.066 27.066l.002.039c.021 33.353 27.161 60.482 60.52 60.482h9.875c25.148 0 47.293-15.14 56.415-38.571a7.5 7.5 0 00-4.268-9.71zm-122.542-44.406c-7.322-6.171-16.765-9.899-27.067-9.899H157.983c-10.302 0-19.745 3.728-27.066 9.899V304.195h250.168v115.118zM115.089 289.195c-11.126 0-20.178-9.052-20.178-20.178v-12.673c0-1.98-.783-3.88-2.178-5.285-4.997-5.032-7.749-11.707-7.749-18.794a26.67 26.67 0 016.397-17.319 7.5 7.5 0 000-9.749 26.668 26.668 0 01-6.398-17.319c0-6.61 2.438-12.952 6.863-17.858a7.5 7.5 0 001.51-7.501 26.621 26.621 0 01-1.498-8.816c0-11.889 7.986-22.444 19.421-25.668 3.331-.939 5.583-4.108 5.457-7.566-.011-.313-.024-.625-.024-.941 0-14.709 11.966-26.675 26.675-26.675a26.682 26.682 0 0117.187 6.283 7.5 7.5 0 0011.832-3.024c3.948-10.203 13.947-17.057 24.88-17.057 8.273 0 15.944 3.754 21.047 10.3a7.5 7.5 0 0012.883-1.835c4.069-10.213 13.797-16.813 24.784-16.813 10.986 0 20.715 6.6 24.783 16.813a7.501 7.501 0 0012.883 1.835c5.103-6.546 12.774-10.3 21.048-10.3 10.934 0 20.933 6.854 24.881 17.057a7.5 7.5 0 0011.832 3.025 26.677 26.677 0 0117.187-6.283c14.709 0 26.675 11.966 26.675 26.675 0 .315-.013.628-.027 1.016a7.501 7.501 0 005.46 7.492c11.435 3.224 19.421 13.779 19.421 25.668 0 3.011-.504 5.977-1.498 8.815a7.5 7.5 0 001.51 7.502 26.616 26.616 0 016.863 17.858 26.668 26.668 0 01-6.398 17.319 7.5 7.5 0 00.001 9.749 26.668 26.668 0 016.397 17.318c0 7.088-2.752 13.763-7.749 18.794a7.498 7.498 0 00-2.179 5.285v12.673c0 11.126-9.052 20.178-20.178 20.178H115.089zm175.098-154.372l-14.818-4.368-8.733-12.743a12.887 12.887 0 00-10.635-5.605 12.887 12.887 0 00-10.635 5.604l-8.734 12.744-14.818 4.368a12.89 12.89 0 00-6.573 20.229l9.421 12.244-.425 15.443a12.887 12.887 0 005.311 10.786 12.886 12.886 0 0011.897 1.717L256 190.066l14.557 5.176a12.89 12.89 0 0017.207-12.502l-.425-15.442 9.422-12.245a12.89 12.89 0 002.043-11.846 12.887 12.887 0 00-8.617-8.384zm-15.191 23.918a12.92 12.92 0 00-2.672 8.219l.36 13.119-12.362-4.396a12.926 12.926 0 00-8.644-.001l-12.364 4.396.361-13.119a12.936 12.936 0 00-2.669-8.217l-8.003-10.402 12.591-3.711a12.936 12.936 0 006.987-5.078L256 128.726l7.419 10.824a12.938 12.938 0 006.991 5.08l12.588 3.711z"/></svg>