<svg height="512pt" viewBox="-73 0 512 512" width="512pt" xmlns="http://www.w3.org/2000/svg"><path d="M305.305 140.297c-.203 0-.407.012-.61.016.399-1.833.61-3.739.61-5.692 0-14.84-12.032-26.871-26.871-26.871-14.645 0-26.543 11.71-26.86 26.277a37.324 37.324 0 00-19.433-5.422c-20.707 0-37.493 16.786-37.493 37.489a37.29 37.29 0 004.278 17.383h135.613a31.438 31.438 0 002.254-11.696c0-17.386-14.098-31.484-31.488-31.484zm0 0" fill="#c2f4ff"/><path d="M305.305 140.297c-.203 0-.407.012-.61.016.399-1.833.61-3.739.61-5.692 0-14.84-12.032-26.871-26.871-26.871a26.72 26.72 0 00-10.875 2.3c9.421 4.177 16 13.602 16 24.571 0 1.953-.215 3.86-.61 5.691.203-.003.406-.015.61-.015 17.386 0 31.484 14.098 31.484 31.484a31.36 31.36 0 01-2.254 11.696h21.75a31.438 31.438 0 002.254-11.696c0-17.386-14.098-31.484-31.488-31.484zm0 0" fill="#87d1ea"/><path d="M15.375 198.094c5.648-4.887 14.02-6.172 21.07-3.7 6.989 2.45 13.438 8.708 15.082 16.043 5.598-10.582 16.055-19.144 28.668-18.19 12.215.925 23.153 12.421 21.957 24.608-.71 7.254-5.12 13.579-9.812 19.149-4.695 5.574-9.8 10.969-12.813 17.601-3.765 8.29-3.222 16.25.641 23.454 1.414 2.628-.86 5.703-3.797 5.18C45.332 276.686 7.395 249.28 7.5 217.034c.023-7.05 2.543-14.328 7.875-18.941zm0 0" fill="#f492ca"/><path d="M80.195 192.246c-4.105-.309-7.976.402-11.53 1.848 6.804 3.867 11.917 13.094 11.194 22.761-.543 7.25-3.918 13.575-7.504 19.149-3.59 5.574-7.492 10.965-9.793 17.598-2.878 8.293-2.464 16.253.493 23.457a4.41 4.41 0 01.32 1.707c4.383 1.53 8.754 2.71 12.996 3.468 2.938.528 5.211-2.546 3.8-5.175-3.866-7.204-4.41-15.164-.644-23.457 3.016-6.633 8.118-12.024 12.813-17.598 4.691-5.574 9.101-11.899 9.812-19.149 1.192-12.187-9.742-23.683-21.957-24.609zm0 0" fill="#db6595"/><path d="M315.043 504.5S198.57 323.023 198.57 76.191h-32.144c0 246.832-116.469 428.309-116.469 428.309h61.383a72.666 72.666 0 01-.723-10.121c0-39.7 32.184-71.883 71.883-71.883s71.883 32.184 71.883 71.883a72.65 72.65 0 01-.723 10.121zM152.27 350.582a945.032 945.032 0 0015.828-53.953h28.8a944.933 944.933 0 0015.832 53.953zm0 0" fill="#f27755"/><path d="M166.426 76.191c0 7.563-.11 15.063-.324 22.5h32.793a779.197 779.197 0 01-.325-22.5h-32.144zm98.184 326.438a909.121 909.121 0 01-8.86-22.5H109.246a909.402 909.402 0 01-8.855 22.5zm-44.47-140.098h-75.285a875.877 875.877 0 01-5.476 22.5h86.238a892.468 892.468 0 01-5.476-22.5zm0 0" fill="#d14a3f"/><path d="M235.684 237.234H129.313c-4.856 0-8.797 3.942-8.797 8.801v7.7a8.796 8.796 0 008.796 8.796h106.372c4.859 0 8.8-3.937 8.8-8.797v-7.699a8.8 8.8 0 00-8.8-8.8zm0 0" fill="#fed89b"/><path d="M235.684 237.234h-22.399c4.856 0 8.797 3.942 8.797 8.801v7.7a8.796 8.796 0 01-8.797 8.796h22.399c4.859 0 8.8-3.937 8.8-8.797v-7.699a8.8 8.8 0 00-8.8-8.8zm0 0" fill="#d69e5b"/><path d="M155.645 52.387l-1.504 19.058a4.4 4.4 0 004.386 4.746h47.946a4.397 4.397 0 004.382-4.746l-1.503-19.058a4.399 4.399 0 00-4.387-4.051H160.03a4.402 4.402 0 00-4.386 4.05zm0 0" fill="#fed89b"/><path d="M209.352 52.387a4.399 4.399 0 00-4.387-4.051h-17.543a4.399 4.399 0 014.387 4.05l1.504 19.06a4.4 4.4 0 01-4.387 4.745h17.547a4.402 4.402 0 004.386-4.746zm0 0" fill="#d69e5b"/><path d="M285.07 360.418v10.91c0 4.86-3.937 8.8-8.797 8.8H88.727a8.801 8.801 0 01-8.801-8.8v-10.91c0-4.86 3.941-8.797 8.8-8.797h187.547a8.796 8.796 0 018.797 8.797zm0 0" fill="#fed89b"/><path d="M276.273 351.621h-23.5a8.796 8.796 0 018.797 8.797v10.91c0 4.86-3.937 8.8-8.797 8.8h23.5c4.86 0 8.797-3.94 8.797-8.8v-10.91a8.796 8.796 0 00-8.797-8.797zm0 0" fill="#d69e5b"/><path d="M357.5 175.98h-13.434c.149-1.386.227-2.789.227-4.199 0-18.976-13.613-34.773-31.504-38.261-.582-18.446-15.773-33.274-34.355-33.274-14.848 0-27.688 9.668-32.422 23.04a45.464 45.464 0 00-18.41-1.958 7.498 7.498 0 00-6.715 8.211 7.502 7.502 0 008.21 6.715c6.368-.645 12.915.738 18.583 4.184a7.502 7.502 0 0011.39-6.247c.23-10.445 8.914-18.945 19.364-18.945 10.316 0 18.777 8.11 19.343 18.29a39.064 39.064 0 00-17.129 8.05c-3.207 2.617-3.68 7.344-1.058 10.55a7.47 7.47 0 005.808 2.755 7.448 7.448 0 004.743-1.692c15.504-12.668 39.152-1.707 39.152 18.582 0 1.418-.125 2.82-.367 4.196h-63.57c-.07 0-.141.003-.208.003h-52.765c-3.875-30.945-5.98-61.804-6.278-92.289h.368c3.308 0 6.496-1.394 8.738-3.824a11.926 11.926 0 003.125-9.012l-1.504-19.058c-.488-6.145-5.7-10.961-11.863-10.961H190V7.5a7.5 7.5 0 00-7.5-7.5 7.497 7.497 0 00-7.5 7.5v33.336h-14.969c-6.164 0-11.375 4.812-11.86 10.96l-1.507 19.06a11.926 11.926 0 003.125 9.011 11.934 11.934 0 008.738 3.824h.364c-.465 48.121-5.438 97.184-14.79 146.043h-14.788c-8.985 0-16.297 7.313-16.297 16.301v7.7c0 8.984 7.312 16.296 16.296 16.296h6.075a898.241 898.241 0 01-21.282 74.09H88.727c-8.989 0-16.301 7.313-16.301 16.3v10.907c0 8.988 7.312 16.3 16.3 16.3h9.59a866.304 866.304 0 01-11.84 28.72c-1.644 3.8.098 8.218 3.899 9.863a7.495 7.495 0 009.863-3.898 891.759 891.759 0 0014.168-34.684h136.176C271.199 441.223 291.5 479.12 301.797 497h-39.965c1.555-44.46-34.316-82-79.332-82s-80.89 37.535-79.336 82H63.188c5.609-9.75 14.203-25.488 24.25-46.55a7.5 7.5 0 10-13.54-6.458C60.852 471.344 50.145 489.758 45.77 497H22.684c-4.141 0-7.5 3.355-7.5 7.5s3.359 7.5 7.5 7.5H135.91c4.14 0 7.5-3.355 7.5-7.5s-3.36-7.5-7.5-7.5h-17.734c-1.54-36.129 27.504-67 64.324-67 36.863 0 65.86 30.91 64.32 67h-17.73c-4.145 0-7.5 3.355-7.5 7.5s3.355 7.5 7.5 7.5h113.226c4.141 0 7.5-3.355 7.5-7.5s-3.359-7.5-7.5-7.5h-23.09c-6.886-11.406-29.472-50.547-52.55-109.371h9.597c8.985 0 16.297-7.313 16.297-16.3v-10.911c0-8.984-7.312-16.297-16.297-16.297h-25.382a900.238 900.238 0 01-12.028-38.883 7.5 7.5 0 10-14.43 4.106 913.698 913.698 0 0010.657 34.777h-16.567a939.907 939.907 0 01-14.367-49.39 7.499 7.499 0 00-7.258-5.602h-28.8c-3.41 0-6.391 2.3-7.254 5.601a938.816 938.816 0 01-14.367 49.391h-16.57a913.461 913.461 0 0020.906-74.09h63.378c.825 3.473 1.664 6.93 2.512 10.328a7.501 7.501 0 009.086 5.47 7.502 7.502 0 005.469-9.09 996.802 996.802 0 01-1.64-6.708h6.066c8.988 0 16.3-7.312 16.3-16.3v-7.7c0-8.984-7.312-16.297-16.3-16.297h-14.79a849.201 849.201 0 01-6.492-38.754H357.5a7.5 7.5 0 100-15zm-79.93 184.438v10.91c0 2.024 10.61 1.297-188.843 1.3a1.3 1.3 0 01-1.301-1.3v-10.91a1.3 1.3 0 011.3-1.297h187.548c.715 0 1.297.582 1.297 1.297zm-103.695-56.29h17.25a963.114 963.114 0 0011.656 39.993h-40.566a957.199 957.199 0 0011.66-39.992zM162.898 55.837h39.204l1.015 12.855h-41.234zm74.086 190.2v7.694c0 .72-.586 1.301-1.3 1.301H220.32a5.275 5.275 0 00-.351 0h-90.656a1.3 1.3 0 01-1.297-1.3v-7.696a1.3 1.3 0 011.297-1.3h20.69c.095.003.188.007.286.007.094 0 .188-.004.285-.008h63.82c.211.008.422.008.633 0h20.657c.714 0 1.3.582 1.3 1.301zm-77.613-16.302c9.184-48.859 14.063-97.906 14.524-146.043h17.21c.317 33.145 2.727 66.715 7.196 100.356.02.289.058.57.113.848a859.77 859.77 0 007.215 44.84zm0 0"/><path d="M25.344 265.313c14.027 12.164 32.61 21.25 49.707 24.304 4.32.774 8.469-1.004 10.933-4.402 2.508-3.457 2.813-7.942.793-11.703-2.937-5.473-3.074-10.969-.422-16.805 5.614-12.363 21.516-21.305 23.262-39.121.735-7.5-1.754-15.07-7.004-21.32-5.613-6.68-13.578-10.871-21.851-11.496-10.469-.782-20.64 3.539-28.399 11.699-3.574-4.067-8.254-7.336-13.437-9.153-9.75-3.418-20.918-1.414-28.457 5.106C3.848 198.148.03 207.109 0 217.012c-.055 16.93 8.945 34.086 25.344 48.3zm-5.063-61.547c3.489-3.02 8.989-3.938 13.684-2.293 4.95 1.734 9.258 6.191 10.246 10.605a7.496 7.496 0 006.32 5.793 7.493 7.493 0 007.625-3.926c3.899-7.363 11.574-14.965 21.477-14.218 4.207.316 8.508 2.632 11.496 6.187 2.633 3.137 3.898 6.762 3.558 10.211-1.109 11.332-15.507 20.113-21.992 34.375-3.43 7.555-4.125 15.281-2.101 22.715-27.606-7.766-55.672-31.617-55.594-56.156.016-5.477 1.992-10.446 5.281-13.293zm0 0"/></svg>