<svg version="1.1" id="Capa_1" xmlns="http://www.w3.org/2000/svg" x="0" y="0" viewBox="0 0 512.001 512.001" xml:space="preserve"><path d="M361.042 26.766c84.804 13.997 147.378 76.57 143.261 118.561-4.117 41.991-64.806 3.88-100.741 26.64l-42.52-145.201z" fill="#ce9964"/><path d="M403.562 171.967l-8.967-30.62c36.051-21.413 95.63 15.573 99.708-26.019.201-2.052.238-4.154.126-6.297 7.395 12.685 10.961 25.208 9.874 36.296-4.117 41.99-64.808 3.88-100.741 26.64z" fill="#bc8c5c"/><path d="M200.933 51.661C258.031-5.438 341.281.418 361.041 26.766c17.388 23.183 41.788 85.255 42.909 137.971.321 15.1-6.406 29.492-18.108 39.041-11.949 9.749-30.163 20.201-54.76 22.277L200.933 51.661z" fill="#dda46c"/><path d="M26.766 361.041c13.997 84.804 76.57 147.378 118.561 143.261s3.88-64.806 26.64-100.741l-145.201-42.52z" fill="#ce9964"/><path d="M171.966 403.562l-30.62-8.967c-21.414 36.051 15.573 95.63-26.019 99.708a42.064 42.064 0 01-6.297.126c12.685 7.395 25.208 10.961 36.296 9.874 41.991-4.117 3.881-64.807 26.64-100.741z" fill="#bc8c5c"/><path d="M51.661 200.933C-5.438 258.031.418 341.281 26.766 361.041c23.183 17.388 85.255 41.788 137.971 42.909 15.1.321 29.492-6.406 39.041-18.109 9.749-11.949 20.201-30.163 22.277-54.76L51.661 200.933z" fill="#dda46c"/><path d="M51.661 200.933a154.453 154.453 0 00-3.195 3.303L204.884 320.97c-2.475 29.303-14.926 51.003-26.54 65.238a58.789 58.789 0 01-23.379 17.281c3.285.236 6.547.393 9.773.462 15.1.321 29.492-6.406 39.041-18.109 9.749-11.949 20.201-30.163 22.277-54.76L51.661 200.933zM200.933 51.662a154.453 154.453 0 013.303-3.195L320.97 204.886c29.303-2.475 51.003-14.926 65.238-26.54a58.789 58.789 0 0017.281-23.379c.236 3.285.393 6.547.462 9.773.321 15.1-6.406 29.492-18.109 39.041-11.949 9.749-30.163 20.201-54.76 22.277L200.933 51.662z" fill="#ce9964"/><path d="M324.815 250.713c27.993-27.993-37.874-108.68-71.63-158.904s-82.334-62.574-153.141 8.234-58.457 119.384-8.234 153.141 130.911 99.624 158.904 71.63l74.101-74.101z" fill="#f6b778"/><path d="M327.633 212.251c-1.558 5.221-4.203 9.848-8.117 13.762L216.539 328.99c14.316 4.142 26.32 3.679 34.175-4.176l74.1-74.1c8.627-8.626 8.332-22.261 2.819-38.463z" fill="#dda46c"/><path d="M113.408 192.752a7.5 7.5 0 00-10.606 0 7.5 7.5 0 000 10.606l8.14 8.14c2.781 2.781 7.688 2.919 10.606 0a7.5 7.5 0 000-10.606l-8.14-8.14zm89.951-89.951a7.5 7.5 0 00-10.606 0 7.5 7.5 0 000 10.606l8.14 8.14c2.792 2.792 7.71 2.896 10.606.001a7.5 7.5 0 000-10.607l-8.14-8.14zm-29.022 37.278a7.499 7.499 0 00-6.98 7.985c.337 5.028-1.64 10.083-5.425 13.868s-8.834 5.757-13.868 5.425a7.495 7.495 0 00-7.985 6.98 7.499 7.499 0 006.98 7.985c9.371.629 18.8-3.106 25.478-9.784 6.846-6.846 10.413-16.133 9.785-25.478a7.502 7.502 0 00-7.985-6.981z"/><path d="M470.982 69.929c-28.74-25.291-66.26-43.005-105.923-50.068C355.286 8.994 337.258 1.933 314.916.345c-41.59-2.953-84.842 13.19-116.485 43.307a66.351 66.351 0 00-2.491-.292c-30.126-2.928-64.165 14.365-101.189 51.39S40.436 165.82 43.36 195.939c.081.834.181 1.664.292 2.492C13.535 230.074-2.61 273.326.345 314.917c1.588 22.34 8.648 40.369 19.516 50.142 7.063 39.662 24.776 77.183 50.068 105.923 22.878 25.998 49.232 41.019 71.518 41.018 1.56 0 3.104-.074 4.622-.223 13.909-1.364 22.672-8.271 26.047-20.53 2.633-9.567 1.654-21.259.618-33.638-1.398-16.696-2.837-33.92 3.979-47.215 12.795-2.508 24.386-9.385 32.886-19.802 8.754-10.729 19.429-28.026 23.055-51.462 9.145-.002 17.088-2.718 23.373-9.004l74.1-74.101c5.998-5.998 8.991-13.743 8.98-23.37 23.446-3.623 40.753-14.302 51.487-23.058 10.419-8.501 17.301-20.094 19.808-32.889 13.293-6.811 30.514-5.374 47.209-3.976 12.378 1.037 24.07 2.016 33.637-.618 12.259-3.375 19.166-12.138 20.53-26.046 2.273-23.196-12.977-51.659-40.796-76.139zM197.977 381.11c-6.928 8.492-17.055 13.901-27.772 15.097-7.9.881-16.237-.165-24.09-1.08a244.291 244.291 0 01-11.984-1.705 7.5 7.5 0 00-2.473 14.795c9.411 1.572 18.932 2.67 28.466 3.094-5.041 15.258-3.621 32.212-2.337 47.551 2.398 28.64 1.027 36.594-13.182 37.987-18.144 1.775-42.433-11.932-63.417-35.776-20.449-23.237-35.58-52.707-43.505-84.338.133.073 2.036 1.09 2.869 1.525 17.378 9.084 35.782 15.8 54.52 21.461 2.315.7 4.642 1.354 6.977 1.986 3.283.889 7.118-.801 8.657-3.861 2.102-4.18-.221-9.395-4.739-10.618a337.286 337.286 0 01-3.202-.884c-31.82-8.956-57.733-21.429-70.281-30.407-12.651-9.049-16.149-27.6-17.178-42.084-2.453-34.514 9.775-70.371 33.053-98.192a71.904 71.904 0 001.348 2.997c7.848 17.004 22.601 30.46 37.927 40.761 5.268 3.541 22.58 15.669 25.582 17.786 35.588 25.107 74.31 52.415 104.568 59.914-3.161 20.002-12.303 34.795-19.807 43.991zm183.134-183.133c-9.202 7.507-24.006 16.656-44.023 19.814l-.032-.122c-1.506-6.026-3.837-12.586-7.01-19.712-8.853-19.884-23.426-42.372-37.35-62.595a1440.634 1440.634 0 00-4.134-5.972c-2.483-3.561-7.042-5.116-10.854-2.46-3.303 2.302-4.163 7.145-1.865 10.442 8.478 12.166 16.781 24.434 24.046 36.247 16.963 27.759 31.983 59.451 19.633 71.8l-74.1 74.101c-9.447 9.447-26.742 2.902-37.028-1.342-23.889-9.856-53.695-30.153-78.22-47.381-27.403-19.256-68.068-38.799-71.883-76.311-2.471-25.441 13.365-55.431 47.067-89.133s63.69-49.54 89.133-47.067c22.793 2.215 40.321 19.623 52.481 37.714 4.016 5.976 8.452 12.324 11.868 17.188 2.347 3.341 7.117 4.168 10.449 1.827a7.5 7.5 0 001.826-10.448c-14.681-20.902-28.503-43.48-52.445-54.856l-.028-.014a72.239 72.239 0 00-2.978-1.339c27.819-23.278 63.675-35.509 98.191-33.054 19.041 1.353 34.827 7.472 41.199 15.969 7.711 10.281 13.28 22.242 18.264 34.033 11.801 27.918 22.421 65.494 23.146 99.597v.052c.253 12.619-5.593 25.059-15.353 33.022zm115.738-53.372c-1.393 14.209-9.35 15.578-37.986 13.182-15.339-1.284-32.291-2.705-47.549 2.336-.005-.121-.015-.24-.021-.361-.79-17.743-3.847-35.33-8.216-52.525-5.859-23.057-13.928-45.897-24.995-66.992a206.78 206.78 0 00-1.368-2.567c31.639 7.924 61.118 23.058 84.359 43.511 23.845 20.984 37.554 45.283 35.776 63.416z"/></svg>