<svg xmlns="http://www.w3.org/2000/svg" xmlns:xlink="http://www.w3.org/1999/xlink"><symbol id="icon-facebook" viewBox="0 0 455.73 455.73"><path d="M0 0v455.73h242.704V279.691h-59.33v-71.864h59.33v-60.353c0-43.893 35.582-79.475 79.475-79.475h62.025v64.622h-44.382c-13.947 0-25.254 11.307-25.254 25.254v49.953h68.521l-9.47 71.864h-59.051V455.73H455.73V0H0z"/></symbol><symbol id="icon-github" viewBox="0 0 568.034 568.034"><path d="M550.99 0H17.051C8.948 0 2.381 6.567 2.381 14.67v538.694c0 8.104 6.567 14.67 14.67 14.67h177.498v-.129c8.011-.092 14.149-4.577 14.431-12.166.728-19.725.214-39.492.214-58.562-14.296.667-27.944 2.473-41.438 1.695-29.762-1.714-52.632-14.413-64.493-43.556-7.026-17.265-17.613-32.032-34.101-41.886-3.079-1.842-5.771-4.554-8.127-7.308-3.079-3.592-2.503-7.282 2.362-8.268 4.908-.998 10.27-1.695 15.11-.79 19.009 3.568 32.154 15.49 42.216 31.347 19.896 31.371 50.521 40.974 84.976 26.487 1.921-.808 4.363-2.766 4.725-4.553 2.778-13.887 7.968-26.549 18.427-37.65-11.628-2.154-22.399-3.739-32.962-6.188-30.417-7.038-57.742-19.7-77.724-44.848-16.303-20.514-23.758-44.528-27.185-70.086-5.367-40.031-.563-77.503 26.928-109.493 1.389-1.616 2.142-4.927 1.524-6.94-6.885-22.497-5.833-44.805.991-67.051 3.581-11.683 4.578-12.265 16.5-10.637.729.098 1.438.281 2.161.404 23.898 3.954 44.468 15.526 64.731 27.95 2.724 1.671 6.873 2.711 9.866 1.983 48.397-11.744 96.702-11.695 145.093.043 2.809.679 6.561-.288 9.247-1.695 11.016-5.759 21.561-12.454 32.718-17.914 12.98-6.346 26.652-11.12 41.371-10.857 2.576.049 6.561 2.509 7.423 4.786 8.856 23.464 10.723 47.375 3.666 71.794-.753 2.607.367 6.322 1.769 8.892 6.965 12.779 16.689 24.572 21.096 38.127 13.434 41.316 8.538 82.229-9.749 121.06-16.757 35.594-47.834 53.63-84.621 62.933-12.424 3.14-25.153 5.049-38.556 7.681 17.564 18.348 20.318 40.74 20.006 64.192-.324 24.192-.238 48.391-.251 72.589-.006 11.72 5.11 18.195 14.039 18.574-.006.037 188.723.037 188.723.037V14.67C565.653 6.567 559.087 0 550.99 0z"/></symbol><symbol id="icon-linkedin" viewBox="0 0 455 455"><g fill-rule="evenodd" clip-rule="evenodd"><path d="M246.4 204.35v-.67c-.14.23-.32.45-.44.67h.44z"/><path d="M0 0v455h455V0H0zm141.52 378h-67.5V174.9h67.5V378zm-33.75-230.8h-.45C84.68 147.2 70 131.6 70 112.1 70 92.17 85.1 77 108.21 77s37.31 15.17 37.75 35.1c0 19.5-14.64 35.1-38.2 35.1zM385 378h-67.52V269.35c0-27.3-9.76-45.92-34.2-45.92-18.66 0-29.75 12.54-34.64 24.69-1.78 4.34-2.24 10.37-2.24 16.46V378h-67.54s.9-184.04 0-203.1h67.54v28.79c8.97-13.81 24.99-33.55 60.86-33.55 44.43 0 77.74 29.02 77.74 91.4V378z"/></g></symbol><symbol id="icon-logo" viewBox="0 0 1032 850"><style>.shp0{fill:#000}</style><g id="Layer 1"><g id="&lt;Group&gt;"><path id="&lt;Compound Path&gt;" fill-rule="evenodd" class="shp0" d="M-153.27 1157.32h-49.12l-9.37 22.67h-25.09l47.16-105.81h24.18l47.31 105.81h-25.69l-9.38-22.67zm-7.7-18.6l-16.78-40.51-16.78 40.51h33.56zm226.22-64.54v105.81H45.14l-52.75-64.24v64.24h-24.18v-105.81h20.25l52.6 64.24v-64.24h24.19zm170.14 83.14h-49.12l-9.38 22.67H151.8l47.16-105.81h24.19l47.31 105.81h-25.7l-9.37-22.67zm-7.71-18.6l-16.78-40.51-16.77 40.51h33.55zm120.87 30.84l8.31-18.42c8.92 6.48 22.22 11.01 34.92 11.01 14.51 0 20.41-4.83 20.41-11.31 0-19.8-61.52-6.2-61.52-45.5 0-18.01 14.51-32.97 44.59-32.97 13.3 0 26.9 3.17 36.73 9.37l-7.56 18.59c-9.83-5.59-19.95-8.31-29.32-8.31-14.51 0-20.11 5.44-20.11 12.11 0 19.53 61.52 6.05 61.52 44.9 0 17.66-14.66 32.77-44.89 32.77-16.78 0-33.71-4.99-43.08-12.24zm200.53-75.43h-33.86v-19.95h92.2v19.95h-33.86v85.86h-24.48v-85.86zm211.25 63.19h-49.12l-9.37 22.67h-25.1l47.16-105.81h24.19l47.31 105.81h-25.7l-9.37-22.67zm-7.71-18.6l-16.77-40.51-16.78 40.51h33.55zm120.87 30.84l8.31-18.42c8.92 6.48 22.22 11.01 34.92 11.01 14.51 0 20.41-4.83 20.41-11.31 0-19.8-61.52-6.2-61.52-45.5 0-18.01 14.51-32.97 44.59-32.97 13.3 0 26.9 3.17 36.73 9.37l-7.56 18.59c-9.82-5.59-19.95-8.31-29.32-8.31-14.51 0-20.11 5.44-20.11 12.11 0 19.53 61.52 6.05 61.52 44.9 0 17.66-14.66 32.77-44.89 32.77-16.78 0-33.71-4.99-43.08-12.24zm180.12-95.38h24.49v105.81h-24.49v-105.81zm194.63 83.14h-49.12l-9.38 22.67h-25.09l47.16-105.81H1236l47.31 105.81h-25.7l-9.37-22.67zm-7.71-18.6l-16.78-40.51-16.77 40.51h33.55z"/><path id="&lt;Path&gt;" class="shp0" d="M223.65 413.18c6.49 0 11.75 5.26 11.75 11.76 0 6.49-5.26 11.75-11.75 11.75-58.4 0-111.27-23.67-149.54-61.94-38.27-38.27-61.94-91.14-61.94-149.53 0-58.4 23.67-111.27 61.94-149.54 38.27-38.27 91.14-61.94 149.54-61.94 6.49 0 11.75 5.27 11.75 11.76s-5.26 11.76-11.75 11.76c-51.91 0-98.9 21.03-132.91 55.05-34.02 34.01-55.06 81-55.06 132.91 0 51.9 21.04 98.89 55.06 132.91 34.01 34.01 81 55.05 132.91 55.05z"/><path id="&lt;Path&gt;" class="shp0" d="M34.4 829.61c-2.89 5.78-9.93 8.13-15.71 5.24-5.78-2.89-8.12-9.93-5.23-15.71L412.89 20.26c2.89-5.78 9.93-8.12 15.71-5.23 2.36 1.18 4.15 3.05 5.24 5.24l399.43 798.87c2.89 5.78.55 12.82-5.23 15.71-5.78 2.89-12.82.54-15.71-5.24L423.36 51.68 34.4 829.61z"/><path id="&lt;Path&gt;" class="shp0" d="M223.65 436.7c-6.5 0-11.76-5.27-11.76-11.76s5.26-11.76 11.76-11.76H822.8c6.5 0 11.76 5.27 11.76 11.76s-5.26 11.76-11.76 11.76H223.65z"/><path id="&lt;Path&gt;" class="shp0" d="M834.56 824.37c0 6.5-5.26 11.76-11.76 11.76-6.49 0-11.75-5.26-11.75-11.76V25.5c0-6.49 5.26-11.76 11.75-11.76 6.5 0 11.76 5.27 11.76 11.76v798.87zm-399.44 0c0 6.5-5.26 11.76-11.75 11.76-6.5 0-11.76-5.26-11.76-11.76V25.5c0-6.49 5.26-11.76 11.76-11.76 6.49 0 11.75 5.27 11.75 11.76v798.87z"/><path id="&lt;Path&gt;" class="shp0" d="M822.8 836.13c-6.49 0-11.75-5.26-11.75-11.76 0-6.49 5.26-11.75 11.75-11.75 51.91 0 98.9-21.04 132.91-55.05 34.02-34.02 55.06-81.01 55.06-132.91 0-51.91-21.04-98.9-55.06-132.91-34.01-34.02-81-55.06-132.91-55.06-6.49 0-11.75-5.26-11.75-11.75 0-6.5 5.26-11.76 11.75-11.76 58.4 0 111.27 23.67 149.54 61.94 38.27 38.27 61.94 91.14 61.94 149.54 0 58.39-23.67 111.26-61.94 149.53-38.27 38.27-91.14 61.94-149.54 61.94zM213.21 37.26c-6.49 0-11.76-5.27-11.76-11.76s5.27-11.76 11.76-11.76H822.8c6.5 0 11.76 5.27 11.76 11.76s-5.26 11.76-11.76 11.76H213.21z"/><path id="&lt;Path&gt;" class="shp0" d="M23.93 836.13c-6.5 0-11.76-5.26-11.76-11.75 0-6.5 5.26-11.76 11.76-11.76H822.8c6.5 0 11.76 5.26 11.76 11.76 0 6.49-5.26 11.75-11.76 11.75H23.93z"/></g></g></symbol><symbol id="icon-menu" viewBox="0 -53 384 384"><path d="M368 154.668H16c-8.832 0-16-7.168-16-16s7.168-16 16-16h352c8.832 0 16 7.168 16 16s-7.168 16-16 16zM368 32H16C7.168 32 0 24.832 0 16S7.168 0 16 0h352c8.832 0 16 7.168 16 16s-7.168 16-16 16zm0 245.332H16c-8.832 0-16-7.168-16-16s7.168-16 16-16h352c8.832 0 16 7.168 16 16s-7.168 16-16 16zm0 0"/></symbol><symbol id="icon-telegram" viewBox="0 0 455.731 455.731"><path d="M316.244 149.903L149.082 253.579a7.605 7.605 0 00-3.255 8.717l22.423 72.253c.471 1.518 2.683 1.309 2.861-.271l5.45-48.448a7.603 7.603 0 012.519-4.847l141.556-125.177c3.389-2.996-.547-8.288-4.392-5.903z"/><path d="M0 0v455.731h455.731V0H0zm379.882 118.418l-52.031 248.76c-2.442 11.673-16.133 16.916-25.747 9.859l-78.559-57.665-40.039 40.881c-7.027 7.175-19.166 4.271-22.185-5.308l-28.901-91.706-77.441-22.868c-10.16-3-10.759-17.165-.888-21.012L358.844 100.6c11.6-4.52 23.587 5.632 21.038 17.818z"/></symbol><symbol id="icon-vk" viewBox="0 0 455.73 455.73"><path d="M0 0v455.73h455.73V0H0zm365.34 252.87c11 11.35 22.77 21.96 33.42 33.6a198.12 198.12 0 0121.03 27.36c7.75 12.25 2.96 23.78-11.53 25.84-9.11 1.28-53.64 0-55.94 0-11.97-.06-22.46-4.21-30.91-12.34-9.4-9.05-17.94-18.98-26.97-28.42a75.33 75.33 0 00-8.75-7.96c-7.38-5.63-14.62-4.38-18.07 4.29-2.95 7.44-5.5 27-5.61 28.67-.62 8.73-6.18 14.3-15.96 14.83-28.24 1.54-55.6-1.61-81.1-15.27-21.6-11.57-38.86-27.93-53.8-47-23.75-30.31-42.5-63.62-59.62-97.91-.88-1.76-18.22-38.66-18.69-40.4-1.54-5.84-.1-11.41 4.83-13.33 3.08-1.2 60.25 0 61.2.05 9.12.5 15.35 4.34 19.19 13.81 10.92 26.97 24.76 52.4 43 75.23a40.13 40.13 0 008.67 7.94c4.69 3.22 9.11 2.09 11.02-3.28 2.02-5.63 3.87-17.04 3.98-22.95.3-15.45-.05-25.57-.88-41-.53-9.88-4.05-18.56-18.58-21.18-4.5-.81-4.9-4.5-2.02-8.2 6-7.67 14.36-8.89 23.43-9.37 14.7-.8 29.46-.15 44.18 0 6 .05 12.02.54 17.93 1.82 7.7 1.68 11.82 7.08 13.09 14.6.66 3.88 1 7.87.9 11.8-.38 16.85-1.2 33.7-1.38 50.56-.09 6.61.4 13.4 1.81 19.84 1.98 8.97 8.1 11.23 14.35 4.74 7.93-8.24 14.93-17.5 21.5-26.93 11.94-17.12 20.85-35.92 28.52-55.3 3.97-10 7.01-12.17 17.77-12.2 20.22-.04 40.44-.06 60.66 0 3.59.02 7.34.36 10.72 1.43 5.5 1.76 7.67 6.24 6.39 11.92-3 13.32-10.2 24.65-17.91 35.53-12.38 17.47-25.34 34.51-38 51.77a65.03 65.03 0 00-4.37 6.93c-4.73 8.56-4.4 13.36 2.5 20.48z"/></symbol></svg>