<svg xmlns="http://www.w3.org/2000/svg" xmlns:xlink="http://www.w3.org/1999/xlink"><symbol id="icon-croix" viewBox="0 0 31.112 31.112"><path d="M31.112 1.414L29.698 0 15.556 14.142 1.414 0 0 1.414l14.142 14.142L0 29.698l1.414 1.414L15.556 16.97l14.142 14.142 1.414-1.414L16.97 15.556z"/></symbol><symbol id="icon-facebook" viewBox="0 0 32 32"><path d="M26 32H6a6 6 0 01-6-6V6a6 6 0 016-6h20a6 6 0 016 6v20a6 6 0 01-6 6z" fill="#fff9dd"/><path d="M10 24h6v-5.5h-2V16h2v-2a3 3 0 013-3h2v2.5h-1c-.552 0-1-.052-1 .5v2h2.5l-1 2.5H19V24h3c1.103 0 2-.897 2-2V10c0-1.103-.897-2-2-2H10c-1.103 0-2 .897-2 2v12c0 1.103.897 2 2 2z" fill="#ffd200"/></symbol><symbol id="icon-github" viewBox="0 0 32 32"><path d="M26 32H6a6 6 0 01-6-6V6a6 6 0 016-6h20a6 6 0 016 6v20a6 6 0 01-6 6z" fill="#fff9dd"/><path d="M16.193 22.333c2.487 0 5.96.06 7.224-2.467.476-.966.583-2.082.583-3.134h-.001c0-1.382-.383-2.698-1.3-3.767.17-.511.257-1.049.257-1.59 0-.709-.16-1.065-.486-1.709-1.493 0-2.46.28-3.593 1.161a11.601 11.601 0 00-2.68-.303c-.997 0-1.99.103-2.957.33-1.15-.891-2.117-1.188-3.627-1.188-.323.643-.486.999-.486 1.709 0 .54.083 1.088.257 1.609A5.642 5.642 0 008 16.732c0 1.052.187 2.177.673 3.134 1.314 2.556 4.994 2.467 7.52 2.467zm-3.526-6.66c.634 0 1.243.112 1.867.198 2.279.347 3.476-.198 4.873-.198 1.559 0 2.45 1.277 2.45 2.725 0 2.899-2.677 3.341-5.02 3.341h-1.606c-2.333 0-5.013-.445-5.013-3.341-.001-1.448.889-2.725 2.449-2.725z" fill="#ffd200"/><path d="M19.103 20.215c.86 0 1.223-1.128 1.223-1.818s-.363-1.818-1.223-1.818-1.223 1.128-1.223 1.818.364 1.818 1.223 1.818zm-6.123 0c.86 0 1.223-1.128 1.223-1.818s-.363-1.817-1.223-1.817-1.223 1.128-1.223 1.818.363 1.817 1.223 1.817z" fill="#ffe777"/></symbol><symbol id="icon-linkedin" viewBox="0 0 32 32"><path d="M26 32H6a6 6 0 01-6-6V6a6 6 0 016-6h20a6 6 0 016 6v20a6 6 0 01-6 6z" fill="#fff9dd"/><path d="M23.996 24l.004-.001v-5.868c0-2.871-.618-5.082-3.974-5.082-1.613 0-2.696.885-3.138 1.725h-.046v-1.457H13.66v10.682h3.314V18.71c0-1.393.264-2.739 1.989-2.739 1.699 0 1.725 1.589 1.725 2.829V24zM8.264 13.318h3.317V24H8.264zM9.921 8C8.861 8 8 8.861 8 9.921c0 1.061.861 1.939 1.921 1.939s1.921-.878 1.921-1.939c0-1.06-.861-1.921-1.921-1.921z" fill="#ffd200"/></symbol><symbol id="icon-logo" viewBox="0 0 1032 850"><style>.shp0{fill:#000}</style><g id="Layer 1"><g id="&lt;Group&gt;"><path id="&lt;Compound Path&gt;" fill-rule="evenodd" class="shp0" d="M-153.27 1157.32h-49.12l-9.37 22.67h-25.09l47.16-105.81h24.18l47.31 105.81h-25.69l-9.38-22.67zm-7.7-18.6l-16.78-40.51-16.78 40.51h33.56zm226.22-64.54v105.81H45.14l-52.75-64.24v64.24h-24.18v-105.81h20.25l52.6 64.24v-64.24h24.19zm170.14 83.14h-49.12l-9.38 22.67H151.8l47.16-105.81h24.19l47.31 105.81h-25.7l-9.37-22.67zm-7.71-18.6l-16.78-40.51-16.77 40.51h33.55zm120.87 30.84l8.31-18.42c8.92 6.48 22.22 11.01 34.92 11.01 14.51 0 20.41-4.83 20.41-11.31 0-19.8-61.52-6.2-61.52-45.5 0-18.01 14.51-32.97 44.59-32.97 13.3 0 26.9 3.17 36.73 9.37l-7.56 18.59c-9.83-5.59-19.95-8.31-29.32-8.31-14.51 0-20.11 5.44-20.11 12.11 0 19.53 61.52 6.05 61.52 44.9 0 17.66-14.66 32.77-44.89 32.77-16.78 0-33.71-4.99-43.08-12.24zm200.53-75.43h-33.86v-19.95h92.2v19.95h-33.86v85.86h-24.48v-85.86zm211.25 63.19h-49.12l-9.37 22.67h-25.1l47.16-105.81h24.19l47.31 105.81h-25.7l-9.37-22.67zm-7.71-18.6l-16.77-40.51-16.78 40.51h33.55zm120.87 30.84l8.31-18.42c8.92 6.48 22.22 11.01 34.92 11.01 14.51 0 20.41-4.83 20.41-11.31 0-19.8-61.52-6.2-61.52-45.5 0-18.01 14.51-32.97 44.59-32.97 13.3 0 26.9 3.17 36.73 9.37l-7.56 18.59c-9.82-5.59-19.95-8.31-29.32-8.31-14.51 0-20.11 5.44-20.11 12.11 0 19.53 61.52 6.05 61.52 44.9 0 17.66-14.66 32.77-44.89 32.77-16.78 0-33.71-4.99-43.08-12.24zm180.12-95.38h24.49v105.81h-24.49v-105.81zm194.63 83.14h-49.12l-9.38 22.67h-25.09l47.16-105.81H1236l47.31 105.81h-25.7l-9.37-22.67zm-7.71-18.6l-16.78-40.51-16.77 40.51h33.55z"/><path id="&lt;Path&gt;" class="shp0" d="M223.65 413.18c6.49 0 11.75 5.26 11.75 11.76 0 6.49-5.26 11.75-11.75 11.75-58.4 0-111.27-23.67-149.54-61.94-38.27-38.27-61.94-91.14-61.94-149.53 0-58.4 23.67-111.27 61.94-149.54 38.27-38.27 91.14-61.94 149.54-61.94 6.49 0 11.75 5.27 11.75 11.76s-5.26 11.76-11.75 11.76c-51.91 0-98.9 21.03-132.91 55.05-34.02 34.01-55.06 81-55.06 132.91 0 51.9 21.04 98.89 55.06 132.91 34.01 34.01 81 55.05 132.91 55.05z"/><path id="&lt;Path&gt;" class="shp0" d="M34.4 829.61c-2.89 5.78-9.93 8.13-15.71 5.24-5.78-2.89-8.12-9.93-5.23-15.71L412.89 20.26c2.89-5.78 9.93-8.12 15.71-5.23 2.36 1.18 4.15 3.05 5.24 5.24l399.43 798.87c2.89 5.78.55 12.82-5.23 15.71-5.78 2.89-12.82.54-15.71-5.24L423.36 51.68 34.4 829.61z"/><path id="&lt;Path&gt;" class="shp0" d="M223.65 436.7c-6.5 0-11.76-5.27-11.76-11.76s5.26-11.76 11.76-11.76H822.8c6.5 0 11.76 5.27 11.76 11.76s-5.26 11.76-11.76 11.76H223.65z"/><path id="&lt;Path&gt;" class="shp0" d="M834.56 824.37c0 6.5-5.26 11.76-11.76 11.76-6.49 0-11.75-5.26-11.75-11.76V25.5c0-6.49 5.26-11.76 11.75-11.76 6.5 0 11.76 5.27 11.76 11.76v798.87zm-399.44 0c0 6.5-5.26 11.76-11.75 11.76-6.5 0-11.76-5.26-11.76-11.76V25.5c0-6.49 5.26-11.76 11.76-11.76 6.49 0 11.75 5.27 11.75 11.76v798.87z"/><path id="&lt;Path&gt;" class="shp0" d="M822.8 836.13c-6.49 0-11.75-5.26-11.75-11.76 0-6.49 5.26-11.75 11.75-11.75 51.91 0 98.9-21.04 132.91-55.05 34.02-34.02 55.06-81.01 55.06-132.91 0-51.91-21.04-98.9-55.06-132.91-34.01-34.02-81-55.06-132.91-55.06-6.49 0-11.75-5.26-11.75-11.75 0-6.5 5.26-11.76 11.75-11.76 58.4 0 111.27 23.67 149.54 61.94 38.27 38.27 61.94 91.14 61.94 149.54 0 58.39-23.67 111.26-61.94 149.53-38.27 38.27-91.14 61.94-149.54 61.94zM213.21 37.26c-6.49 0-11.76-5.27-11.76-11.76s5.27-11.76 11.76-11.76H822.8c6.5 0 11.76 5.27 11.76 11.76s-5.26 11.76-11.76 11.76H213.21z"/><path id="&lt;Path&gt;" class="shp0" d="M23.93 836.13c-6.5 0-11.76-5.26-11.76-11.75 0-6.5 5.26-11.76 11.76-11.76H822.8c6.5 0 11.76 5.26 11.76 11.76 0 6.49-5.26 11.75-11.76 11.75H23.93z"/></g></g></symbol><symbol id="icon-menu" viewBox="0 -53 384 384"><path d="M368 154.668H16c-8.832 0-16-7.168-16-16s7.168-16 16-16h352c8.832 0 16 7.168 16 16s-7.168 16-16 16zM368 32H16C7.168 32 0 24.832 0 16S7.168 0 16 0h352c8.832 0 16 7.168 16 16s-7.168 16-16 16zm0 245.332H16c-8.832 0-16-7.168-16-16s7.168-16 16-16h352c8.832 0 16 7.168 16 16s-7.168 16-16 16zm0 0"/></symbol><symbol id="icon-telegram" viewBox="0 0 32 32"><path d="M26 32H6a6 6 0 01-6-6V6a6 6 0 016-6h20a6 6 0 016 6v20a6 6 0 01-6 6z" fill="#fff9dd"/><path d="M14.278 18.121l-.264 3.723c.379 0 .542-.163.739-.358l1.775-1.697 3.679 2.694c.674.376 1.15.178 1.332-.621l2.415-11.314.001-.001c.214-.997-.36-1.387-1.018-1.142L8.743 14.838c-.968.376-.954.916-.165 1.161l3.628 1.129 8.429-5.274c.397-.263.757-.117.461.145z" fill="#ffd200"/></symbol><symbol id="icon-vk" viewBox="0 0 32 32"><path d="M26 32H6a6 6 0 01-6-6V6a6 6 0 016-6h20a6 6 0 016 6v20a6 6 0 01-6 6z" fill="#fff9dd"/><path d="M21.277 16.685c-.259-.327-.184-.472 0-.764.003-.003 2.139-2.954 2.358-3.955l.001-.001c.11-.365 0-.633-.529-.633h-1.75c-.445 0-.651.23-.76.487 0 0-.891 2.132-2.151 3.514-.407.399-.594.528-.817.528-.11 0-.279-.128-.279-.493v-3.403c0-.437-.125-.633-.493-.633h-2.751c-.279 0-.445.204-.445.394 0 .414.63.51.695 1.677v2.532c0 .554-.101.656-.324.656-.594 0-2.038-2.141-2.893-4.59-.172-.475-.342-.668-.79-.668H8.6c-.499 0-.6.23-.6.487 0 .455.594 2.715 2.765 5.702 1.447 2.039 3.484 3.144 5.337 3.144 1.114 0 1.25-.245 1.25-.668 0-1.948-.101-2.132.457-2.132.259 0 .704.128 1.744 1.111 1.188 1.167 1.384 1.689 2.049 1.689h1.75c.499 0 .752-.245.606-.729-.332-1.017-2.58-3.112-2.681-3.252z" fill="#ffd200"/></symbol></svg>