<svg xmlns="http://www.w3.org/2000/svg" xmlns:xlink="http://www.w3.org/1999/xlink"><symbol id="icon-cat" viewBox="-27 0 512 512"><g id="surface1"><path d="M263.902 462.168c-11.218 0-20.316-9.098-20.316-20.316 0-11.223 9.098-20.32 20.316-20.32 58.125 0 63.993-24.485 74.637-68.934 9.66-40.328 21.68-90.52 82.64-120.637 10.055-4.969 22.247-.848 27.216 9.215 4.972 10.062.843 22.246-9.215 27.219-43.88 21.675-52.254 56.644-61.121 93.668-5.692 23.765-11.579 48.34-27.63 67.496-18.386 21.945-46.687 32.609-86.527 32.609zm0 0" fill="#a66dc2"/><path d="M330.063 383.52c-8.903 24.738-23.368 38.011-66.16 38.011-11.223 0-20.321 9.098-20.321 20.32 0 11.22 9.098 20.317 20.32 20.317 27.067 0 48.801-4.93 65.727-14.969 6.879-23.941 5.348-45.137.433-63.68zm0 0" fill="#905fa8"/><path d="M268.402 293.434h-155.96c7.574 58.988-83.442 101.945-1.618 198.96 6.512 7.723 16.153 12.106 26.254 12.106h106.688c10.101 0 19.742-4.383 26.254-12.105 81.824-97.016-9.192-139.973-1.618-198.961zm0 0" fill="#a66dc2"/><path d="M268.402 35.738s29.93-33.293 84.532-27.578c8.183.856 14.957 6.79 16.703 14.828 4.894 22.543 10.113 71.457-20.856 117.84zm0 0" fill="#905fa8"/><path d="M323.438 123.902c21.105-31.613 21.144-64.847 17.976-85.906-.25-.004-.504-.004-.754-.004-31.758 0-49.414 17.922-49.59 18.121zm0 0" fill="#fd9ac8"/><path d="M112.441 35.738S82.511 2.445 27.911 8.16c-8.184.856-14.958 6.79-16.704 14.828-4.895 22.543-10.113 71.457 20.855 117.84zm0 0" fill="#905fa8"/><path d="M57.406 123.902C36.301 92.29 36.262 59.055 39.43 37.996c.25-.004.504-.004.754-.004 31.757 0 49.414 17.922 49.59 18.121zm0 0" fill="#fd9ac8"/><path d="M112.441 293.434c1.754 13.668-1.785 26.472-7.238 39.293 23.707 5.628 51.7 8.328 85.219 8.328 33.52 0 61.512-2.7 85.219-8.328-5.454-12.82-8.993-25.625-7.239-39.293zm0 0" fill="#905fa8"/><path d="M190.422 311.055c85.598 0 165.258-17.871 165.258-113.203 0-123.68-85.95-181.68-165.258-181.68-79.309 0-165.258 58-165.258 181.683 0 95.329 79.66 113.2 165.258 113.2zm0 0" fill="#a66dc2"/><path d="M275.734 210.93h-19.953a7.5 7.5 0 110-15h19.953a7.5 7.5 0 110 15zm-150.671 0h-19.954a7.5 7.5 0 110-15h19.954a7.5 7.5 0 110 15zm0 0" fill="#fd9ac8"/><path d="M265.816 189.398a7.5 7.5 0 007.5-7.5v-14.644a7.5 7.5 0 00-7.5-7.5 7.5 7.5 0 00-7.5 7.5v14.644a7.5 7.5 0 007.5 7.5zm-150.671 0a7.5 7.5 0 007.5-7.5v-14.644a7.5 7.5 0 00-7.5-7.5 7.497 7.497 0 00-7.5 7.5v14.644c0 4.145 3.355 7.5 7.5 7.5zm75.335 20.707c7.415 0 14.387-3.109 19.122-8.527a7.497 7.497 0 00-.711-10.582 7.5 7.5 0 00-10.582.711c-1.887 2.16-4.743 3.398-7.829 3.398-3.085 0-5.94-1.238-7.828-3.398a7.5 7.5 0 00-10.582-.71 7.497 7.497 0 00-.71 10.581c4.734 5.418 11.702 8.527 19.12 8.527zm0 0"/><path d="M17.723 197.855c0 46.317 18.332 79.61 54.488 98.961 9.574 5.122 20.324 9.297 32.477 12.57-2.145 12.946-8.583 25.837-15.352 39.376-9.856 19.715-21.027 42.058-20.262 68.648.121 4.14 3.578 7.402 7.715 7.277a7.498 7.498 0 007.281-7.71c-.66-22.82 9.172-42.485 18.684-61.504 7.164-14.328 13.992-27.993 16.594-42.711 12.468 2.43 26.254 4.078 41.547 4.972 19.68 1.149 39.503 1.121 59.18 0 15.292-.894 29.073-2.543 41.538-4.972 2.602 14.718 9.438 28.383 16.602 42.71 8.887 17.766 18.074 36.133 18.691 57.048a76.455 76.455 0 01-.539 11.41c-2.472 20.168-13.023 41.101-32.02 63.629-5.062 6-12.538 9.441-20.523 9.441h-5.285c19.738-42.457 14.024-94.594 13.742-96.988a7.499 7.499 0 00-8.308-6.586 7.498 7.498 0 00-6.59 8.312c.066.57 6.152 55.899-15.653 95.262h-23.75v-96.125c0-4.14-3.359-7.5-7.5-7.5-4.14 0-7.5 3.36-7.5 7.5V497h-23.75c-21.71-39.215-15.734-94.52-15.652-95.266a7.497 7.497 0 00-6.59-8.308 7.494 7.494 0 00-8.308 6.586c-.278 2.394-5.996 54.531 13.742 96.988h-5.285c-7.98 0-15.461-3.441-20.52-9.441-12.574-14.907-21.594-29.387-26.816-43.043a7.496 7.496 0 00-9.684-4.329c-3.867 1.477-5.805 5.813-4.328 9.684 5.906 15.445 15.512 30.938 29.36 47.36 7.917 9.386 19.578 14.769 31.988 14.769h106.687c12.414 0 24.074-5.383 31.988-14.77 8.731-10.351 15.848-20.472 21.391-30.43 25.406-4.765 44.758-15.386 59.031-32.421 17.188-20.512 23.282-45.957 29.176-70.567 3.445-14.394 6.703-27.992 11.969-40.675a7.504 7.504 0 00-4.055-9.805 7.498 7.498 0 00-9.8 4.055c-5.72 13.785-9.27 28.601-12.704 42.93-5.488 22.921-11.168 46.624-26.082 64.425-9.879 11.793-22.851 19.957-39.406 24.754 2.672-7.043 4.5-14.016 5.543-20.984.457-3.047.781-6.117.938-9.2 21.48-12.378 27.09-35.789 34.078-64.968 4.691-19.59 10.011-41.797 21.347-62.258 12.88-23.238 31.625-40.707 57.32-53.402 6.27-3.094 14.083-.434 17.169 5.816 3.097 6.273.441 14.078-5.817 17.172-15.12 7.469-27.058 16.777-36.5 28.46a7.497 7.497 0 001.117 10.548c3.223 2.601 7.946 2.101 10.547-1.118 8.051-9.96 18.348-17.953 31.48-24.445 13.497-6.668 19.29-23.472 12.727-37.043a9.094 9.094 0 01-.105-.219c-6.664-13.488-23.485-19.28-37.043-12.726l-.219.105c-28.523 14.094-49.39 33.582-63.797 59.578-12.328 22.25-17.898 45.512-22.816 66.04-5.758 24.039-9.707 40.488-20.367 50.546-2.868-19.718-11.516-37.066-19.305-52.636-6.774-13.54-13.211-26.43-15.356-39.375 12.153-3.274 22.903-7.45 32.473-12.57 36.156-19.352 54.492-52.649 54.492-98.965 0-19.696-2.148-38.317-6.347-55.676 30.015-47.106 25.574-95.711 20.132-120.778C374.598 10.218 365.25 1.902 353.773.7c-4.441-.466-8.906-.7-13.265-.7-38.965 0-64.012 18.293-73.434 26.664-23.547-11.656-49.906-17.988-76.594-17.988-26.69 0-53.05 6.332-76.593 17.988C104.46 18.293 79.41 0 40.449 0c-4.36 0-8.82.234-13.261.7-11.481 1.202-20.825 9.519-23.25 20.698C-1.508 46.465-5.945 95.07 24.07 142.176c-4.199 17.36-6.347 35.98-6.347 55.68zM46.082 45.72c12.145.96 21.629 4.765 28.078 8.336a152.963 152.963 0 00-3.344 3.222 166.88 166.88 0 00-22.332 27.387C45.086 70.13 45.027 56.54 46.082 45.72zm286.395 38.945a166.512 166.512 0 00-25.211-30.168c-.157-.144-.309-.297-.465-.441 6.449-3.567 15.933-7.375 28.074-8.332 1.055 10.812.996 24.41-2.398 38.941zM340.512 15c3.84 0 7.773.207 11.699.617 5.023.528 9.105 4.13 10.152 8.965 4.496 20.688 8.274 58.98-11.363 97.723-.316-.89-2.266-5.754-2.793-7.34a180.354 180.354 0 00-5.504-12.317c9.402-25.437 8.61-49.66 6.188-65.77a7.496 7.496 0 00-7.344-6.382l-.828-.004c-21.285 0-36.774 7.258-46 13.32a164.148 164.148 0 00-13.512-9.359C291.172 26.828 311.336 15 340.512 15zM290.48 59.652c40.278 33.649 57.758 86.977 57.758 138.2 0 40.925-15.23 68.968-46.566 85.738-28.559 15.281-62.48 18.676-94.352 19.707-.257.008-33.422.008-33.68 0-31.882-1.04-65.757-4.406-94.35-19.707-31.337-16.77-46.567-44.813-46.567-85.738 0-47.473 14.242-95.446 48.422-129.645 28.597-28.613 69.007-44.531 109.335-44.531 36.606 0 72.516 13.015 100 35.976zM18.594 24.582c1.05-4.836 5.133-8.437 10.156-8.965 3.926-.41 7.86-.617 11.7-.617 28.968 0 49.23 11.855 59.26 19.477a165.783 165.783 0 00-13.468 9.336c-9.226-6.063-24.719-13.32-46-13.32l-.828.003a7.496 7.496 0 00-7.344 6.383c-2.422 16.11-3.215 40.332 6.188 65.77a179.912 179.912 0 00-5.524 12.367c-.609 1.507-2.445 6.367-2.773 7.293-19.637-38.746-15.86-77.04-11.367-97.727zm0 0"/></g></symbol><symbol id="icon-cathedral-of-saint-basil" viewBox="0 0 511.965 511.965"><path d="M419.805 326.954c13.864 0 26.556-7.81 32.776-20.201 8.088-16.113 13.805-33.875 13.805-52.539 0-73.347-119.047-137.364-136.663-172.981C312.77 116.85 193.06 180.868 193.06 254.214c0 18.664 5.717 36.426 13.805 52.539 6.22 12.391 18.912 20.201 32.776 20.201z" fill="#5ab161"/><path d="M260.589 307.813c-28.21-59.677 34.451-153.948 47.351-200.967-39.623 36.92-114.881 89.209-114.881 147.368 0 18.664 5.717 36.426 13.805 52.539 6.22 12.391 18.912 20.201 32.776 20.201h32.942c-4.645-5.871-8.725-12.228-11.993-19.141z" fill="#69da61"/><path d="M206.863 306.753c-18.951-37.755-16.816-65.547-3.233-91.549 1.508 0-40.999-32.179-48.684-47.718-13.545 28.458-109.194 79.608-109.194 138.212 0 10.409 2.225 20.466 5.767 29.97 6.302 16.91 22.418 28.149 40.464 28.149h140.74l.542-37.443c-11.286-1.989-21.152-9.162-26.402-19.621z" fill="#efefef"/><path d="M201.753 218.977c1.099-2.304 1.82-3.658 1.877-3.773a714.49 714.49 0 00-1.965-1.725 87.392 87.392 0 00.088 5.498zM81.007 332.731c-14.188-43.627 28.775-101.036 50.064-138.907-32.71 29.048-85.318 68.409-85.318 111.875 0 10.409 2.225 20.466 5.767 29.97 6.302 16.91 22.418 28.149 40.464 28.149h7.771c-6.3-6.026-14.624-18.404-18.748-31.087z" fill="#f7f7f7"/><path d="M395.304 442.853v-60.228H264.14v61.123c15.768 6.487 27.51 30.199 27.781 58.61h.03c.319-33.435 16.523-60.378 36.479-60.378 19.955 0 36.16 26.943 36.479 60.378h.03c.285-29.944 13.312-54.666 30.365-59.505z" fill="#ff5872"/><path d="M347.714 103.018c28.971 52.855 95.51 137.085 75.226 201.125-2.557 8.073-6.075 15.664-10.277 22.812h7.142c13.864 0 26.556-7.81 32.776-20.201 8.088-16.113 13.804-33.875 13.804-52.539.001-60.2-80.182-114.111-118.671-151.197z" fill="#4b964f"/><path d="M404.793 382.624H254.651c-12.111 0-21.929-9.818-21.929-21.929v-33.741h194v33.741c0 12.111-9.818 21.929-21.929 21.929z" fill="#ff5872"/><circle cx="154.946" cy="150.633" fill="#ffd258" r="15.535"/><path d="M209.586 408.299H100.307c-12.627 0-22.864-10.236-22.864-22.864v-21.617h155.006v21.617c0 12.627-10.236 22.864-22.863 22.864z" fill="#ffd258"/><path d="M206.863 306.753c-18.951-37.755-16.816-65.547-3.233-91.549.149-.299-24.607-20.664-36.18-32.135 22.114 63.308 29.233 123.407 23.477 180.749h41.795l.542-37.443c-11.285-1.99-21.151-9.163-26.401-19.622z" fill="#d4d6d4"/><path d="M102.546 408.299h104.8v95.666h-104.8zM91.982 270.066l62.724-21.333 38.795 14.46c-1.064-11.086-.295-20.831 3.468-32.34L154.706 215.1l-62.724 21.333-6.062-2.223c-8.206 8.114-15.921 16.615-22.361 25.431z" fill="#ff5872"/><path d="M291.936 503.357h-72.987c0-33.898 16.339-61.378 36.494-61.378s36.493 27.48 36.493 61.378zm72.987 0h-72.987c0-33.898 16.339-61.378 36.494-61.378s36.493 27.48 36.493 61.378zm-194.442-.092h-31.07v-48.706c0-8.58 6.955-15.535 15.535-15.535 8.574 0 15.535 6.95 15.535 15.535z" fill="#ad4968"/><path d="M254.805 326.954h108.714c33.271-27.393 74.324-30.987 101.132-54.682 1.113-5.905 1.735-11.932 1.735-18.058 0-30.639-20.778-59.648-46.253-85.641-19.756 93.409-125.069 46.137-165.328 158.381z" fill="#ffd258"/><path d="M239.639 326.954c-13.864 0-26.556-7.81-32.776-20.201a163.65 163.65 0 01-2.167-4.504c-.05-.1 2.262.792-49.991-18.684l-62.724 21.333-43.685-16.023c-2.81 9.492-3.646 19.753-.723 33.367L91.98 338.53l62.724-21.333 57.236 21.333c24.938-8.697 18.477-5.805 27.699-11.576z" fill="#ff5872"/><path d="M371.79 124.58c-15.069 107.249-129.233 49.784-168.976 173.462a159.31 159.31 0 004.05 8.712c5.25 10.458 15.733 18.211 27.018 20.201h50.908c45.76-82.821 137.361-48.66 155.114-136.079-19.232-24.506-45.695-46.931-68.114-66.296z" fill="#ffd258"/><path d="M439.903 190.875c-1.438-2.721-17.621-20.726-19.771-22.301-19.756 93.407-125.068 46.136-165.327 158.38h29.984c45.76-82.82 137.361-48.66 155.114-136.079z" fill="#5ab161"/><path d="M395.304 437.742v-55.118H282.141c56.389 4.104 96.236 20.852 113.163 55.118zm-187.958 11.93v-41.373h-84.944c42.328 3.08 72.238 15.651 84.944 41.373zm196.656-122.718v17.72c0 16.498-9.34 30.806-23.015 37.95h23.806c12.111 0 21.929-9.818 21.929-21.929v-33.741z" fill="#db4968"/><path d="M255.295 326.954v17.72c0 16.498 9.34 30.806 23.015 37.95h-23.806c-12.111 0-21.929-9.818-21.929-21.929v-33.741z" fill="#ff7f90"/><path d="M207.767 363.818v21.617c0 12.627-10.236 22.864-22.864 22.864h24.682c12.627 0 22.864-10.237 22.864-22.864v-21.617z" fill="#ffb666"/><path d="M107.4 385.435v-21.617H77.443v21.617c0 12.627 10.236 22.864 22.864 22.864h29.957c-12.627 0-22.864-10.237-22.864-22.864z" fill="#fff0cb"/><path d="M122.402 503.965h-19.856v-95.666h11.925c-2.452 37.641-1.219 71.122 7.931 95.666zm144.084-121.341h-2.346v61.123c15.768 6.487 27.51 30.199 27.781 58.61.355 0-.855-16.219 6.601-34.145-14.485-18.583-24.262-49.469-32.036-85.588z" fill="#ff7f90"/><path d="M437.911 503.357h-72.987c0-33.898 16.339-61.378 36.494-61.378s36.493 27.48 36.493 61.378z" fill="#ad4968"/><path d="M187.49 260.952l6.01 2.24c-1.149-11.968-.002-21.728 3.468-32.34l-17.054-6.356a438.55 438.55 0 017.576 36.456zm17.17 41.233l-12.856-4.792a389.968 389.968 0 01.988 34l19.151 7.138 20.78-7.249c.674-.422.465.374.542-4.907a36.686 36.686 0 01-10.079-3.333c-9.855-4.943-14.384-11.87-18.526-20.857z" fill="#db4968"/><path d="M371.79 124.58c-.713 5.072-1.648 9.773-2.785 14.145 17.849 28.975 38.248 62.301 49.382 95.075 9.949-10.042 17.565-23.467 21.517-42.925-19.232-24.505-45.695-46.93-68.114-66.295z" fill="#ffb666"/><path d="M464.645 272.277c1.114-5.907 1.74-11.935 1.74-18.063 0-30.64-20.775-59.649-46.25-85.642-.482.088-2.287 17.581-14.663 34.23 15.066 31.113 25.087 63.127 19.829 91.798 14.525-6.069 28.173-12.451 39.344-22.323z" fill="#ffb666"/><path d="M405.473 202.802c2.454 5.067 10.25 23.153 12.914 30.998 9.949-10.042 17.565-23.467 21.517-42.925-6-7.646-12.705-15.089-19.771-22.301-3.042 14.38-8.113 25.422-14.66 34.228z" fill="#4b964f"/><path d="M162.406 137.007c7.445 13.569-7.57 28.503-21.087 21.086 2.64 4.812 7.751 8.075 13.627 8.075 16.026 0 21.513-21.452 7.46-29.161z" fill="#ffb666"/><path d="M139.411 150.628c8.569.064 15.629-6.868 15.632-15.525a15.52 15.52 0 00-15.632 15.525z" fill="#fff0cb"/><circle cx="329.722" cy="60.761" fill="#ffd258" r="20.064"/><path d="M339.357 43.162c9.615 17.525-9.777 36.812-27.234 27.234 3.409 6.215 10.011 10.429 17.599 10.429 20.698 0 27.785-27.706 9.635-37.663z" fill="#ffb666"/><path d="M309.659 60.755c11.067.083 20.185-8.871 20.189-20.052a20.045 20.045 0 00-20.189 20.052z" fill="#fff0cb"/><path d="M91.982 270.066l62.724-21.333 38.795 14.46c-1.064-11.086-.295-20.831 3.468-32.34L154.706 215.1l-62.724 21.333-6.062-2.223c-8.206 8.114-15.921 16.615-22.361 25.431z" fill="#ff5872"/><path d="M91.982 236.434l-6.062-2.223c-8.206 8.114-15.921 16.615-22.361 25.431l25.604 9.391c5.616-13.103 12.781-26.127 20.02-38.449zm-44.403 85.812l34.151 12.526c-4.08-11.39-4.335-22.598-2.309-34.479l-31.124-11.416c-3.351 11.271-3.19 21.858-.718 33.369z" fill="#ff7f90"/><path d="M202.814 298.042a159.31 159.31 0 004.05 8.712c6.22 12.391 18.912 20.201 32.776 20.201h32.942c-4.644-5.871-8.724-12.228-11.992-19.141-11.767-24.893-7.718-55.805 1.93-86.796-27.772 15.945-47.487 38.997-59.706 77.024z" fill="#fff0cb"/><path d="M254.805 326.954h17.776c-4.087-5.167-7.736-10.712-10.781-16.68-2.502 5.136-4.842 10.678-6.995 16.68z" fill="#69da61"/><path d="M248.116 168.084c4.259 0 5.49-2.307 12.749-9.006a8 8 0 00-10.851-11.759 533.837 533.837 0 00-7.437 6.99c-5.196 4.985-1.628 13.775 5.539 13.775z"/><path d="M380.416 121.458c-15.664-13.515-30.627-26.429-38.759-36.61 22.474-10.9 19.88-43.687-3.935-50.959V8a8 8 0 00-16 0v25.89c-23.838 7.279-26.421 40.16-3.839 51.004-10.026 12.744-31.425 30.271-50.19 46.63a8 8 0 00-.772 11.288 7.998 7.998 0 0011.287.772c21.032-18.336 40.548-34.232 51.583-47.944 7.757 9.517 19.462 20 33.406 32.084-15.482 89.063-113.979 47.745-159.8 146.725-1.56-6.872-2.338-13.594-2.338-20.234 0-21.574 11.835-45.006 36.181-71.636a8 8 0 00-11.808-10.796c-15.611 17.075-26.602 33.24-33.137 48.791l-34.795-12.97c-3.647-1.361-2.021-1.217-45.817 13.679 17.525-15.408 33.718-28.425 43.325-39.773 3.853 4.484 9.069 9.629 16.121 15.972a8 8 0 0011.298-.599 7.999 7.999 0 00-.599-11.298c-5.023-4.517-10.706-9.831-14.866-14.726 17.094-10.194 14.626-35.6-4.016-42.359v-19.527a8 8 0 00-16 0V128.5c-18.674 6.771-21.117 32.259-3.928 42.41-24.669 29.33-105.266 77.057-105.266 134.789 0 10.575 2.109 21.599 6.27 32.764 4.649 12.475 13.926 22.39 25.421 28.069v18.904c0 15.049 10.829 27.609 25.103 30.316v88.214a8 8 0 008 8l337.95-.608a8 8 0 008-8c0-33.986-16.808-70.043-45.192-69.359V408.3a8 8 0 00-16 0v30.574c-8.923 5.459-16.221 15.118-21.095 27.364-9.664-22.502-27.343-32.258-37.78-32.258-9.152 0-17.261 4.135-23.713 10.372a8 8 0 0011.121 11.503c4.032-3.898 8.269-5.929 12.592-5.875 11.924.15 26.443 25.254 28.137 45.378h-56.921c-1.839-26.047-12.57-47.304-27.508-56.481.051-.101.001 1.798.001-48.251h132.653c16.503 0 29.929-13.426 29.929-29.929v-5.571a8 8 0 00-16 0v5.571c0 7.681-6.249 13.929-13.929 13.929h-150.14c-7.681 0-13.929-6.249-13.929-13.929v-25.741h179.083c17.007 0 32.306-9.431 39.926-24.612 40.508-80.707-9.743-128.858-79.315-188.886zm-50.694-72.761c6.31 0 11.443 5.133 11.443 11.443s-5.133 11.443-11.443 11.443-11.443-5.133-11.443-11.443 5.134-11.443 11.443-11.443zm-174.776 94.401c4.155 0 7.535 3.38 7.535 7.535s-3.38 7.535-7.535 7.535-7.535-3.38-7.535-7.535 3.381-7.535 7.535-7.535zm302.319 124.955c-24.903 20.369-63.65 25.009-96.564 50.901h-61.432c42.604-59.613 118.647-41.686 143.825-109.952 9.373 14.649 15.292 29.807 15.292 45.212.404 5.743.185 9.622-1.121 13.839zm-390.701 1.211c24.373 8.94 23.449 8.802 25.418 8.802 1.892 0-3.131 1.515 62.601-20.841l31.577 11.77c.927 6.386 2.437 12.876 4.539 19.45-36.532-13.617-34.95-13.683-38.57-12.452l-60.047 20.423-33.594-12.322c2.109-4.999 4.85-9.948 8.076-14.83zm357.455-84.862c.437.246 7.121 8.152 7.252 8.486-17.931 75.499-103.906 46.922-151.112 126.066h-13.566c39.189-89.023 130.039-56.865 157.426-134.552zM54.611 316.304c-1.101-7.046-1.018-12.342-.448-16.75.013-.1.227.078 35.065 12.856 3.787 1.389.891 1.573 65.356-20.353 44.429 16.56 44.199 16.415 44.268 16.515 4.016 8.237 9.16 14.815 17.57 19.919-.098.1.772-.264-4.389 1.536-58.533-21.817-56.102-21.694-59.902-20.403l-60.047 20.423zm322.401-176.641c.1 0 20.237 17.356 34.333 31.38-20.241 80.223-119.934 40.636-162.078 147.912h-9.628c-10.918 0-20.737-6.05-25.626-15.79a156.623 156.623 0 01-2.639-5.537c37.275-109.933 142.052-64.222 165.638-157.965zm-222.429 83.929c32.972 12.29 32.646 12.091 32.696 12.191-2.544 10.721-1.906 15.494-2.171 15.744-30.112-11.223-29.371-11.593-32.978-10.367l-60.047 20.422-15.433-5.66c.049-.269 5.739-6.751 11.297-12.428.1-.021-.057-.039 1.281.451 3.784 1.389.89 1.572 65.355-20.353zm-69.14 161.843v-14.05c4.667.61 3.769.434 44.821.434a8 8 0 000-16H91.982c-13.712 0-26.227-8.129-31.938-20.479l29.183 10.704c3.787 1.389.891 1.573 65.356-20.353l54.565 20.338c3.567 1.332 5.414.063 15.574-3.481v13.272h-69.776a8 8 0 000 16h69.503v13.617c0 8.196-6.668 14.863-14.864 14.863H100.307c-8.196-.002-14.864-6.669-14.864-14.865zm93.038 110.53v-41.406c0-12.978-10.558-23.535-23.535-23.535-12.978 0-23.535 10.558-23.535 23.535v18.109a8 8 0 0016 0v-18.109c0-4.155 3.38-7.535 7.535-7.535s7.535 3.38 7.535 7.535v41.406h-51.935v-79.667h88.8v79.667zm219.077-44.462c2.087-.983 4.245-1.524 6.445-1.524 13.735 0 25.944 20.424 28.142 45.378-60.285 0-56.058-.121-56.313.22 1.853-23.28 11.788-39.38 21.726-44.074zm-113.973 43.854H227.3c2.198-24.955 14.407-45.378 28.142-45.378 13.736 0 25.945 20.423 28.143 45.378zM256.14 390.625v43.381c-20.568-.474-34.678 18.904-40.794 38.789v-57.043c13.772-2.612 24.337-14.395 25.063-28.738 5.451 2.96 10.144 3.611 15.731 3.611zm189.291-87.46c-4.888 9.739-14.708 15.79-25.626 15.79h-29.708c20.18-10.797 41.764-17.088 60.556-27.384a147.836 147.836 0 01-5.222 11.594z"/></symbol><symbol id="icon-croissant" viewBox="0 0 512.001 512.001"><path d="M361.042 26.766c84.804 13.997 147.378 76.57 143.261 118.561-4.117 41.991-64.806 3.88-100.741 26.64l-42.52-145.201z" fill="#ce9964"/><path d="M403.562 171.967l-8.967-30.62c36.051-21.413 95.63 15.573 99.708-26.019.201-2.052.238-4.154.126-6.297 7.395 12.685 10.961 25.208 9.874 36.296-4.117 41.99-64.808 3.88-100.741 26.64z" fill="#bc8c5c"/><path d="M200.933 51.661C258.031-5.438 341.281.418 361.041 26.766c17.388 23.183 41.788 85.255 42.909 137.971.321 15.1-6.406 29.492-18.108 39.041-11.949 9.749-30.163 20.201-54.76 22.277L200.933 51.661z" fill="#dda46c"/><path d="M26.766 361.041c13.997 84.804 76.57 147.378 118.561 143.261s3.88-64.806 26.64-100.741l-145.201-42.52z" fill="#ce9964"/><path d="M171.966 403.562l-30.62-8.967c-21.414 36.051 15.573 95.63-26.019 99.708a42.064 42.064 0 01-6.297.126c12.685 7.395 25.208 10.961 36.296 9.874 41.991-4.117 3.881-64.807 26.64-100.741z" fill="#bc8c5c"/><path d="M51.661 200.933C-5.438 258.031.418 341.281 26.766 361.041c23.183 17.388 85.255 41.788 137.971 42.909 15.1.321 29.492-6.406 39.041-18.109 9.749-11.949 20.201-30.163 22.277-54.76L51.661 200.933z" fill="#dda46c"/><path d="M51.661 200.933a154.453 154.453 0 00-3.195 3.303L204.884 320.97c-2.475 29.303-14.926 51.003-26.54 65.238a58.789 58.789 0 01-23.379 17.281c3.285.236 6.547.393 9.773.462 15.1.321 29.492-6.406 39.041-18.109 9.749-11.949 20.201-30.163 22.277-54.76L51.661 200.933zM200.933 51.662a154.453 154.453 0 013.303-3.195L320.97 204.886c29.303-2.475 51.003-14.926 65.238-26.54a58.789 58.789 0 0017.281-23.379c.236 3.285.393 6.547.462 9.773.321 15.1-6.406 29.492-18.109 39.041-11.949 9.749-30.163 20.201-54.76 22.277L200.933 51.662z" fill="#ce9964"/><path d="M324.815 250.713c27.993-27.993-37.874-108.68-71.63-158.904s-82.334-62.574-153.141 8.234-58.457 119.384-8.234 153.141 130.911 99.624 158.904 71.63l74.101-74.101z" fill="#f6b778"/><path d="M327.633 212.251c-1.558 5.221-4.203 9.848-8.117 13.762L216.539 328.99c14.316 4.142 26.32 3.679 34.175-4.176l74.1-74.1c8.627-8.626 8.332-22.261 2.819-38.463z" fill="#dda46c"/><path d="M113.408 192.752a7.5 7.5 0 00-10.606 0 7.5 7.5 0 000 10.606l8.14 8.14c2.781 2.781 7.688 2.919 10.606 0a7.5 7.5 0 000-10.606l-8.14-8.14zm89.951-89.951a7.5 7.5 0 00-10.606 0 7.5 7.5 0 000 10.606l8.14 8.14c2.792 2.792 7.71 2.896 10.606.001a7.5 7.5 0 000-10.607l-8.14-8.14zm-29.022 37.278a7.499 7.499 0 00-6.98 7.985c.337 5.028-1.64 10.083-5.425 13.868s-8.834 5.757-13.868 5.425a7.495 7.495 0 00-7.985 6.98 7.499 7.499 0 006.98 7.985c9.371.629 18.8-3.106 25.478-9.784 6.846-6.846 10.413-16.133 9.785-25.478a7.502 7.502 0 00-7.985-6.981z"/><path d="M470.982 69.929c-28.74-25.291-66.26-43.005-105.923-50.068C355.286 8.994 337.258 1.933 314.916.345c-41.59-2.953-84.842 13.19-116.485 43.307a66.351 66.351 0 00-2.491-.292c-30.126-2.928-64.165 14.365-101.189 51.39S40.436 165.82 43.36 195.939c.081.834.181 1.664.292 2.492C13.535 230.074-2.61 273.326.345 314.917c1.588 22.34 8.648 40.369 19.516 50.142 7.063 39.662 24.776 77.183 50.068 105.923 22.878 25.998 49.232 41.019 71.518 41.018 1.56 0 3.104-.074 4.622-.223 13.909-1.364 22.672-8.271 26.047-20.53 2.633-9.567 1.654-21.259.618-33.638-1.398-16.696-2.837-33.92 3.979-47.215 12.795-2.508 24.386-9.385 32.886-19.802 8.754-10.729 19.429-28.026 23.055-51.462 9.145-.002 17.088-2.718 23.373-9.004l74.1-74.101c5.998-5.998 8.991-13.743 8.98-23.37 23.446-3.623 40.753-14.302 51.487-23.058 10.419-8.501 17.301-20.094 19.808-32.889 13.293-6.811 30.514-5.374 47.209-3.976 12.378 1.037 24.07 2.016 33.637-.618 12.259-3.375 19.166-12.138 20.53-26.046 2.273-23.196-12.977-51.659-40.796-76.139zM197.977 381.11c-6.928 8.492-17.055 13.901-27.772 15.097-7.9.881-16.237-.165-24.09-1.08a244.291 244.291 0 01-11.984-1.705 7.5 7.5 0 00-2.473 14.795c9.411 1.572 18.932 2.67 28.466 3.094-5.041 15.258-3.621 32.212-2.337 47.551 2.398 28.64 1.027 36.594-13.182 37.987-18.144 1.775-42.433-11.932-63.417-35.776-20.449-23.237-35.58-52.707-43.505-84.338.133.073 2.036 1.09 2.869 1.525 17.378 9.084 35.782 15.8 54.52 21.461 2.315.7 4.642 1.354 6.977 1.986 3.283.889 7.118-.801 8.657-3.861 2.102-4.18-.221-9.395-4.739-10.618a337.286 337.286 0 01-3.202-.884c-31.82-8.956-57.733-21.429-70.281-30.407-12.651-9.049-16.149-27.6-17.178-42.084-2.453-34.514 9.775-70.371 33.053-98.192a71.904 71.904 0 001.348 2.997c7.848 17.004 22.601 30.46 37.927 40.761 5.268 3.541 22.58 15.669 25.582 17.786 35.588 25.107 74.31 52.415 104.568 59.914-3.161 20.002-12.303 34.795-19.807 43.991zm183.134-183.133c-9.202 7.507-24.006 16.656-44.023 19.814l-.032-.122c-1.506-6.026-3.837-12.586-7.01-19.712-8.853-19.884-23.426-42.372-37.35-62.595a1440.634 1440.634 0 00-4.134-5.972c-2.483-3.561-7.042-5.116-10.854-2.46-3.303 2.302-4.163 7.145-1.865 10.442 8.478 12.166 16.781 24.434 24.046 36.247 16.963 27.759 31.983 59.451 19.633 71.8l-74.1 74.101c-9.447 9.447-26.742 2.902-37.028-1.342-23.889-9.856-53.695-30.153-78.22-47.381-27.403-19.256-68.068-38.799-71.883-76.311-2.471-25.441 13.365-55.431 47.067-89.133s63.69-49.54 89.133-47.067c22.793 2.215 40.321 19.623 52.481 37.714 4.016 5.976 8.452 12.324 11.868 17.188 2.347 3.341 7.117 4.168 10.449 1.827a7.5 7.5 0 001.826-10.448c-14.681-20.902-28.503-43.48-52.445-54.856l-.028-.014a72.239 72.239 0 00-2.978-1.339c27.819-23.278 63.675-35.509 98.191-33.054 19.041 1.353 34.827 7.472 41.199 15.969 7.711 10.281 13.28 22.242 18.264 34.033 11.801 27.918 22.421 65.494 23.146 99.597v.052c.253 12.619-5.593 25.059-15.353 33.022zm115.738-53.372c-1.393 14.209-9.35 15.578-37.986 13.182-15.339-1.284-32.291-2.705-47.549 2.336-.005-.121-.015-.24-.021-.361-.79-17.743-3.847-35.33-8.216-52.525-5.859-23.057-13.928-45.897-24.995-66.992a206.78 206.78 0 00-1.368-2.567c31.639 7.924 61.118 23.058 84.359 43.511 23.845 20.984 37.554 45.283 35.776 63.416z"/></symbol><symbol id="icon-croix" viewBox="0 0 31.112 31.112"><path d="M31.112 1.414L29.698 0 15.556 14.142 1.414 0 0 1.414l14.142 14.142L0 29.698l1.414 1.414L15.556 16.97l14.142 14.142 1.414-1.414L16.97 15.556z"/></symbol><symbol id="icon-eiffel-tower" viewBox="-73 0 512 512"><path d="M305.305 140.297c-.203 0-.407.012-.61.016.399-1.833.61-3.739.61-5.692 0-14.84-12.032-26.871-26.871-26.871-14.645 0-26.543 11.71-26.86 26.277a37.324 37.324 0 00-19.433-5.422c-20.707 0-37.493 16.786-37.493 37.489a37.29 37.29 0 004.278 17.383h135.613a31.438 31.438 0 002.254-11.696c0-17.386-14.098-31.484-31.488-31.484zm0 0" fill="#c2f4ff"/><path d="M305.305 140.297c-.203 0-.407.012-.61.016.399-1.833.61-3.739.61-5.692 0-14.84-12.032-26.871-26.871-26.871a26.72 26.72 0 00-10.875 2.3c9.421 4.177 16 13.602 16 24.571 0 1.953-.215 3.86-.61 5.691.203-.003.406-.015.61-.015 17.386 0 31.484 14.098 31.484 31.484a31.36 31.36 0 01-2.254 11.696h21.75a31.438 31.438 0 002.254-11.696c0-17.386-14.098-31.484-31.488-31.484zm0 0" fill="#87d1ea"/><path d="M15.375 198.094c5.648-4.887 14.02-6.172 21.07-3.7 6.989 2.45 13.438 8.708 15.082 16.043 5.598-10.582 16.055-19.144 28.668-18.19 12.215.925 23.153 12.421 21.957 24.608-.71 7.254-5.12 13.579-9.812 19.149-4.695 5.574-9.8 10.969-12.813 17.601-3.765 8.29-3.222 16.25.641 23.454 1.414 2.628-.86 5.703-3.797 5.18C45.332 276.686 7.395 249.28 7.5 217.034c.023-7.05 2.543-14.328 7.875-18.941zm0 0" fill="#f492ca"/><path d="M80.195 192.246c-4.105-.309-7.976.402-11.53 1.848 6.804 3.867 11.917 13.094 11.194 22.761-.543 7.25-3.918 13.575-7.504 19.149-3.59 5.574-7.492 10.965-9.793 17.598-2.878 8.293-2.464 16.253.493 23.457a4.41 4.41 0 01.32 1.707c4.383 1.53 8.754 2.71 12.996 3.468 2.938.528 5.211-2.546 3.8-5.175-3.866-7.204-4.41-15.164-.644-23.457 3.016-6.633 8.118-12.024 12.813-17.598 4.691-5.574 9.101-11.899 9.812-19.149 1.192-12.187-9.742-23.683-21.957-24.609zm0 0" fill="#db6595"/><path d="M315.043 504.5S198.57 323.023 198.57 76.191h-32.144c0 246.832-116.469 428.309-116.469 428.309h61.383a72.666 72.666 0 01-.723-10.121c0-39.7 32.184-71.883 71.883-71.883s71.883 32.184 71.883 71.883a72.65 72.65 0 01-.723 10.121zM152.27 350.582a945.032 945.032 0 0015.828-53.953h28.8a944.933 944.933 0 0015.832 53.953zm0 0" fill="#f27755"/><path d="M166.426 76.191c0 7.563-.11 15.063-.324 22.5h32.793a779.197 779.197 0 01-.325-22.5h-32.144zm98.184 326.438a909.121 909.121 0 01-8.86-22.5H109.246a909.402 909.402 0 01-8.855 22.5zm-44.47-140.098h-75.285a875.877 875.877 0 01-5.476 22.5h86.238a892.468 892.468 0 01-5.476-22.5zm0 0" fill="#d14a3f"/><path d="M235.684 237.234H129.313c-4.856 0-8.797 3.942-8.797 8.801v7.7a8.796 8.796 0 008.796 8.796h106.372c4.859 0 8.8-3.937 8.8-8.797v-7.699a8.8 8.8 0 00-8.8-8.8zm0 0" fill="#fed89b"/><path d="M235.684 237.234h-22.399c4.856 0 8.797 3.942 8.797 8.801v7.7a8.796 8.796 0 01-8.797 8.796h22.399c4.859 0 8.8-3.937 8.8-8.797v-7.699a8.8 8.8 0 00-8.8-8.8zm0 0" fill="#d69e5b"/><path d="M155.645 52.387l-1.504 19.058a4.4 4.4 0 004.386 4.746h47.946a4.397 4.397 0 004.382-4.746l-1.503-19.058a4.399 4.399 0 00-4.387-4.051H160.03a4.402 4.402 0 00-4.386 4.05zm0 0" fill="#fed89b"/><path d="M209.352 52.387a4.399 4.399 0 00-4.387-4.051h-17.543a4.399 4.399 0 014.387 4.05l1.504 19.06a4.4 4.4 0 01-4.387 4.745h17.547a4.402 4.402 0 004.386-4.746zm0 0" fill="#d69e5b"/><path d="M285.07 360.418v10.91c0 4.86-3.937 8.8-8.797 8.8H88.727a8.801 8.801 0 01-8.801-8.8v-10.91c0-4.86 3.941-8.797 8.8-8.797h187.547a8.796 8.796 0 018.797 8.797zm0 0" fill="#fed89b"/><path d="M276.273 351.621h-23.5a8.796 8.796 0 018.797 8.797v10.91c0 4.86-3.937 8.8-8.797 8.8h23.5c4.86 0 8.797-3.94 8.797-8.8v-10.91a8.796 8.796 0 00-8.797-8.797zm0 0" fill="#d69e5b"/><path d="M357.5 175.98h-13.434c.149-1.386.227-2.789.227-4.199 0-18.976-13.613-34.773-31.504-38.261-.582-18.446-15.773-33.274-34.355-33.274-14.848 0-27.688 9.668-32.422 23.04a45.464 45.464 0 00-18.41-1.958 7.498 7.498 0 00-6.715 8.211 7.502 7.502 0 008.21 6.715c6.368-.645 12.915.738 18.583 4.184a7.502 7.502 0 0011.39-6.247c.23-10.445 8.914-18.945 19.364-18.945 10.316 0 18.777 8.11 19.343 18.29a39.064 39.064 0 00-17.129 8.05c-3.207 2.617-3.68 7.344-1.058 10.55a7.47 7.47 0 005.808 2.755 7.448 7.448 0 004.743-1.692c15.504-12.668 39.152-1.707 39.152 18.582 0 1.418-.125 2.82-.367 4.196h-63.57c-.07 0-.141.003-.208.003h-52.765c-3.875-30.945-5.98-61.804-6.278-92.289h.368c3.308 0 6.496-1.394 8.738-3.824a11.926 11.926 0 003.125-9.012l-1.504-19.058c-.488-6.145-5.7-10.961-11.863-10.961H190V7.5a7.5 7.5 0 00-7.5-7.5 7.497 7.497 0 00-7.5 7.5v33.336h-14.969c-6.164 0-11.375 4.812-11.86 10.96l-1.507 19.06a11.926 11.926 0 003.125 9.011 11.934 11.934 0 008.738 3.824h.364c-.465 48.121-5.438 97.184-14.79 146.043h-14.788c-8.985 0-16.297 7.313-16.297 16.301v7.7c0 8.984 7.312 16.296 16.296 16.296h6.075a898.241 898.241 0 01-21.282 74.09H88.727c-8.989 0-16.301 7.313-16.301 16.3v10.907c0 8.988 7.312 16.3 16.3 16.3h9.59a866.304 866.304 0 01-11.84 28.72c-1.644 3.8.098 8.218 3.899 9.863a7.495 7.495 0 009.863-3.898 891.759 891.759 0 0014.168-34.684h136.176C271.199 441.223 291.5 479.12 301.797 497h-39.965c1.555-44.46-34.316-82-79.332-82s-80.89 37.535-79.336 82H63.188c5.609-9.75 14.203-25.488 24.25-46.55a7.5 7.5 0 10-13.54-6.458C60.852 471.344 50.145 489.758 45.77 497H22.684c-4.141 0-7.5 3.355-7.5 7.5s3.359 7.5 7.5 7.5H135.91c4.14 0 7.5-3.355 7.5-7.5s-3.36-7.5-7.5-7.5h-17.734c-1.54-36.129 27.504-67 64.324-67 36.863 0 65.86 30.91 64.32 67h-17.73c-4.145 0-7.5 3.355-7.5 7.5s3.355 7.5 7.5 7.5h113.226c4.141 0 7.5-3.355 7.5-7.5s-3.359-7.5-7.5-7.5h-23.09c-6.886-11.406-29.472-50.547-52.55-109.371h9.597c8.985 0 16.297-7.313 16.297-16.3v-10.911c0-8.984-7.312-16.297-16.297-16.297h-25.382a900.238 900.238 0 01-12.028-38.883 7.5 7.5 0 10-14.43 4.106 913.698 913.698 0 0010.657 34.777h-16.567a939.907 939.907 0 01-14.367-49.39 7.499 7.499 0 00-7.258-5.602h-28.8c-3.41 0-6.391 2.3-7.254 5.601a938.816 938.816 0 01-14.367 49.391h-16.57a913.461 913.461 0 0020.906-74.09h63.378c.825 3.473 1.664 6.93 2.512 10.328a7.501 7.501 0 009.086 5.47 7.502 7.502 0 005.469-9.09 996.802 996.802 0 01-1.64-6.708h6.066c8.988 0 16.3-7.312 16.3-16.3v-7.7c0-8.984-7.312-16.297-16.3-16.297h-14.79a849.201 849.201 0 01-6.492-38.754H357.5a7.5 7.5 0 100-15zm-79.93 184.438v10.91c0 2.024 10.61 1.297-188.843 1.3a1.3 1.3 0 01-1.301-1.3v-10.91a1.3 1.3 0 011.3-1.297h187.548c.715 0 1.297.582 1.297 1.297zm-103.695-56.29h17.25a963.114 963.114 0 0011.656 39.993h-40.566a957.199 957.199 0 0011.66-39.992zM162.898 55.837h39.204l1.015 12.855h-41.234zm74.086 190.2v7.694c0 .72-.586 1.301-1.3 1.301H220.32a5.275 5.275 0 00-.351 0h-90.656a1.3 1.3 0 01-1.297-1.3v-7.696a1.3 1.3 0 011.297-1.3h20.69c.095.003.188.007.286.007.094 0 .188-.004.285-.008h63.82c.211.008.422.008.633 0h20.657c.714 0 1.3.582 1.3 1.301zm-77.613-16.302c9.184-48.859 14.063-97.906 14.524-146.043h17.21c.317 33.145 2.727 66.715 7.196 100.356.02.289.058.57.113.848a859.77 859.77 0 007.215 44.84zm0 0"/><path d="M25.344 265.313c14.027 12.164 32.61 21.25 49.707 24.304 4.32.774 8.469-1.004 10.933-4.402 2.508-3.457 2.813-7.942.793-11.703-2.937-5.473-3.074-10.969-.422-16.805 5.614-12.363 21.516-21.305 23.262-39.121.735-7.5-1.754-15.07-7.004-21.32-5.613-6.68-13.578-10.871-21.851-11.496-10.469-.782-20.64 3.539-28.399 11.699-3.574-4.067-8.254-7.336-13.437-9.153-9.75-3.418-20.918-1.414-28.457 5.106C3.848 198.148.03 207.109 0 217.012c-.055 16.93 8.945 34.086 25.344 48.3zm-5.063-61.547c3.489-3.02 8.989-3.938 13.684-2.293 4.95 1.734 9.258 6.191 10.246 10.605a7.496 7.496 0 006.32 5.793 7.493 7.493 0 007.625-3.926c3.899-7.363 11.574-14.965 21.477-14.218 4.207.316 8.508 2.632 11.496 6.187 2.633 3.137 3.898 6.762 3.558 10.211-1.109 11.332-15.507 20.113-21.992 34.375-3.43 7.555-4.125 15.281-2.101 22.715-27.606-7.766-55.672-31.617-55.594-56.156.016-5.477 1.992-10.446 5.281-13.293zm0 0"/></symbol><symbol id="icon-github" viewBox="0 0 568.034 568.034"><path d="M550.99 0H17.051C8.948 0 2.381 6.567 2.381 14.67v538.694c0 8.104 6.567 14.67 14.67 14.67h177.498v-.129c8.011-.092 14.149-4.577 14.431-12.166.728-19.725.214-39.492.214-58.562-14.296.667-27.944 2.473-41.438 1.695-29.762-1.714-52.632-14.413-64.493-43.556-7.026-17.265-17.613-32.032-34.101-41.886-3.079-1.842-5.771-4.554-8.127-7.308-3.079-3.592-2.503-7.282 2.362-8.268 4.908-.998 10.27-1.695 15.11-.79 19.009 3.568 32.154 15.49 42.216 31.347 19.896 31.371 50.521 40.974 84.976 26.487 1.921-.808 4.363-2.766 4.725-4.553 2.778-13.887 7.968-26.549 18.427-37.65-11.628-2.154-22.399-3.739-32.962-6.188-30.417-7.038-57.742-19.7-77.724-44.848-16.303-20.514-23.758-44.528-27.185-70.086-5.367-40.031-.563-77.503 26.928-109.493 1.389-1.616 2.142-4.927 1.524-6.94-6.885-22.497-5.833-44.805.991-67.051 3.581-11.683 4.578-12.265 16.5-10.637.729.098 1.438.281 2.161.404 23.898 3.954 44.468 15.526 64.731 27.95 2.724 1.671 6.873 2.711 9.866 1.983 48.397-11.744 96.702-11.695 145.093.043 2.809.679 6.561-.288 9.247-1.695 11.016-5.759 21.561-12.454 32.718-17.914 12.98-6.346 26.652-11.12 41.371-10.857 2.576.049 6.561 2.509 7.423 4.786 8.856 23.464 10.723 47.375 3.666 71.794-.753 2.607.367 6.322 1.769 8.892 6.965 12.779 16.689 24.572 21.096 38.127 13.434 41.316 8.538 82.229-9.749 121.06-16.757 35.594-47.834 53.63-84.621 62.933-12.424 3.14-25.153 5.049-38.556 7.681 17.564 18.348 20.318 40.74 20.006 64.192-.324 24.192-.238 48.391-.251 72.589-.006 11.72 5.11 18.195 14.039 18.574-.006.037 188.723.037 188.723.037V14.67C565.653 6.567 559.087 0 550.99 0z"/></symbol><symbol id="icon-linkedin" viewBox="0 0 455 455"><g fill-rule="evenodd" clip-rule="evenodd"><path d="M246.4 204.35v-.67c-.14.23-.32.45-.44.67h.44z"/><path d="M0 0v455h455V0H0zm141.52 378h-67.5V174.9h67.5V378zm-33.75-230.8h-.45C84.68 147.2 70 131.6 70 112.1 70 92.17 85.1 77 108.21 77s37.31 15.17 37.75 35.1c0 19.5-14.64 35.1-38.2 35.1zM385 378h-67.52V269.35c0-27.3-9.76-45.92-34.2-45.92-18.66 0-29.75 12.54-34.64 24.69-1.78 4.34-2.24 10.37-2.24 16.46V378h-67.54s.9-184.04 0-203.1h67.54v28.79c8.97-13.81 24.99-33.55 60.86-33.55 44.43 0 77.74 29.02 77.74 91.4V378z"/></g></symbol><symbol id="icon-matryoshka-doll" viewBox="0 0 512 512"><path d="M354.423 180.476c10.133-17.002 15.991-36.846 16.069-58.059.226-61.996-49.81-113.458-111.79-114.886-64.468-1.485-117.195 50.331-117.195 114.462 0 21.38 5.873 41.381 16.08 58.501 4.748 7.964 3.63 18.101-2.52 25.039-28.904 32.607-46.977 79.044-46.977 130.585 0 98.671 66.222 151.094 147.91 151.094s147.91-52.423 147.91-151.094c0-51.541-18.073-97.978-46.977-130.585-6.156-6.945-7.26-17.085-2.51-25.057z" fill="#f7ef87"/><path d="M194.993 216.705c3.252-8.822 2.286-18.583-2.473-26.692-23.008-39.204-33.286-103.542-2.172-161.825-29.531 20.707-48.842 54.998-48.842 93.804 0 21.38 5.873 41.381 16.08 58.501 4.748 7.964 3.63 18.101-2.52 25.039-28.904 32.607-46.977 79.044-46.977 130.584 0 98.671 66.222 151.094 147.91 151.094 11.964 0 23.593-1.133 34.734-3.363-147.13-33.77-120.982-198.669-95.74-267.142z" fill="#efd176"/><path d="M256 504.5c-21.725 0-67.396-2.251-100.759-10.69-12.51-3.165-20.087-15.871-16.923-28.381s15.871-20.088 28.381-16.923c25.164 6.365 63.931 9.264 89.301 9.264s64.137-2.899 89.301-9.264c12.512-3.163 25.216 4.413 28.381 16.923 3.164 12.51-4.413 25.216-16.923 28.381-33.363 8.439-79.034 10.69-100.759 10.69z" fill="#e8899e"/><path d="M269.067 504.281c-21.776-10.162-24.669-32.941-16.225-46.527-25.341-.226-61.999-3.141-86.144-9.248-12.51-3.165-25.217 4.413-28.381 16.923s4.413 25.216 16.923 28.381c33.364 8.439 79.034 10.69 100.759 10.69 3.714 0 8.138-.068 13.068-.219z" fill="#de5c6e"/><path d="M370.492 122.418c.226-61.996-49.81-113.459-111.79-114.886-64.468-1.485-117.195 50.331-117.195 114.462 0 21.38 5.873 41.381 16.08 58.501 4.748 7.964 3.63 18.101-2.52 25.039-18.751 21.153-32.935 48.131-40.592 78.543 38.951-5.999 97.106-24.345 141.525-56.811 44.419 32.467 102.574 50.813 141.525 56.811-7.657-30.412-21.842-57.391-40.593-78.544-6.155-6.944-7.26-17.085-2.509-25.056 10.134-17.003 15.992-36.846 16.069-58.059z" fill="#e8899e"/><path d="M114.475 284.076c19.004-2.927 42.583-8.802 66.904-17.813 3.704-19.074 8.676-36.161 13.615-49.557 3.252-8.822 2.286-18.583-2.473-26.692-23.008-39.204-33.286-103.542-2.172-161.825-29.531 20.707-48.842 54.998-48.842 93.804 0 21.38 5.873 41.381 16.08 58.501 4.748 7.964 3.63 18.101-2.52 25.039-18.751 21.153-32.935 48.132-40.592 78.543z" fill="#de5c6e"/><circle cx="256" cy="122.091" fill="#fcf2d0" r="72.341"/><path d="M326.117 104.247C318.17 72.925 289.794 49.75 256 49.75c-35.39 0-64.824 25.42-71.091 58.992 31.195-.07 78.549-6.459 92.533-23.146 6.736 11.022 27.583 20.241 48.675 18.651z" fill="#4e5660"/><g fill="#de5c6e"><path d="M256 227.265c9.106 9.106 9.106 23.87 0 32.976-16.488 16.488-37.434 20.946-45.678 12.702s-3.786-29.19 12.702-45.678c9.106-9.106 23.87-9.106 32.976 0z"/><path d="M256 227.265c-9.106 9.106-9.106 23.87 0 32.976 16.488 16.488 37.434 20.946 45.678 12.702s3.786-29.19-12.702-45.678c-9.106-9.106-23.87-9.106-32.976 0zm-22.959 190.644c12.181 1.553 22.959-7.938 22.959-20.217v-35.651l-33.906 11.017c-11.678 3.794-17.374 16.978-12.133 28.083a29.673 29.673 0 0023.08 16.768z"/></g><path d="M302.039 401.14c5.241-11.105-.455-24.288-12.133-28.083L256 362.041v35.651c0 12.279 10.778 21.77 22.959 20.217a29.672 29.672 0 0023.08-16.769z" fill="#e8899e"/><path d="M307.413 330.337c-8.941-8.416-23.24-7.073-30.458 2.861L256 362.041l33.906 11.017c11.678 3.794 24.036-3.523 26.323-15.588a29.673 29.673 0 00-8.816-27.133z" fill="#de5c6e"/><path d="M204.588 330.337c8.941-8.416 23.24-7.073 30.458 2.861L256 362.041l-33.906 11.017c-11.678 3.794-24.036-3.523-26.323-15.588a29.674 29.674 0 018.817-27.133z" fill="#e8899e"/><path d="M241.736 303.347c-10.767 5.903-13.908 19.917-6.691 29.851L256 362.041l20.955-28.842c7.218-9.934 4.077-23.948-6.691-29.851a29.67 29.67 0 00-28.528-.001z" fill="#fff"/><ellipse cx="209.128" cy="141.938" fill="#eda1ab" rx="17.295" ry="13.773"/><ellipse cx="302.872" cy="141.938" fill="#eda1ab" rx="17.295" ry="13.773"/><path d="M344.06 356.57c2.532 9.638 11.229 16.017 20.748 16.017 1.805 0 3.641-.229 5.469-.71 10.664-2.802 21.473-6.013 32.047-10.206 1.04-8.141 1.586-16.657 1.586-25.554 0-7.525-.396-14.938-1.144-22.218-12.18 7.197-26.618 12.045-43.398 16.454-11.467 3.013-18.321 14.75-15.308 26.217zm-176.12 0c-2.532 9.638-11.229 16.017-20.748 16.017-1.805 0-3.641-.229-5.469-.71-10.664-2.802-21.473-6.013-32.047-10.206-1.04-8.141-1.586-16.657-1.586-25.554 0-7.525.396-14.938 1.144-22.218 12.18 7.197 26.618 12.045 43.398 16.454 11.467 3.013 18.321 14.75 15.308 26.217z" fill="#d2996f"/><path d="M292.793 135.698a7.5 7.5 0 007.5-7.5v-6.107a7.5 7.5 0 00-15 0v6.107a7.5 7.5 0 007.5 7.5zm-73.585-21.107a7.5 7.5 0 00-7.5 7.5v6.107a7.5 7.5 0 0015 0v-6.107a7.5 7.5 0 00-7.5-7.5zm51.42 8.225a7.498 7.498 0 00-10.581.725c-.602.69-1.927 1.847-4.047 1.847s-3.445-1.157-4.047-1.847a7.5 7.5 0 10-11.306 9.857c3.872 4.443 9.469 6.991 15.354 6.991s11.481-2.548 15.353-6.991a7.5 7.5 0 00-.726-10.582zm100.973 325.345c26.076-28.015 39.809-66.521 39.809-112.043 0-51.87-17.354-100.013-48.865-135.561-4.063-4.583-4.737-11.11-1.679-16.241 11.125-18.665 17.047-40.06 17.126-61.871.095-26.257-8.147-51.37-23.836-72.624a7.5 7.5 0 00-10.488-1.58 7.5 7.5 0 00-1.58 10.488c13.76 18.64 20.988 40.653 20.905 63.661-.069 19.128-5.26 37.886-15.012 54.247-6.417 10.767-5.075 24.379 3.34 33.871 15.865 17.897 27.975 39.924 35.633 64.079-24.612-4.885-51.318-13.439-75.346-24.182-2.765-9.933-8.884-19.999-17.328-28.443-10.376-10.376-26.369-11.783-38.279-4.238-11.91-7.546-27.903-6.138-38.279 4.238-8.444 8.444-14.563 18.509-17.328 28.442-24.028 10.744-50.734 19.297-75.346 24.183 7.658-24.155 19.768-46.181 35.632-64.078 8.417-9.495 9.762-23.1 3.35-33.855-9.827-16.483-15.021-35.384-15.021-54.661 0-29.045 11.442-56.224 32.22-76.527 20.77-20.297 48.219-31.099 77.302-30.436 21.353.492 41.877 7.357 59.353 19.854a7.5 7.5 0 008.725-12.201C306.672 8.426 283.251.595 258.875.033c-33.152-.762-64.45 11.561-88.132 34.704-23.689 23.15-36.736 54.138-36.736 87.255 0 21.98 5.926 43.537 17.138 62.342 3.052 5.119 2.373 11.639-1.69 16.223-31.511 35.547-48.864 83.69-48.864 135.56 0 45.516 13.729 84.018 39.798 112.031-4.561 4.063-7.81 9.388-9.341 15.441-3.232 12.78 2.008 26.208 13.04 33.414a7.5 7.5 0 008.203-12.559 15.87 15.87 0 01-6.701-17.177c1.039-4.109 3.616-7.567 7.256-9.737s7.907-2.793 12.015-1.754c25.786 6.522 65.32 9.493 91.14 9.493s65.354-2.971 91.139-9.493c8.479-2.146 17.126 3.01 19.272 11.491 2.145 8.481-3.01 17.125-11.491 19.271C322.271 494.797 277.379 497 256 497c-16.922 0-46.015-1.386-72.315-5.292-4.098-.614-7.912 2.22-8.52 6.317a7.5 7.5 0 006.317 8.52C208.561 510.567 237.731 512 256 512c22.072 0 68.52-2.3 102.599-10.919 16.499-4.174 26.527-20.992 22.354-37.491a30.688 30.688 0 00-9.352-15.429zM261.303 232.568c2.988-2.987 6.96-4.633 11.185-4.633s8.197 1.646 11.185 4.633c6.737 6.738 11.718 14.938 13.666 22.498.162.629.297 1.248.414 1.857.006.039.017.077.023.116.891 4.77.387 8.813-1.401 10.601-2.03 2.03-6.967 2.408-12.574.964-7.56-1.947-15.76-6.928-22.498-13.666a15.716 15.716 0 01-4.633-11.185c0-4.225 1.646-8.197 4.633-11.185zm-47.077 24.462c.006-.036.016-.071.022-.107.116-.609.252-1.228.414-1.857 1.947-7.56 6.928-15.76 13.666-22.498a15.716 15.716 0 0111.185-4.633c2.051 0 4.038.395 5.886 1.135-5.092 9.407-4.94 20.92.464 30.198-5.626 4.523-11.833 7.834-17.663 9.335-5.609 1.444-10.543 1.066-12.574-.964-1.789-1.789-2.294-5.835-1.4-10.609zm143.428 183.995a30.678 30.678 0 00-14.193.21c-24.542 6.207-62.54 9.035-87.461 9.035s-62.92-2.828-87.461-9.035a30.704 30.704 0 00-14.208-.226c-25.359-25.403-38.74-61.559-38.74-104.891 0-15.474 1.755-30.762 5.097-45.465 25.265-4.372 53.153-12.698 78.679-23.447.879 4.382 2.773 8.16 5.653 11.039 4.101 4.101 10.012 6.225 16.919 6.225 3.152 0 6.512-.442 10.002-1.341 8.226-2.119 16.579-6.576 24.062-12.765 11.088 9.194 23.547 14.178 34.063 14.178 6.724 0 12.654-2.034 16.916-6.296 2.879-2.879 4.773-6.657 5.653-11.04 25.526 10.748 53.415 19.074 78.679 23.446a205.404 205.404 0 015.097 45.465c-.001 43.342-13.388 79.504-38.757 104.908zm-66.819-123.606c-.911.086-1.812.221-2.702.394a27.98 27.98 0 00-.46-2.692 27.888 27.888 0 00-13.803-18.35c-11.189-6.135-24.549-6.136-35.739-.001a27.89 27.89 0 00-13.803 18.35c-.2.894-.35 1.792-.46 2.693a27.904 27.904 0 00-2.702-.394 27.889 27.889 0 00-21.718 7.456c-9.292 8.746-13.42 21.453-11.044 33.991a27.89 27.89 0 0013.187 18.797c.788.467 1.6.877 2.423 1.261-.441.796-.85 1.614-1.215 2.458a27.888 27.888 0 00.38 22.958c5.447 11.54 16.256 19.394 28.915 21.008a27.895 27.895 0 0021.953-6.733 27.951 27.951 0 001.955-1.907 27.951 27.951 0 001.955 1.907 27.895 27.895 0 0021.953 6.733c12.658-1.614 23.467-9.467 28.914-21.008a27.884 27.884 0 00.381-22.958 27.478 27.478 0 00-1.215-2.457 27.717 27.717 0 002.423-1.261 27.894 27.894 0 0013.187-18.797c2.376-12.538-1.752-25.245-11.044-33.991a27.918 27.918 0 00-21.721-7.457zm-81.602 47.338c-3.23-1.913-5.393-4.997-6.093-8.685a22.072 22.072 0 016.588-20.274c2.733-2.573 6.297-3.795 10.033-3.445 3.737.351 7.01 2.217 9.216 5.253l14.888 20.491-24.088 7.827c-3.572 1.161-7.315.745-10.544-1.167zm39.267 32.935c0 3.753-1.551 7.186-4.368 9.666-2.816 2.481-6.419 3.588-10.142 3.111a22.07 22.07 0 01-17.246-12.53c-1.602-3.394-1.665-7.161-.176-10.606 1.489-3.446 4.275-5.982 7.844-7.142l24.088-7.827zm7.5-48.411l-14.887-20.491c-2.207-3.037-2.969-6.726-2.148-10.389s3.086-6.673 6.377-8.478a22.065 22.065 0 0121.317 0c3.292 1.804 5.556 4.815 6.377 8.478.821 3.662.058 7.352-2.148 10.388zm39.256 48.658a22.07 22.07 0 01-17.246 12.53c-3.726.477-7.326-.63-10.142-3.111-2.817-2.48-4.368-5.913-4.368-9.666v-25.328l24.088 7.827c3.57 1.16 6.355 3.696 7.844 7.142 1.489 3.444 1.427 7.211-.176 10.606zm13.604-41.866c-.699 3.688-2.863 6.771-6.092 8.684-3.23 1.913-6.973 2.328-10.545 1.167l-24.088-7.827 14.886-20.49.001-.002c2.206-3.036 5.479-4.902 9.216-5.253 3.738-.351 7.3.873 10.033 3.445a22.073 22.073 0 016.589 20.276zM256 42.251c-38.921 0-71.408 28.001-78.42 64.912-.022.101-.037.204-.055.307a79.897 79.897 0 00-1.366 14.622c0 44.024 35.816 79.841 79.841 79.841s79.841-35.816 79.841-79.841a79.68 79.68 0 00-2.34-19.158 7.686 7.686 0 00-.176-.763c-8.872-34.418-40.176-59.92-77.325-59.92zm64.841 79.84c0 35.753-29.087 64.841-64.841 64.841s-64.841-29.087-64.841-64.841c0-2.008.105-3.992.285-5.954 26.072-.737 65.631-5.608 85.255-19.798 9.876 9.248 26.454 15.287 43.336 15.568.526 3.319.806 6.719.806 10.184zm-36.999-40.405A7.497 7.497 0 00278 78.118a7.51 7.51 0 00-6.307 2.662c-7.643 9.121-36.731 18.812-77.01 20.27 8.76-25.452 32.928-43.798 61.317-43.798 26.728 0 49.725 16.258 59.636 39.401-14.728-1.408-27.579-8.069-31.794-14.967z"/></symbol><symbol id="icon-menu" viewBox="0 -53 384 384"><path d="M368 154.668H16c-8.832 0-16-7.168-16-16s7.168-16 16-16h352c8.832 0 16 7.168 16 16s-7.168 16-16 16zM368 32H16C7.168 32 0 24.832 0 16S7.168 0 16 0h352c8.832 0 16 7.168 16 16s-7.168 16-16 16zm0 245.332H16c-8.832 0-16-7.168-16-16s7.168-16 16-16h352c8.832 0 16 7.168 16 16s-7.168 16-16 16zm0 0"/></symbol><symbol id="icon-russian-hat" viewBox="0 0 512 512"><path d="M87.411 249.575V451.48h36.006c0-19.09 15.476-34.566 34.566-34.566h196.034c19.091 0 34.566 15.476 34.566 34.566h36.005V249.575z" fill="#4e5660"/><path d="M156.051 7.5C74.008 7.5 7.5 74.008 7.5 156.051V451.48c0 29.282 23.738 53.021 53.02 53.021h9.876c29.282 0 53.021-23.738 53.021-53.021V296.695h265.167V451.48c0 29.282 23.738 53.021 53.021 53.021h9.875c29.282 0 53.021-23.738 53.021-53.021V156.051C504.5 74.008 437.992 7.5 355.949 7.5z" fill="#c6c6c6"/><path d="M156.051 7.5C74.008 7.5 7.5 74.008 7.5 156.051V451.48c0 29.282 23.738 53.021 53.02 53.021h9.876c29.282 0 53.021-23.738 53.021-53.021V296.695h265.167V451.48c0 29.282 23.738 53.021 53.021 53.021h9.875c29.282 0 53.021-23.738 53.021-53.021V156.051C504.5 74.008 437.992 7.5 355.949 7.5z" fill="#c6c6c6"/><path d="M449.112 210.07a53.582 53.582 0 004.818-22.193 53.479 53.479 0 00-7.344-27.084 53.7 53.7 0 00.469-7.091c0-19.119-10.285-36.522-26.175-46.03-5.41-23.864-26.791-41.734-52.268-41.734a53.53 53.53 0 00-15.647 2.341c-9.918-10.073-23.67-16.139-38.252-16.139-8.13 0-15.967 1.801-23.052 5.176-9.587-8.557-22.151-13.525-35.661-13.525-13.511 0-26.075 4.967-35.662 13.524-7.085-3.376-14.923-5.176-23.052-5.176-14.581 0-28.334 6.066-38.252 16.139a53.534 53.534 0 00-24.844-1.549c-9.68 1.686-18.314-6.487-17.405-16.271 1.309-14.09 3.987-26.768 7.499-39.543C57.508 25.465 7.5 84.913 7.5 156.051V451.48c0 29.282 23.738 53.021 53.021 53.021h9.875c29.282 0 53.021-23.738 53.021-53.021V296.695h265.167v19.414h8.328c26.008 0 47.092-21.084 47.092-47.092v-5.664c6.448-9.017 9.927-19.792 9.927-31.089a53.565 53.565 0 00-4.819-22.194z" fill="#9aa3b1"/><path d="M426.319 210.07c5.107-5.972 8.198-13.72 8.198-22.193a34.045 34.045 0 00-8.794-22.882 34.105 34.105 0 001.919-11.293c0-15.653-10.528-28.838-24.886-32.887.016-.428.032-.856.032-1.288 0-18.875-15.301-34.175-34.175-34.175a34.024 34.024 0 00-22.024 8.052c-4.946-12.782-17.348-21.85-31.875-21.85-10.961 0-20.709 5.166-26.963 13.189-5.026-12.617-17.343-21.537-31.751-21.537s-26.725 8.921-31.751 21.537c-6.254-8.023-16.002-13.189-26.962-13.189-14.527 0-26.929 9.069-31.875 21.85a34.03 34.03 0 00-22.025-8.052c-18.874 0-34.175 15.301-34.175 34.175 0 .432.017.86.033 1.288-14.358 4.048-24.886 17.234-24.886 32.887 0 3.959.681 7.757 1.919 11.293a34.045 34.045 0 00-8.794 22.882c0 8.474 3.091 16.221 8.198 22.193-5.107 5.972-8.198 13.719-8.198 22.193 0 9.395 3.793 17.902 9.928 24.08v12.674c0 15.286 12.392 27.678 27.678 27.678h281.822c15.286 0 27.678-12.392 27.678-27.678v-12.674c6.135-6.178 9.928-14.685 9.928-24.08-.001-8.473-3.092-16.221-8.199-22.193z" fill="#c6c6c6"/><path d="M254.193 182.748l-15.262 5.427c-3.57 1.27-7.302-1.442-7.198-5.23l.445-16.192a5.39 5.39 0 00-1.117-3.437l-9.878-12.838c-2.311-3.003-.885-7.39 2.749-8.462l15.537-4.58a5.398 5.398 0 002.924-2.124l9.157-13.362c2.142-3.126 6.755-3.126 8.897 0l9.157 13.362a5.394 5.394 0 002.924 2.124l15.538 4.58c3.635 1.071 5.06 5.458 2.749 8.462l-9.878 12.838a5.396 5.396 0 00-1.117 3.437l.445 16.192c.104 3.788-3.628 6.499-7.198 5.23l-15.262-5.427a5.395 5.395 0 00-3.612 0z" fill="#e8899e"/><ellipse cx="173.739" cy="257.892" fill="#fff" rx="30.353" ry="24.171"/><ellipse cx="338.261" cy="257.892" fill="#fff" rx="30.353" ry="24.171"/><path d="M55.133 439.135a7.5 7.5 0 01-5.303-12.804l6.838-6.838a7.5 7.5 0 0110.606 0 7.5 7.5 0 010 10.606l-6.838 6.838a7.469 7.469 0 01-5.303 2.198zm25.769-97.392a7.479 7.479 0 01-5.303-2.196l-6.838-6.838a7.5 7.5 0 0110.607-10.608l6.838 6.838a7.5 7.5 0 01-5.304 12.804zm-29.333-133.55a7.474 7.474 0 01-5.303-2.197l-6.838-6.838a7.5 7.5 0 010-10.606 7.5 7.5 0 0110.606 0l6.838 6.838a7.5 7.5 0 01-5.303 12.803zM97.003 87.979a7.474 7.474 0 01-5.303-2.197 7.5 7.5 0 010-10.606l6.838-6.838a7.5 7.5 0 0110.606 0 7.5 7.5 0 010 10.606l-6.838 6.838a7.472 7.472 0 01-5.303 2.197z" fill="#c6c6c6"/><path d="M247.701 57.121a7.474 7.474 0 01-5.303-2.197l-6.838-6.838a7.5 7.5 0 010-10.606 7.5 7.5 0 0110.606 0l6.838 6.838a7.5 7.5 0 010 10.606 7.472 7.472 0 01-5.303 2.197zm93.702 93.702a7.477 7.477 0 01-5.303-2.196l-6.839-6.838a7.5 7.5 0 0110.605-10.608l6.839 6.838a7.5 7.5 0 01-5.302 12.804zM149.29 171.449a7.472 7.472 0 01-5.303-2.197 7.5 7.5 0 010-10.606l6.838-6.838a7.5 7.5 0 0110.607 10.606l-6.838 6.838a7.48 7.48 0 01-5.304 2.197zm299.294 267.686a7.5 7.5 0 01-5.304-12.803l6.838-6.838a7.5 7.5 0 0110.607 10.606l-6.838 6.838a7.474 7.474 0 01-5.303 2.197zm-9.852-78.082a7.476 7.476 0 01-5.304-2.197l-6.838-6.838a7.501 7.501 0 0110.607-10.607l6.838 6.838a7.5 7.5 0 01-.001 10.607 7.474 7.474 0 01-5.302 2.197zm21.708-117.078a7.5 7.5 0 01-5.304-12.803l6.838-6.838a7.5 7.5 0 0110.607 0 7.5 7.5 0 01.001 10.607l-6.838 6.838a7.489 7.489 0 01-5.304 2.196zM411.638 87.979a7.5 7.5 0 01-5.303-12.804l6.839-6.838a7.5 7.5 0 1110.606 10.607l-6.839 6.838a7.474 7.474 0 01-5.303 2.197z" fill="#9aa3b1"/><path d="M277.95 228.6a7.5 7.5 0 00-10.581.728c-2.87 3.293-7.014 5.183-11.369 5.183s-8.499-1.889-11.37-5.183a7.501 7.501 0 00-10.582-.727 7.5 7.5 0 00-.727 10.581 30.078 30.078 0 0022.678 10.329 30.075 30.075 0 0022.678-10.329 7.5 7.5 0 00-.727-10.582zm-86.521-13.039a7.5 7.5 0 00-7.5 7.5v10.718a7.5 7.5 0 0015 0v-10.718a7.5 7.5 0 00-7.5-7.5zM355.949 0H156.051c-24.827 0-48.563 5.66-70.552 16.824a7.5 7.5 0 106.79 13.375C112.154 20.114 133.606 15 156.051 15h199.898C433.725 15 497 78.275 497 156.051v279.257c0 4.142 3.357 7.5 7.5 7.5s7.5-3.358 7.5-7.5V156.051C512 70.004 441.996 0 355.949 0zm-35.378 215.561a7.5 7.5 0 00-7.5 7.5v10.718c0 4.142 3.357 7.5 7.5 7.5s7.5-3.358 7.5-7.5v-10.718a7.5 7.5 0 00-7.5-7.5zm183.055 248.158a7.502 7.502 0 00-9.71 4.269C487.055 485.612 470.397 497 451.479 497h-9.875c-25.1 0-45.52-20.42-45.52-45.521V304.195h.827c19.397 0 35.178-15.781 35.178-35.178v-9.754c6.425-7.53 9.928-17.001 9.928-26.999a41.674 41.674 0 00-6.409-22.193 41.677 41.677 0 006.409-22.193c0-8.879-2.815-17.45-8-24.551a41.56 41.56 0 001.125-9.624c0-16.676-10.061-31.673-25.048-38.211-2.036-21.093-19.862-37.639-41.48-37.639a41.693 41.693 0 00-19.268 4.728c-7.641-11.348-20.647-18.526-34.632-18.526-9.273 0-18.06 3.014-25.227 8.489-7.723-10.47-19.998-16.837-33.487-16.837-13.49 0-25.765 6.367-33.488 16.837-7.166-5.475-15.953-8.489-25.226-8.489-13.985 0-26.992 7.178-34.632 18.526a41.706 41.706 0 00-19.268-4.728c-21.618 0-39.444 16.546-41.481 37.639-14.987 6.538-25.047 21.535-25.047 38.211 0 3.255.377 6.477 1.125 9.624a41.58 41.58 0 00-8 24.551 41.677 41.677 0 006.409 22.193 41.677 41.677 0 00-6.409 22.193c0 9.997 3.503 19.468 9.928 26.999v9.754c0 19.397 15.781 35.178 35.178 35.178h.828V451.48c0 25.1-20.42 45.521-45.52 45.521H60.52C35.42 497 15 476.58 15 451.479V156.051c0-41.117 17.89-80.099 49.082-106.948a7.5 7.5 0 00.792-10.577 7.499 7.499 0 00-10.577-.792C19.79 67.437 0 110.561 0 156.051V451.48C0 484.851 27.149 512 60.52 512h9.876c33.371 0 60.52-27.149 60.52-60.521 0-14.924 12.142-27.066 27.066-27.066h196.034c14.925 0 27.066 12.142 27.066 27.066l.002.039c.021 33.353 27.161 60.482 60.52 60.482h9.875c25.148 0 47.293-15.14 56.415-38.571a7.5 7.5 0 00-4.268-9.71zm-122.542-44.406c-7.322-6.171-16.765-9.899-27.067-9.899H157.983c-10.302 0-19.745 3.728-27.066 9.899V304.195h250.168v115.118zM115.089 289.195c-11.126 0-20.178-9.052-20.178-20.178v-12.673c0-1.98-.783-3.88-2.178-5.285-4.997-5.032-7.749-11.707-7.749-18.794a26.67 26.67 0 016.397-17.319 7.5 7.5 0 000-9.749 26.668 26.668 0 01-6.398-17.319c0-6.61 2.438-12.952 6.863-17.858a7.5 7.5 0 001.51-7.501 26.621 26.621 0 01-1.498-8.816c0-11.889 7.986-22.444 19.421-25.668 3.331-.939 5.583-4.108 5.457-7.566-.011-.313-.024-.625-.024-.941 0-14.709 11.966-26.675 26.675-26.675a26.682 26.682 0 0117.187 6.283 7.5 7.5 0 0011.832-3.024c3.948-10.203 13.947-17.057 24.88-17.057 8.273 0 15.944 3.754 21.047 10.3a7.5 7.5 0 0012.883-1.835c4.069-10.213 13.797-16.813 24.784-16.813 10.986 0 20.715 6.6 24.783 16.813a7.501 7.501 0 0012.883 1.835c5.103-6.546 12.774-10.3 21.048-10.3 10.934 0 20.933 6.854 24.881 17.057a7.5 7.5 0 0011.832 3.025 26.677 26.677 0 0117.187-6.283c14.709 0 26.675 11.966 26.675 26.675 0 .315-.013.628-.027 1.016a7.501 7.501 0 005.46 7.492c11.435 3.224 19.421 13.779 19.421 25.668 0 3.011-.504 5.977-1.498 8.815a7.5 7.5 0 001.51 7.502 26.616 26.616 0 016.863 17.858 26.668 26.668 0 01-6.398 17.319 7.5 7.5 0 00.001 9.749 26.668 26.668 0 016.397 17.318c0 7.088-2.752 13.763-7.749 18.794a7.498 7.498 0 00-2.179 5.285v12.673c0 11.126-9.052 20.178-20.178 20.178H115.089zm175.098-154.372l-14.818-4.368-8.733-12.743a12.887 12.887 0 00-10.635-5.605 12.887 12.887 0 00-10.635 5.604l-8.734 12.744-14.818 4.368a12.89 12.89 0 00-6.573 20.229l9.421 12.244-.425 15.443a12.887 12.887 0 005.311 10.786 12.886 12.886 0 0011.897 1.717L256 190.066l14.557 5.176a12.89 12.89 0 0017.207-12.502l-.425-15.442 9.422-12.245a12.89 12.89 0 002.043-11.846 12.887 12.887 0 00-8.617-8.384zm-15.191 23.918a12.92 12.92 0 00-2.672 8.219l.36 13.119-12.362-4.396a12.926 12.926 0 00-8.644-.001l-12.364 4.396.361-13.119a12.936 12.936 0 00-2.669-8.217l-8.003-10.402 12.591-3.711a12.936 12.936 0 006.987-5.078L256 128.726l7.419 10.824a12.938 12.938 0 006.991 5.08l12.588 3.711z"/></symbol><symbol id="icon-skype" viewBox="0 0 455.73 455.73"><path d="M0 0v455.73h455.73V0H0zm306.8 384.3a84.04 84.04 0 01-42.58-11.53c-9.1 1.77-18.5 2.7-28.1 2.7-80.83 0-146.35-65.51-146.35-146.33 0-9.62.94-19.01 2.71-28.11A84.47 84.47 0 01208 85.5c9.1-1.77 18.5-2.71 28.11-2.71 80.82 0 146.34 65.52 146.34 146.34 0 9.61-.94 19-2.7 28.1A84.47 84.47 0 01306.8 384.3z"/><path d="M247.4 206.63c-54-10.5-57.5-27-44.5-38.5s51.63-16.66 62.5 3.5c10.5 19.5 18 27.5 32.5 24 13.83-3.33 15.83-22.5 10-34-4.71-9.27-26-33-68-33s-86 15.5-86 54 40 55.5 78.5 61 47.5 22 42.5 34-21.5 23.5-46.5 21-36.54-23.43-40-34c-3.34-10.16-15-11.5-20.5-11s-23 7.5-15 32 34 44 86 44 82.5-32 82.5-62.5-20-50-74-60.5z"/></symbol><symbol id="icon-vk" viewBox="0 0 455.73 455.73"><path d="M0 0v455.73h455.73V0H0zm365.34 252.87c11 11.35 22.77 21.96 33.42 33.6a198.12 198.12 0 0121.03 27.36c7.75 12.25 2.96 23.78-11.53 25.84-9.11 1.28-53.64 0-55.94 0-11.97-.06-22.46-4.21-30.91-12.34-9.4-9.05-17.94-18.98-26.97-28.42a75.33 75.33 0 00-8.75-7.96c-7.38-5.63-14.62-4.38-18.07 4.29-2.95 7.44-5.5 27-5.61 28.67-.62 8.73-6.18 14.3-15.96 14.83-28.24 1.54-55.6-1.61-81.1-15.27-21.6-11.57-38.86-27.93-53.8-47-23.75-30.31-42.5-63.62-59.62-97.91-.88-1.76-18.22-38.66-18.69-40.4-1.54-5.84-.1-11.41 4.83-13.33 3.08-1.2 60.25 0 61.2.05 9.12.5 15.35 4.34 19.19 13.81 10.92 26.97 24.76 52.4 43 75.23a40.13 40.13 0 008.67 7.94c4.69 3.22 9.11 2.09 11.02-3.28 2.02-5.63 3.87-17.04 3.98-22.95.3-15.45-.05-25.57-.88-41-.53-9.88-4.05-18.56-18.58-21.18-4.5-.81-4.9-4.5-2.02-8.2 6-7.67 14.36-8.89 23.43-9.37 14.7-.8 29.46-.15 44.18 0 6 .05 12.02.54 17.93 1.82 7.7 1.68 11.82 7.08 13.09 14.6.66 3.88 1 7.87.9 11.8-.38 16.85-1.2 33.7-1.38 50.56-.09 6.61.4 13.4 1.81 19.84 1.98 8.97 8.1 11.23 14.35 4.74 7.93-8.24 14.93-17.5 21.5-26.93 11.94-17.12 20.85-35.92 28.52-55.3 3.97-10 7.01-12.17 17.77-12.2 20.22-.04 40.44-.06 60.66 0 3.59.02 7.34.36 10.72 1.43 5.5 1.76 7.67 6.24 6.39 11.92-3 13.32-10.2 24.65-17.91 35.53-12.38 17.47-25.34 34.51-38 51.77a65.03 65.03 0 00-4.37 6.93c-4.73 8.56-4.4 13.36 2.5 20.48z"/></symbol></svg>