<?xml version="1.0" standalone="no"?>
<!DOCTYPE svg PUBLIC "-//W3C//DTD SVG 20010904//EN"
 "http://www.w3.org/TR/2001/REC-SVG-20010904/DTD/svg10.dtd">
<svg version="1.0" xmlns="http://www.w3.org/2000/svg"
 width="1028.000000pt" height="1028.000000pt" viewBox="0 0 1028.000000 1028.000000"
 preserveAspectRatio="xMidYMid meet">
<metadata>
Created by potrace 1.14, written by Peter Selinger 2001-2017
</metadata>
<g transform="translate(0.000000,1028.000000) scale(0.100000,-0.100000)"
fill="#000000" stroke="none">
<path d="M2057 9263 c-1 0 -33 -4 -72 -7 -634 -52 -1171 -355 -1556 -876 -166
-224 -305 -545 -359 -825 -49 -257 -47 -567 4 -831 21 -107 98 -355 119 -381
5 -7 7 -13 4 -13 -6 0 88 -188 132 -265 190 -331 540 -650 897 -820 207 -98
390 -155 598 -185 70 -10 130 -20 131 -22 2 -2 -431 -871 -961 -1931 -530
-1060 -964 -1939 -964 -1953 0 -39 27 -82 63 -100 30 -16 310 -17 4067 -17
2219 0 4073 3 4120 7 145 12 168 15 292 41 200 41 462 141 634 243 356 209
649 527 829 897 113 233 164 402 202 675 18 128 8 511 -17 625 -5 22 -11 52
-14 68 -3 15 -8 38 -11 51 -13 60 -58 204 -91 288 -213 540 -658 983 -1201
1192 -103 40 -278 90 -373 106 -36 6 -76 13 -90 16 -14 2 -52 6 -85 9 -33 3
-69 7 -80 10 -20 4 -20 12 -20 1956 0 1574 -2 1957 -13 1978 -7 15 -27 35 -44
46 -30 17 -133 18 -3085 19 -1680 1 -3055 0 -3056 -1z m1893 -239 c0 -2 -422
-848 -937 -1880 l-938 -1875 -73 5 c-278 20 -562 110 -822 262 -146 85 -358
267 -478 409 -57 67 -56 66 -78 100 -10 17 -21 32 -25 35 -3 3 -14 19 -23 35
-9 17 -26 44 -36 60 -11 17 -47 84 -80 150 -89 177 -143 357 -179 590 -10 65
-8 438 3 495 4 19 11 58 16 85 44 240 136 467 275 681 40 60 79 117 86 125 8
8 30 34 50 59 102 125 262 267 419 369 171 112 467 230 665 265 39 7 180 25
225 28 58 5 1930 6 1930 2z m4070 -1875 c0 -1496 -3 -1879 -12 -1879 -17 -1
-1735 -1 -1770 0 -26 0 -68 82 -962 1871 -515 1029 -936 1874 -936 1878 0 5
828 8 1840 8 l1840 1 0 -1879z m-3995 -199 l0 -1680 -843 0 c-532 0 -842 4
-840 10 10 28 1674 3350 1678 3350 3 0 5 -756 5 -1680z m1085 0 l840 -1680
-82 0 c-98 -1 -541 -1 -1160 0 l-447 0 0 1680 c0 924 2 1680 4 1680 2 0 382
-756 845 -1680z m-1135 -1920 l50 0 0 -1875 c0 -1031 -2 -1876 -5 -1876 -3 -1
-830 -2 -1837 -3 -1218 -1 -1833 2 -1833 9 0 5 420 850 932 1877 l933 1867 50
3 c37 2 1251 1 1710 -2z m2077 0 c14 0 252 -467 953 -1870 514 -1028 935
-1873 935 -1877 0 -5 -827 -8 -1837 -8 l-1838 0 -2 1877 -2 1877 67 3 c51 2
1637 1 1724 -2z m1941 0 l27 0 0 -1687 -1 -1688 -843 1685 -843 1685 31 5 c23
4 1401 4 1629 0z m427 -20 c193 -29 374 -86 555 -177 506 -253 860 -700 990
-1248 38 -160 49 -261 49 -445 -1 -182 -17 -308 -60 -468 -128 -477 -435 -883
-852 -1129 -262 -155 -568 -252 -807 -257 l-40 -1 0 1860 c-1 1023 1 1866 3
1873 4 13 26 12 162 -8z"/>
</g>
</svg>
