<svg xmlns="http://www.w3.org/2000/svg" viewBox="0 0 455.73 455.73"><path d="M0 0v455.73h455.73V0H0zm365.34 252.87c11 11.35 22.77 21.96 33.42 33.6a198.12 198.12 0 0121.03 27.36c7.75 12.25 2.96 23.78-11.53 25.84-9.11 1.28-53.64 0-55.94 0-11.97-.06-22.46-4.21-30.91-12.34-9.4-9.05-17.94-18.98-26.97-28.42a75.33 75.33 0 00-8.75-7.96c-7.38-5.63-14.62-4.38-18.07 4.29-2.95 7.44-5.5 27-5.61 28.67-.62 8.73-6.18 14.3-15.96 14.83-28.24 1.54-55.6-1.61-81.1-15.27-21.6-11.57-38.86-27.93-53.8-47-23.75-30.31-42.5-63.62-59.62-97.91-.88-1.76-18.22-38.66-18.69-40.4-1.54-5.84-.1-11.41 4.83-13.33 3.08-1.2 60.25 0 61.2.05 9.12.5 15.35 4.34 19.19 13.81 10.92 26.97 24.76 52.4 43 75.23a40.13 40.13 0 008.67 7.94c4.69 3.22 9.11 2.09 11.02-3.28 2.02-5.63 3.87-17.04 3.98-22.95.3-15.45-.05-25.57-.88-41-.53-9.88-4.05-18.56-18.58-21.18-4.5-.81-4.9-4.5-2.02-8.2 6-7.67 14.36-8.89 23.43-9.37 14.7-.8 29.46-.15 44.18 0 6 .05 12.02.54 17.93 1.82 7.7 1.68 11.82 7.08 13.09 14.6.66 3.88 1 7.87.9 11.8-.38 16.85-1.2 33.7-1.38 50.56-.09 6.61.4 13.4 1.81 19.84 1.98 8.97 8.1 11.23 14.35 4.74 7.93-8.24 14.93-17.5 21.5-26.93 11.94-17.12 20.85-35.92 28.52-55.3 3.97-10 7.01-12.17 17.77-12.2 20.22-.04 40.44-.06 60.66 0 3.59.02 7.34.36 10.72 1.43 5.5 1.76 7.67 6.24 6.39 11.92-3 13.32-10.2 24.65-17.91 35.53-12.38 17.47-25.34 34.51-38 51.77a65.03 65.03 0 00-4.37 6.93c-4.73 8.56-4.4 13.36 2.5 20.48z"/></svg>