<svg version="1.2" baseProfile="tiny-ps" xmlns="http://www.w3.org/2000/svg" viewBox="0 0 1032 850" width="1032" height="850">
	<title>anastasia-logo-svg</title>
	<style>
		tspan { white-space:pre }
		.shp0 { fill: #000000 } 
	</style>
	<g id="Layer 1">
		<g id="&lt;Group&gt;">
			<path id="&lt;Compound Path&gt;" fill-rule="evenodd" class="shp0" d="M-153.27 1157.32L-202.39 1157.32L-211.76 1179.99L-236.85 1179.99L-189.69 1074.18L-165.51 1074.18L-118.2 1179.99L-143.89 1179.99L-153.27 1157.32ZM-160.97 1138.72L-177.75 1098.21L-194.53 1138.72L-160.97 1138.72ZM65.25 1074.18L65.25 1179.99L45.14 1179.99L-7.61 1115.75L-7.61 1179.99L-31.79 1179.99L-31.79 1074.18L-11.54 1074.18L41.06 1138.42L41.06 1074.18L65.25 1074.18ZM235.39 1157.32L186.27 1157.32L176.89 1179.99L151.8 1179.99L198.96 1074.18L223.15 1074.18L270.46 1179.99L244.76 1179.99L235.39 1157.32ZM227.68 1138.72L210.9 1098.21L194.13 1138.72L227.68 1138.72ZM348.55 1169.56L356.86 1151.14C365.78 1157.62 379.08 1162.15 391.78 1162.15C406.29 1162.15 412.19 1157.32 412.19 1150.84C412.19 1131.04 350.67 1144.64 350.67 1105.34C350.67 1087.33 365.18 1072.37 395.26 1072.37C408.56 1072.37 422.16 1075.54 431.99 1081.74L424.43 1100.33C414.6 1094.74 404.48 1092.02 395.11 1092.02C380.6 1092.02 375 1097.46 375 1104.13C375 1123.66 436.52 1110.18 436.52 1149.03C436.52 1166.69 421.86 1181.8 391.63 1181.8C374.85 1181.8 357.92 1176.81 348.55 1169.56ZM549.08 1094.13L515.22 1094.13L515.22 1074.18L607.42 1074.18L607.42 1094.13L573.56 1094.13L573.56 1179.99L549.08 1179.99L549.08 1094.13ZM760.33 1157.32L711.21 1157.32L701.84 1179.99L676.74 1179.99L723.9 1074.18L748.09 1074.18L795.4 1179.99L769.7 1179.99L760.33 1157.32ZM752.62 1138.72L735.85 1098.21L719.07 1138.72L752.62 1138.72ZM873.49 1169.56L881.8 1151.14C890.72 1157.62 904.02 1162.15 916.72 1162.15C931.23 1162.15 937.13 1157.32 937.13 1150.84C937.13 1131.04 875.61 1144.64 875.61 1105.34C875.61 1087.33 890.12 1072.37 920.2 1072.37C933.5 1072.37 947.1 1075.54 956.93 1081.74L949.37 1100.33C939.55 1094.74 929.42 1092.02 920.05 1092.02C905.54 1092.02 899.94 1097.46 899.94 1104.13C899.94 1123.66 961.46 1110.18 961.46 1149.03C961.46 1166.69 946.8 1181.8 916.57 1181.8C899.79 1181.8 882.86 1176.81 873.49 1169.56ZM1053.61 1074.18L1078.1 1074.18L1078.1 1179.99L1053.61 1179.99L1053.61 1074.18ZM1248.24 1157.32L1199.12 1157.32L1189.74 1179.99L1164.65 1179.99L1211.81 1074.18L1236 1074.18L1283.31 1179.99L1257.61 1179.99L1248.24 1157.32ZM1240.53 1138.72L1223.75 1098.21L1206.98 1138.72L1240.53 1138.72Z" />
			<path id="&lt;Path&gt;" class="shp0" d="M223.65 413.18C230.14 413.18 235.4 418.44 235.4 424.94C235.4 431.43 230.14 436.69 223.65 436.69C165.25 436.69 112.38 413.02 74.11 374.75C35.84 336.48 12.17 283.61 12.17 225.22C12.17 166.82 35.84 113.95 74.11 75.68C112.38 37.41 165.25 13.74 223.65 13.74C230.14 13.74 235.4 19.01 235.4 25.5C235.4 31.99 230.14 37.26 223.65 37.26C171.74 37.26 124.75 58.29 90.74 92.31C56.72 126.32 35.68 173.31 35.68 225.22C35.68 277.12 56.72 324.11 90.74 358.13C124.75 392.14 171.74 413.18 223.65 413.18Z" />
			<path id="&lt;Path&gt;" class="shp0" d="M34.4 829.61C31.51 835.39 24.47 837.74 18.69 834.85C12.91 831.96 10.57 824.92 13.46 819.14L412.89 20.26C415.78 14.48 422.82 12.14 428.6 15.03C430.96 16.21 432.75 18.08 433.84 20.27L833.27 819.14C836.16 824.92 833.82 831.96 828.04 834.85C822.26 837.74 815.22 835.39 812.33 829.61L423.36 51.68L34.4 829.61Z" />
			<path id="&lt;Path&gt;" class="shp0" d="M223.65 436.7C217.15 436.7 211.89 431.43 211.89 424.94C211.89 418.45 217.15 413.18 223.65 413.18L822.8 413.18C829.3 413.18 834.56 418.45 834.56 424.94C834.56 431.43 829.3 436.7 822.8 436.7L223.65 436.7Z" />
			<path id="&lt;Path&gt;" class="shp0" d="M834.56 824.37C834.56 830.87 829.3 836.13 822.8 836.13C816.31 836.13 811.05 830.87 811.05 824.37L811.05 25.5C811.05 19.01 816.31 13.74 822.8 13.74C829.3 13.74 834.56 19.01 834.56 25.5L834.56 824.37Z" />
			<path id="&lt;Path&gt;" class="shp0" d="M435.12 824.37C435.12 830.87 429.86 836.13 423.37 836.13C416.87 836.13 411.61 830.87 411.61 824.37L411.61 25.5C411.61 19.01 416.87 13.74 423.37 13.74C429.86 13.74 435.12 19.01 435.12 25.5L435.12 824.37Z" />
			<path id="&lt;Path&gt;" class="shp0" d="M822.8 836.13C816.31 836.13 811.05 830.87 811.05 824.37C811.05 817.88 816.31 812.62 822.8 812.62C874.71 812.62 921.7 791.58 955.71 757.57C989.73 723.55 1010.77 676.56 1010.77 624.66C1010.77 572.75 989.73 525.76 955.71 491.75C921.7 457.73 874.71 436.69 822.8 436.69C816.31 436.69 811.05 431.43 811.05 424.94C811.05 418.44 816.31 413.18 822.8 413.18C881.2 413.18 934.07 436.85 972.34 475.12C1010.61 513.39 1034.28 566.26 1034.28 624.66C1034.28 683.05 1010.61 735.92 972.34 774.19C934.07 812.46 881.2 836.13 822.8 836.13Z" />
			<path id="&lt;Path&gt;" class="shp0" d="M213.21 37.26C206.72 37.26 201.45 31.99 201.45 25.5C201.45 19.01 206.72 13.74 213.21 13.74L822.8 13.74C829.3 13.74 834.56 19.01 834.56 25.5C834.56 31.99 829.3 37.26 822.8 37.26L213.21 37.26Z" />
			<path id="&lt;Path&gt;" class="shp0" d="M23.93 836.13C17.43 836.13 12.17 830.87 12.17 824.38C12.17 817.88 17.43 812.62 23.93 812.62L822.8 812.62C829.3 812.62 834.56 817.88 834.56 824.38C834.56 830.87 829.3 836.13 822.8 836.13L23.93 836.13Z" />
		</g>
	</g>
</svg>