<?xml version="1.0" encoding="iso-8859-1"?>
<!-- Generator: Adobe Illustrator 19.0.0, SVG Export Plug-In . SVG Version: 6.00 Build 0)  -->
<svg version="1.1" id="Capa_1" xmlns="http://www.w3.org/2000/svg" xmlns:xlink="http://www.w3.org/1999/xlink" x="0px" y="0px"
	 viewBox="0 0 512.001 512.001" style="enable-background:new 0 0 512.001 512.001;" xml:space="preserve">
<path style="fill:#CE9964;" d="M361.042,26.766c84.804,13.997,147.378,76.57,143.261,118.561
	c-4.117,41.991-64.806,3.88-100.741,26.64L361.042,26.766z"/>
<path style="fill:#BC8C5C;" d="M403.562,171.967l-8.967-30.62c36.051-21.413,95.63,15.573,99.708-26.019
	c0.201-2.052,0.238-4.154,0.126-6.297c7.395,12.685,10.961,25.208,9.874,36.296C500.186,187.317,439.495,149.207,403.562,171.967z"
	/>
<path style="fill:#DDA46C;" d="M200.933,51.661C258.031-5.438,341.281,0.418,361.041,26.766
	c17.388,23.183,41.788,85.255,42.909,137.971c0.321,15.1-6.406,29.492-18.108,39.041c-11.949,9.749-30.163,20.201-54.76,22.277
	L200.933,51.661z"/>
<path style="fill:#CE9964;" d="M26.766,361.041c13.997,84.804,76.57,147.378,118.561,143.261s3.88-64.806,26.64-100.741
	L26.766,361.041z"/>
<path style="fill:#BC8C5C;" d="M171.966,403.562l-30.62-8.967c-21.414,36.051,15.573,95.63-26.019,99.708
	c-2.052,0.201-4.154,0.238-6.297,0.126c12.685,7.395,25.208,10.961,36.296,9.874C187.317,500.186,149.207,439.496,171.966,403.562z"
	/>
<path style="fill:#DDA46C;" d="M51.661,200.933C-5.438,258.031,0.418,341.281,26.766,361.041
	c23.183,17.388,85.255,41.788,137.971,42.909c15.1,0.321,29.492-6.406,39.041-18.109c9.749-11.949,20.201-30.163,22.277-54.76
	L51.661,200.933z"/>
<g>
	<path style="fill:#CE9964;" d="M51.661,200.933c-1.091,1.091-2.15,2.194-3.195,3.303L204.884,320.97
		c-2.475,29.303-14.926,51.003-26.54,65.238c-6.301,7.722-14.376,13.615-23.379,17.281c3.285,0.236,6.547,0.393,9.773,0.462
		c15.1,0.321,29.492-6.406,39.041-18.109c9.749-11.949,20.201-30.163,22.277-54.76L51.661,200.933z"/>
	<path style="fill:#CE9964;" d="M200.933,51.662c1.091-1.091,2.194-2.15,3.303-3.195L320.97,204.886
		c29.303-2.475,51.003-14.926,65.238-26.54c7.722-6.301,13.615-14.376,17.281-23.379c0.236,3.285,0.393,6.547,0.462,9.773
		c0.321,15.1-6.406,29.492-18.109,39.041c-11.949,9.749-30.163,20.201-54.76,22.277L200.933,51.662z"/>
</g>
<path style="fill:#F6B778;" d="M324.815,250.713c27.993-27.993-37.874-108.68-71.63-158.904s-82.334-62.574-153.141,8.234
	s-58.457,119.384-8.234,153.141s130.911,99.624,158.904,71.63L324.815,250.713z"/>
<path style="fill:#DDA46C;" d="M327.633,212.251c-1.558,5.221-4.203,9.848-8.117,13.762L216.539,328.99
	c14.316,4.142,26.32,3.679,34.175-4.176l74.1-74.1C333.441,242.088,333.146,228.453,327.633,212.251z"/>
<path d="M113.408,192.752c-2.929-2.929-7.678-2.929-10.606,0c-2.929,2.929-2.929,7.678,0,10.606c0,0,8.128,8.128,8.14,8.14
	c2.781,2.781,7.688,2.919,10.606,0c2.929-2.929,2.929-7.678,0-10.606L113.408,192.752z"/>
<path d="M203.359,102.801c-2.928-2.929-7.677-2.929-10.606,0c-2.929,2.929-2.929,7.677,0,10.606c0,0,8.127,8.128,8.14,8.14
	c2.792,2.792,7.71,2.896,10.606,0.001c2.929-2.929,2.929-7.678,0-10.607L203.359,102.801z"/>
<path d="M174.337,140.079c-4.133,0.277-7.258,3.853-6.98,7.985c0.337,5.028-1.64,10.083-5.425,13.868s-8.834,5.757-13.868,5.425
	c-4.135-0.281-7.708,2.848-7.985,6.98c-0.278,4.133,2.848,7.708,6.98,7.985c9.371,0.629,18.8-3.106,25.478-9.784
	c6.846-6.846,10.413-16.133,9.785-25.478C182.046,142.926,178.462,139.8,174.337,140.079z"/>
<path d="M470.982,69.929c-28.74-25.291-66.26-43.005-105.923-50.068c-9.773-10.867-27.801-17.928-50.143-19.516
	c-41.59-2.953-84.842,13.19-116.485,43.307c-0.827-0.112-1.657-0.211-2.491-0.292c-30.126-2.928-64.165,14.365-101.189,51.39
	S40.436,165.82,43.36,195.939c0.081,0.834,0.181,1.664,0.292,2.492C13.535,230.074-2.61,273.326,0.345,314.917
	c1.588,22.34,8.648,40.369,19.516,50.142c7.063,39.662,24.776,77.183,50.068,105.923c22.878,25.998,49.232,41.019,71.518,41.018
	c1.56,0,3.104-0.074,4.622-0.223c13.909-1.364,22.672-8.271,26.047-20.53c2.633-9.567,1.654-21.259,0.618-33.638
	c-1.398-16.696-2.837-33.92,3.979-47.215c12.795-2.508,24.386-9.385,32.886-19.802c8.754-10.729,19.429-28.026,23.055-51.462
	c9.145-0.002,17.088-2.718,23.373-9.004l74.1-74.101c5.998-5.998,8.991-13.743,8.98-23.37c23.446-3.623,40.753-14.302,51.487-23.058
	c10.419-8.501,17.301-20.094,19.808-32.889c13.293-6.811,30.514-5.374,47.209-3.976c12.378,1.037,24.07,2.016,33.637-0.618
	c12.259-3.375,19.166-12.138,20.53-26.046C514.051,122.872,498.801,94.409,470.982,69.929z M197.977,381.11
	c-6.928,8.492-17.055,13.901-27.772,15.097c-7.9,0.881-16.237-0.165-24.09-1.08c-3.915-0.456-7.914-1.025-11.984-1.705
	c-4.086-0.68-7.951,2.076-8.634,6.161s2.076,7.951,6.161,8.634c9.411,1.572,18.932,2.67,28.466,3.094
	c-5.041,15.258-3.621,32.212-2.337,47.551c2.398,28.64,1.027,36.594-13.182,37.987c-18.144,1.775-42.433-11.932-63.417-35.776
	c-20.449-23.237-35.58-52.707-43.505-84.338c0.133,0.073,2.036,1.09,2.869,1.525c17.378,9.084,35.782,15.8,54.52,21.461
	c2.315,0.7,4.642,1.354,6.977,1.986c3.283,0.889,7.118-0.801,8.657-3.861c2.102-4.18-0.221-9.395-4.739-10.618
	c-1.073-0.291-2.141-0.585-3.202-0.884c-31.82-8.956-57.733-21.429-70.281-30.407c-12.651-9.049-16.149-27.6-17.178-42.084
	c-2.453-34.514,9.775-70.371,33.053-98.192c0.421,1.002,0.873,1.997,1.348,2.997c7.848,17.004,22.601,30.46,37.927,40.761
	c5.268,3.541,22.58,15.669,25.582,17.786c35.588,25.107,74.31,52.415,104.568,59.914
	C214.623,357.121,205.481,371.914,197.977,381.11z M381.111,197.977c-9.202,7.507-24.006,16.656-44.023,19.814
	c-0.01-0.04-0.022-0.081-0.032-0.122c-1.506-6.026-3.837-12.586-7.01-19.712c-8.853-19.884-23.426-42.372-37.35-62.595
	c-1.373-1.994-2.751-3.985-4.134-5.972c-2.483-3.561-7.042-5.116-10.854-2.46c-3.303,2.302-4.163,7.145-1.865,10.442
	c8.478,12.166,16.781,24.434,24.046,36.247c16.963,27.759,31.983,59.451,19.633,71.8c0,0-74.036,74.037-74.1,74.101
	c-9.447,9.447-26.742,2.902-37.028-1.342c-23.889-9.856-53.695-30.153-78.22-47.381c-27.403-19.256-68.068-38.799-71.883-76.311
	c-2.471-25.441,13.365-55.431,47.067-89.133s63.69-49.54,89.133-47.067c22.793,2.215,40.321,19.623,52.481,37.714
	c4.016,5.976,8.452,12.324,11.868,17.188c2.347,3.341,7.117,4.168,10.449,1.827c3.389-2.381,4.207-7.059,1.826-10.448
	c-14.681-20.902-28.503-43.48-52.445-54.856c-0.009-0.005-0.019-0.009-0.028-0.014c-0.988-0.469-1.979-0.919-2.978-1.339
	c27.819-23.278,63.675-35.509,98.191-33.054c19.041,1.353,34.827,7.472,41.199,15.969c7.711,10.281,13.28,22.242,18.264,34.033
	c11.801,27.918,22.421,65.494,23.146,99.597c0,0.017,0,0.035,0,0.052C396.717,177.574,390.871,190.014,381.111,197.977z
	 M496.849,144.605c-1.393,14.209-9.35,15.578-37.986,13.182c-15.339-1.284-32.291-2.705-47.549,2.336
	c-0.005-0.121-0.015-0.24-0.021-0.361c-0.79-17.743-3.847-35.33-8.216-52.525c-5.859-23.057-13.928-45.897-24.995-66.992
	c-0.456-0.869-0.912-1.727-1.368-2.567c31.639,7.924,61.118,23.058,84.359,43.511C484.918,102.173,498.627,126.472,496.849,144.605z
	"/>
<g>
</g>
<g>
</g>
<g>
</g>
<g>
</g>
<g>
</g>
<g>
</g>
<g>
</g>
<g>
</g>
<g>
</g>
<g>
</g>
<g>
</g>
<g>
</g>
<g>
</g>
<g>
</g>
<g>
</g>
</svg>
