<svg id="Capa_1" enable-background="new 0 0 512 512" height="512" viewBox="0 0 512 512" width="512" xmlns="http://www.w3.org/2000/svg"><path d="m87.411 249.575v201.905h36.006c0-19.09 15.476-34.566 34.566-34.566h196.034c19.091 0 34.566 15.476 34.566 34.566h36.005v-201.905z" fill="#4e5660"/><path d="m156.051 7.5c-82.043 0-148.551 66.508-148.551 148.551v295.429c0 29.282 23.738 53.021 53.02 53.021h9.876c29.282 0 53.021-23.738 53.021-53.021v-154.785h265.167v154.785c0 29.282 23.738 53.021 53.021 53.021h9.875c29.282 0 53.021-23.738 53.021-53.021v-295.429c-.001-82.043-66.509-148.551-148.552-148.551z" fill="#c6c6c6"/><path d="m156.051 7.5c-82.043 0-148.551 66.508-148.551 148.551v295.429c0 29.282 23.738 53.021 53.02 53.021h9.876c29.282 0 53.021-23.738 53.021-53.021v-154.785h265.167v154.785c0 29.282 23.738 53.021 53.021 53.021h9.875c29.282 0 53.021-23.738 53.021-53.021v-295.429c-.001-82.043-66.509-148.551-148.552-148.551z" fill="#c6c6c6"/><path d="m449.112 210.07c3.15-6.92 4.818-14.486 4.818-22.193 0-9.605-2.561-18.929-7.344-27.084.312-2.343.469-4.71.469-7.091 0-19.119-10.285-36.522-26.175-46.03-5.41-23.864-26.791-41.734-52.268-41.734-5.337 0-10.609.801-15.647 2.341-9.918-10.073-23.67-16.139-38.252-16.139-8.13 0-15.967 1.801-23.052 5.176-9.587-8.557-22.151-13.525-35.661-13.525-13.511 0-26.075 4.967-35.662 13.524-7.085-3.376-14.923-5.176-23.052-5.176-14.581 0-28.334 6.066-38.252 16.139-5.038-1.54-10.311-2.341-15.647-2.341-3.136 0-6.208.272-9.197.792-9.68 1.686-18.314-6.487-17.405-16.271 1.309-14.09 3.987-26.768 7.499-39.543-66.776 14.55-116.784 73.998-116.784 145.136v295.429c0 29.282 23.738 53.021 53.021 53.021h9.875c29.282 0 53.021-23.738 53.021-53.021v-154.785h265.167v19.414h8.328c26.008 0 47.092-21.084 47.092-47.092v-5.664c6.448-9.017 9.927-19.792 9.927-31.089 0-7.709-1.668-15.274-4.819-22.194z" fill="#9aa3b1"/><path d="m426.319 210.07c5.107-5.972 8.198-13.72 8.198-22.193 0-8.802-3.329-16.824-8.794-22.882 1.238-3.536 1.919-7.334 1.919-11.293 0-15.653-10.528-28.838-24.886-32.887.016-.428.032-.856.032-1.288 0-18.875-15.301-34.175-34.175-34.175-8.394 0-16.076 3.031-22.024 8.052-4.946-12.782-17.348-21.85-31.875-21.85-10.961 0-20.709 5.166-26.963 13.189-5.026-12.617-17.343-21.537-31.751-21.537s-26.725 8.921-31.751 21.537c-6.254-8.023-16.002-13.189-26.962-13.189-14.527 0-26.929 9.069-31.875 21.85-5.949-5.021-13.631-8.052-22.025-8.052-18.874 0-34.175 15.301-34.175 34.175 0 .432.017.86.033 1.288-14.358 4.048-24.886 17.234-24.886 32.887 0 3.959.681 7.757 1.919 11.293-5.465 6.058-8.794 14.08-8.794 22.882 0 8.474 3.091 16.221 8.198 22.193-5.107 5.972-8.198 13.719-8.198 22.193 0 9.395 3.793 17.902 9.928 24.08v12.674c0 15.286 12.392 27.678 27.678 27.678h281.822c15.286 0 27.678-12.392 27.678-27.678v-12.674c6.135-6.178 9.928-14.685 9.928-24.08-.001-8.473-3.092-16.221-8.199-22.193z" fill="#c6c6c6"/><path d="m254.193 182.748-15.262 5.427c-3.57 1.27-7.302-1.442-7.198-5.23l.445-16.192c.034-1.24-.36-2.454-1.117-3.437l-9.878-12.838c-2.311-3.003-.885-7.39 2.749-8.462l15.537-4.58c1.19-.351 2.222-1.101 2.924-2.124l9.157-13.362c2.142-3.126 6.755-3.126 8.897 0l9.157 13.362c.701 1.023 1.734 1.773 2.924 2.124l15.538 4.58c3.635 1.071 5.06 5.458 2.749 8.462l-9.878 12.838c-.756.983-1.151 2.197-1.117 3.437l.445 16.192c.104 3.788-3.628 6.499-7.198 5.23l-15.262-5.427c-1.167-.415-2.443-.415-3.612 0z" fill="#e8899e"/><ellipse cx="173.739" cy="257.892" fill="#fff" rx="30.353" ry="24.171"/><ellipse cx="338.261" cy="257.892" fill="#fff" rx="30.353" ry="24.171"/><path d="m55.133 439.135c-1.919 0-3.839-.733-5.303-2.197-2.929-2.929-2.929-7.678 0-10.607l6.838-6.838c2.929-2.929 7.678-2.929 10.606 0 2.929 2.929 2.929 7.678 0 10.606l-6.838 6.838c-1.464 1.466-3.383 2.198-5.303 2.198z" fill="#c6c6c6"/><path d="m80.902 341.743c-1.919 0-3.838-.732-5.303-2.196l-6.838-6.838c-2.929-2.929-2.929-7.678 0-10.607 2.93-2.929 7.677-2.929 10.607-.001l6.838 6.838c2.929 2.929 2.929 7.678 0 10.607-1.465 1.465-3.384 2.197-5.304 2.197z" fill="#c6c6c6"/><path d="m51.569 208.193c-1.919 0-3.839-.732-5.303-2.197l-6.838-6.838c-2.929-2.929-2.929-7.678 0-10.606 2.929-2.929 7.678-2.929 10.606 0l6.838 6.838c2.929 2.929 2.929 7.678 0 10.606-1.464 1.464-3.384 2.197-5.303 2.197z" fill="#c6c6c6"/><path d="m97.003 87.979c-1.919 0-3.839-.732-5.303-2.197-2.929-2.929-2.929-7.678 0-10.606l6.838-6.838c2.929-2.929 7.678-2.929 10.606 0 2.929 2.929 2.929 7.678 0 10.606l-6.838 6.838c-1.464 1.465-3.383 2.197-5.303 2.197z" fill="#c6c6c6"/><g fill="#9aa3b1"><path d="m247.701 57.121c-1.919 0-3.839-.732-5.303-2.197l-6.838-6.838c-2.929-2.929-2.929-7.678 0-10.606 2.929-2.929 7.678-2.929 10.606 0l6.838 6.838c2.929 2.929 2.929 7.678 0 10.606-1.464 1.465-3.383 2.197-5.303 2.197z"/><path d="m341.403 150.823c-1.919 0-3.839-.732-5.303-2.196l-6.839-6.838c-2.93-2.929-2.93-7.678-.001-10.607 2.93-2.929 7.679-2.929 10.606-.001l6.839 6.838c2.93 2.929 2.93 7.678.001 10.607-1.464 1.464-3.384 2.197-5.303 2.197z"/><path d="m149.29 171.449c-1.92 0-3.839-.732-5.303-2.197-2.929-2.929-2.929-7.678 0-10.606l6.838-6.838c2.929-2.929 7.678-2.929 10.607 0s2.929 7.678 0 10.606l-6.838 6.838c-1.466 1.465-3.385 2.197-5.304 2.197z"/><path d="m448.584 439.135c-1.919 0-3.839-.732-5.303-2.196-2.93-2.929-2.93-7.678-.001-10.607l6.838-6.838c2.93-2.929 7.679-2.929 10.606-.001 2.93 2.929 2.93 7.678.001 10.607l-6.838 6.838c-1.464 1.465-3.384 2.197-5.303 2.197z"/><path d="m438.732 361.053c-1.92 0-3.839-.732-5.304-2.197l-6.838-6.838c-2.929-2.929-2.929-7.678.001-10.607 2.929-2.929 7.678-2.927 10.606 0l6.838 6.838c2.929 2.929 2.929 7.678-.001 10.607-1.463 1.464-3.383 2.197-5.302 2.197z"/><path d="m460.44 243.975c-1.919 0-3.839-.732-5.303-2.196-2.93-2.929-2.93-7.678-.001-10.607l6.838-6.838c2.93-2.929 7.679-2.929 10.607 0 2.93 2.929 2.93 7.678.001 10.607l-6.838 6.838c-1.466 1.463-3.386 2.196-5.304 2.196z"/><path d="m411.638 87.979c-1.92 0-3.839-.732-5.304-2.197-2.929-2.929-2.929-7.678.001-10.607l6.839-6.838c2.928-2.928 7.677-2.928 10.607 0 2.929 2.929 2.929 7.678-.001 10.607l-6.839 6.838c-1.464 1.465-3.384 2.197-5.303 2.197z"/></g><path d="m277.95 228.6c-3.122-2.72-7.861-2.396-10.581.728-2.87 3.293-7.014 5.183-11.369 5.183s-8.499-1.889-11.37-5.183c-2.721-3.122-7.458-3.448-10.582-.727-3.123 2.721-3.448 7.458-.727 10.581 5.72 6.564 13.986 10.329 22.678 10.329 8.693 0 16.959-3.765 22.678-10.329 2.722-3.124 2.396-7.861-.727-10.582zm-86.521-13.039c-4.142 0-7.5 3.358-7.5 7.5v10.718c0 4.142 3.358 7.5 7.5 7.5s7.5-3.358 7.5-7.5v-10.718c0-4.142-3.358-7.5-7.5-7.5zm164.52-215.561h-199.898c-24.827 0-48.563 5.66-70.552 16.824-3.694 1.875-5.168 6.389-3.293 10.083 1.875 3.693 6.389 5.167 10.083 3.292 19.865-10.085 41.317-15.199 63.762-15.199h199.898c77.776 0 141.051 63.275 141.051 141.051v279.257c0 4.142 3.357 7.5 7.5 7.5s7.5-3.358 7.5-7.5v-279.257c0-86.047-70.004-156.051-156.051-156.051zm-35.378 215.561c-4.143 0-7.5 3.358-7.5 7.5v10.718c0 4.142 3.357 7.5 7.5 7.5s7.5-3.358 7.5-7.5v-10.718c0-4.142-3.357-7.5-7.5-7.5zm183.055 248.158c-3.858-1.501-8.206.408-9.71 4.269-6.861 17.624-23.519 29.012-42.437 29.012h-9.875c-25.1 0-45.52-20.42-45.52-45.521v-147.284h.827c19.397 0 35.178-15.781 35.178-35.178v-9.754c6.425-7.53 9.928-17.001 9.928-26.999 0-7.886-2.246-15.582-6.409-22.193 4.163-6.612 6.409-14.307 6.409-22.193 0-8.879-2.815-17.45-8-24.551.748-3.146 1.125-6.369 1.125-9.624 0-16.676-10.061-31.673-25.048-38.211-2.036-21.093-19.862-37.639-41.48-37.639-6.744 0-13.357 1.645-19.268 4.728-7.641-11.348-20.647-18.526-34.632-18.526-9.273 0-18.06 3.014-25.227 8.489-7.723-10.47-19.998-16.837-33.487-16.837-13.49 0-25.765 6.367-33.488 16.837-7.166-5.475-15.953-8.489-25.226-8.489-13.985 0-26.992 7.178-34.632 18.526-5.911-3.082-12.524-4.728-19.268-4.728-21.618 0-39.444 16.546-41.481 37.639-14.987 6.538-25.047 21.535-25.047 38.211 0 3.255.377 6.477 1.125 9.624-5.185 7.102-8 15.672-8 24.551 0 7.886 2.246 15.581 6.409 22.193-4.163 6.612-6.409 14.307-6.409 22.193 0 9.997 3.503 19.468 9.928 26.999v9.754c0 19.397 15.781 35.178 35.178 35.178h.828v147.285c0 25.1-20.42 45.521-45.52 45.521h-9.877c-25.1-.001-45.52-20.421-45.52-45.522v-295.428c0-41.117 17.89-80.099 49.082-106.948 3.14-2.702 3.494-7.438.792-10.577-2.703-3.14-7.438-3.495-10.577-.792-34.507 29.703-54.297 72.827-54.297 118.317v295.429c0 33.371 27.149 60.52 60.52 60.52h9.876c33.371 0 60.52-27.149 60.52-60.521 0-14.924 12.142-27.066 27.066-27.066h196.034c14.925 0 27.066 12.142 27.066 27.066 0 .013.002.026.002.039.021 33.353 27.161 60.482 60.52 60.482h9.875c25.148 0 47.293-15.14 56.415-38.571 1.503-3.86-.408-8.207-4.268-9.71zm-122.542-44.406c-7.322-6.171-16.765-9.899-27.067-9.899h-196.034c-10.302 0-19.745 3.728-27.066 9.899v-115.118h250.168v115.118zm-265.995-130.118c-11.126 0-20.178-9.052-20.178-20.178v-12.673c0-1.98-.783-3.88-2.178-5.285-4.997-5.032-7.749-11.707-7.749-18.794 0-6.344 2.272-12.495 6.397-17.319 2.4-2.807 2.4-6.942 0-9.749-4.126-4.825-6.398-10.975-6.398-17.319 0-6.61 2.438-12.952 6.863-17.858 1.837-2.036 2.416-4.913 1.51-7.501-.994-2.84-1.498-5.806-1.498-8.816 0-11.889 7.986-22.444 19.421-25.668 3.331-.939 5.583-4.108 5.457-7.566-.011-.313-.024-.625-.024-.941 0-14.709 11.966-26.675 26.675-26.675 6.282 0 12.386 2.231 17.187 6.283 1.853 1.563 4.346 2.136 6.695 1.535 2.349-.6 4.262-2.299 5.137-4.559 3.948-10.203 13.947-17.057 24.88-17.057 8.273 0 15.944 3.754 21.047 10.3 1.652 2.12 4.312 3.196 6.973 2.814 2.661-.379 4.915-2.152 5.91-4.649 4.069-10.213 13.797-16.813 24.784-16.813 10.986 0 20.715 6.6 24.783 16.813.995 2.496 3.249 4.27 5.91 4.649 2.655.379 5.32-.694 6.973-2.814 5.103-6.546 12.774-10.3 21.048-10.3 10.934 0 20.933 6.854 24.881 17.057.875 2.261 2.788 3.959 5.137 4.56 2.35.6 4.841.028 6.695-1.535 4.8-4.052 10.903-6.283 17.187-6.283 14.709 0 26.675 11.966 26.675 26.675 0 .315-.013.628-.027 1.016-.126 3.457 2.13 6.553 5.46 7.492 11.435 3.224 19.421 13.779 19.421 25.668 0 3.011-.504 5.977-1.498 8.815-.906 2.589-.327 5.466 1.51 7.502 4.426 4.906 6.863 11.249 6.863 17.858 0 6.344-2.272 12.494-6.398 17.319-2.4 2.807-2.399 6.943.001 9.749 4.125 4.824 6.397 10.974 6.397 17.318 0 7.088-2.752 13.763-7.749 18.794-1.396 1.405-2.179 3.305-2.179 5.285v12.673c0 11.126-9.052 20.178-20.178 20.178h-281.823zm175.098-154.372-14.818-4.368-8.733-12.743c-2.405-3.51-6.381-5.605-10.635-5.605-4.254 0-8.231 2.095-10.635 5.604l-8.734 12.744-14.818 4.368c-4.081 1.203-7.302 4.337-8.617 8.382-1.314 4.046-.551 8.475 2.044 11.847l9.421 12.244-.425 15.443c-.117 4.253 1.868 8.285 5.311 10.786 2.234 1.623 4.891 2.463 7.577 2.463 1.453 0 2.914-.246 4.32-.746l14.555-5.176 14.557 5.176c4.009 1.426 8.455.784 11.898-1.717 3.441-2.501 5.426-6.533 5.309-10.785l-.425-15.442 9.422-12.245c2.594-3.372 3.357-7.8 2.043-11.846-1.315-4.047-4.535-7.181-8.617-8.384zm-15.191 23.918c-1.805 2.343-2.754 5.263-2.672 8.219l.36 13.119-12.362-4.396c-2.788-.993-5.857-.992-8.644-.001l-12.364 4.396.361-13.119c.081-2.956-.867-5.874-2.669-8.217l-8.003-10.402 12.591-3.711c2.835-.837 5.317-2.641 6.987-5.078l7.419-10.825 7.419 10.824c1.671 2.438 4.152 4.242 6.991 5.08l12.588 3.711z"/></svg>