<svg xmlns="http://www.w3.org/2000/svg" viewBox="0 0 455 455"><g fill-rule="evenodd" clip-rule="evenodd"><path d="M246.4 204.35v-.67c-.14.23-.32.45-.44.67h.44z"/><path d="M0 0v455h455V0H0zm141.52 378h-67.5V174.9h67.5V378zM107.77 147.2h-.45c-22.64 0-37.32-15.6-37.32-35.1 0-19.93 15.1-35.1 38.21-35.1s37.31 15.17 37.75 35.1c0 19.5-14.64 35.1-38.2 35.1zM385 378h-67.52V269.35c0-27.3-9.76-45.92-34.2-45.92-18.66 0-29.75 12.54-34.64 24.69-1.78 4.34-2.24 10.37-2.24 16.46V378h-67.54s.9-184.04 0-203.1h67.54v28.79c8.97-13.81 24.99-33.55 60.86-33.55 44.43 0 77.74 29.02 77.74 91.4V378z"/></g></svg>